<svg xmlns="http://www.w3.org/2000/svg" viewBox="0 0 448 448" enable-background="new 0 0 448 448"><path d="M445.719 228.219l-55.469-166.313c-5.906-17.875-22.594-29.906-41.469-29.906h-348.781v256h143.172c5.75 0 7.953.938 8.313 1.297l123.609 123.609c9.313 8.75 21.156 17.922 36.813 17.922 14.375 0 33.063-8.953 38.406-34.188 3.906-18.484-3.469-51.141-24.813-75.313-3.688-4.172-6.625-14.672-9.469-24.813-.813-2.828-1.625-5.672-2.438-8.516h90.656c9.531 0 23.438-3.531 35.5-20.359 8.189-11.233 10.47-26.045 5.97-39.42zm-349.719 27.781h-64v-192h64v192zm317.75-7c-2.219 3.094-5.688 7-9.5 7h-123.289c-7.455 4.33-7.363 13.645-.961 32 6.828 19.574 9.52 40.922 21.5 54.5 15.059 17.066 19.258 39.219 17.5 47.5-2.721 12.824-10.295 10.564-21.281.281l-123.61-123.609c-8.266-8.266-19.25-10.672-30.938-10.672h-15.171v-192h220.781c5.063 0 9.531 3.219 11.125 8.031l55.469 166.391c1.219 3.625.625 7.484-1.625 10.578z"/></svg>