<svg xmlns="http://www.w3.org/2000/svg" viewBox="0 0 448 448" enable-background="new 0 0 448 448"><path d="M439.75 180.359c-12.062-16.828-25.969-20.359-35.5-20.359h-90.656c.813-2.844 1.625-5.688 2.438-8.516 2.844-10.141 5.781-20.641 9.469-24.813 21.344-24.172 28.719-56.828 24.813-75.313-5.344-25.234-24.031-34.188-38.406-34.188-15.656 0-27.5 9.172-36.813 17.922l-123.611 123.611c-.359.359-2.563 1.297-8.313 1.297h-143.171v256h348.781c18.875 0 35.563-12.031 41.469-29.906l55.469-166.313c4.5-13.375 2.219-28.187-5.969-39.422zm-343.75 203.641h-64v-192h64v192zm319.375-174.422l-55.469 166.391c-1.594 4.813-6.063 8.031-11.125 8.031h-220.781v-192h15.172c11.688 0 22.672-2.406 30.938-10.672l123.609-123.609c10.986-10.283 18.56-12.543 21.281.281 1.758 8.281-2.441 30.434-17.5 47.5-11.98 13.578-14.672 34.926-21.5 54.5-6.402 18.355-6.494 27.67.961 32h123.289c3.813 0 7.281 3.906 9.5 7 2.25 3.094 2.844 6.953 1.625 10.578z"/></svg>