<?xml version="1.0" encoding="UTF-8" standalone="no"?>
<svg
   xmlns:dc="http://purl.org/dc/elements/1.1/"
   xmlns:cc="http://creativecommons.org/ns#"
   xmlns:rdf="http://www.w3.org/1999/02/22-rdf-syntax-ns#"
   xmlns:svg="http://www.w3.org/2000/svg"
   xmlns="http://www.w3.org/2000/svg"
   xmlns:sodipodi="http://sodipodi.sourceforge.net/DTD/sodipodi-0.dtd"
   xmlns:inkscape="http://www.inkscape.org/namespaces/inkscape"
   width="320"
   height="448"
   id="svg2"
   version="1.1"
   inkscape:version="0.91 r13725"
   sodipodi:docname="attach.svg">
  <metadata
     id="metadata33">
    <rdf:RDF>
      <cc:Work
         rdf:about="">
        <dc:format>image/svg+xml</dc:format>
        <dc:type
           rdf:resource="http://purl.org/dc/dcmitype/StillImage" />
        <dc:title>attach</dc:title>
      </cc:Work>
    </rdf:RDF>
  </metadata>
  <sodipodi:namedview
     pagecolor="#ffffff"
     bordercolor="#666666"
     borderopacity="1"
     objecttolerance="10"
     gridtolerance="10"
     guidetolerance="10"
     inkscape:pageopacity="0"
     inkscape:pageshadow="2"
     inkscape:window-width="971"
     inkscape:window-height="862"
     id="namedview31"
     showgrid="true"
     inkscape:snap-global="true"
     inkscape:snap-bbox="true"
     inkscape:bbox-nodes="true"
     inkscape:zoom="1.4142136"
     inkscape:cx="177.51819"
     inkscape:cy="218.2131"
     inkscape:window-x="102"
     inkscape:window-y="215"
     inkscape:window-maximized="0"
     inkscape:current-layer="svg2"
     showguides="false"
     inkscape:object-nodes="true">
    <inkscape:grid
       type="xygrid"
       id="grid4188"
       spacingx="16"
       spacingy="16"
       empspacing="2" />
    <sodipodi:guide
       position="-90,246"
       orientation="0,1"
       id="guide5357" />
  </sodipodi:namedview>
  <title
     id="title4">attach</title>
  <defs
     id="defs6">
    <g
       id="hg">
      <path
         d="M 85.685,67.399 C 100.47,42.815 82.562,2.944 49.818,6.995 20.233,10.652 19.757,41.792 45.83,49.189 c 22.563,6.408 4.661,20.72 5.184,30.25 0.526,9.529 19.616,12.986 34.671,-12.04"
         id="path9"
         inkscape:connector-curvature="0" />
      <circle
         cx="31.579"
         cy="70.616997"
         r="12.838"
         id="circle11" />
      <circle
         cx="16.913"
         cy="43.476002"
         r="8.3999996"
         id="circle13" />
    </g>
    <pattern
       y="0"
       x="0"
       height="6"
       width="6"
       patternUnits="userSpaceOnUse"
       id="EMFhbasepattern" />
  </defs>
  <g
     style="font-style:normal;font-variant:normal;font-weight:400;font-size:16.91569519px;line-height:125%;font-family:'Segoe UI Symbol';text-align:start;letter-spacing:0px;word-spacing:0px;text-anchor:start;fill:#000000;fill-opacity:1;stroke:none"
     id="text3354"
     transform="matrix(23.15954,0,0,23.15954,-3673.5264,-8521.7535)">
    <path
       style="font-style:normal;font-variant:normal;font-weight:400;font-size:16.91569519px;font-family:'Segoe UI Symbol';fill:#000000"
       d="m 169.67204,373.48555 c -0.007,2.92691 0.0249,6.7455 0,9.67204 0,2.07258 -2.76344,4.14516 -4.83602,4.14516 -2.07258,0 -4.83602,-2.07258 -4.83602,-4.14516 0.0155,-3.71828 -0.0272,-7.95134 0,-11.74462 0,-2.07258 1.38172,-3.4543 3.4543,-3.4543 2.07258,0 3.4543,1.38172 3.4543,3.4543 0,2.07258 0.0268,6.13739 0,8.98118 0,1.38172 -0.69086,2.76344 -2.07258,2.76344 -1.38172,0 -2.07258,-1.38172 -2.07258,-2.76344 l 0,-6.9086 c 0,-1.38172 1.38172,-1.38172 1.38172,0 l 0,6.9086 c 0,1.38172 1.38172,1.38172 1.38172,0 0,-1.38172 0.0241,-6.20707 0,-8.98118 -0.0539,-1.2285 -0.69086,-2.07258 -2.07258,-2.07258 -1.38172,0 -2.07258,0.69086 -2.07258,2.07258 l 0,11.74462 c 0.0445,1.83031 2.07258,2.76344 3.4543,2.76344 1.38172,0 3.4543,-1.38172 3.4543,-2.76344 l 0,-9.67204 c 0,-1.38172 1.38172,-1.38172 1.38172,0 z"
       id="path3378"
       inkscape:connector-curvature="0"
       sodipodi:nodetypes="cccccccccccccccccccccc" />
  </g>
  <g
     style="font-style:normal;font-variant:normal;font-weight:400;font-size:13.8125px;line-height:125%;font-family:Calibri;text-align:start;letter-spacing:0px;word-spacing:0px;text-anchor:start;fill:#000000;fill-opacity:1;stroke:none"
     id="text3360"
     transform="matrix(23.15954,0,0,23.15954,-3705.5264,-8521.7536)" />
</svg>
