<svg xmlns="http://www.w3.org/2000/svg" viewBox="0 0 448 448" enable-background="new 0 0 448 448"><path d="M205.453 302.219l22.625 22.625c-23.391 23.375-54.109 35.063-84.844 35.063-30.719 0-61.438-11.688-84.828-35.063-22.672-22.688-35.172-52.813-35.172-84.844s12.5-62.156 35.172-84.828c46.75-46.797 122.875-46.797 169.672 0l-22.625 22.625c-34.266-34.297-90.078-34.313-124.422 0-16.64 16.625-25.797 38.719-25.797 62.203 0 23.469 9.172 45.594 25.797 62.219 34.313 34.312 90.11 34.312 124.422 0zm210.547-78.219h-226.937c-6.611-18.6-24.193-32-45.063-32-26.51 0-48 21.49-48 48s21.49 48 48 48c20.869 0 38.451-13.4 45.063-32h226.937v-32z"/></svg>