<?xml version="1.0" encoding="UTF-8" standalone="no"?>
<svg
   xmlns:dc="http://purl.org/dc/elements/1.1/"
   xmlns:cc="http://creativecommons.org/ns#"
   xmlns:rdf="http://www.w3.org/1999/02/22-rdf-syntax-ns#"
   xmlns:svg="http://www.w3.org/2000/svg"
   xmlns="http://www.w3.org/2000/svg"
   xmlns:sodipodi="http://sodipodi.sourceforge.net/DTD/sodipodi-0.dtd"
   xmlns:inkscape="http://www.inkscape.org/namespaces/inkscape"
   width="512"
   height="448"
   id="svg2"
   version="1.1"
   inkscape:version="0.91 r13725"
   sodipodi:docname="azure-api-management.svg">
  <metadata
     id="metadata33">
    <rdf:RDF>
      <cc:Work
         rdf:about="">
        <dc:format>image/svg+xml</dc:format>
        <dc:type
           rdf:resource="http://purl.org/dc/dcmitype/StillImage" />
        <dc:title>azure-api-management</dc:title>
      </cc:Work>
    </rdf:RDF>
  </metadata>
  <sodipodi:namedview
     pagecolor="#ffffff"
     bordercolor="#666666"
     borderopacity="1"
     objecttolerance="10"
     gridtolerance="10"
     guidetolerance="10"
     inkscape:pageopacity="0"
     inkscape:pageshadow="2"
     inkscape:window-width="1175"
     inkscape:window-height="956"
     id="namedview31"
     showgrid="true"
     inkscape:snap-global="true"
     inkscape:snap-bbox="true"
     inkscape:bbox-nodes="true"
     inkscape:zoom="1.4142136"
     inkscape:cx="223.07988"
     inkscape:cy="202.78924"
     inkscape:window-x="176"
     inkscape:window-y="294"
     inkscape:window-maximized="0"
     inkscape:current-layer="svg2"
     showguides="false"
     inkscape:snap-intersection-paths="true"
     inkscape:object-nodes="true"
     inkscape:snap-nodes="false">
    <inkscape:grid
       type="xygrid"
       id="grid4188"
       spacingx="16"
       spacingy="16"
       empspacing="2" />
    <sodipodi:guide
       position="-90,246"
       orientation="0,1"
       id="guide5357" />
  </sodipodi:namedview>
  <title
     id="title4">azure-api-management</title>
  <defs
     id="defs6">
    <g
       id="hg">
      <path
         d="M 85.685,67.399 C 100.47,42.815 82.562,2.944 49.818,6.995 20.233,10.652 19.757,41.792 45.83,49.189 c 22.563,6.408 4.661,20.72 5.184,30.25 0.526,9.529 19.616,12.986 34.671,-12.04"
         id="path9"
         inkscape:connector-curvature="0" />
      <circle
         cx="31.579"
         cy="70.616997"
         r="12.838"
         id="circle11" />
      <circle
         cx="16.913"
         cy="43.476002"
         r="8.3999996"
         id="circle13" />
    </g>
  </defs>
  <path
     inkscape:connector-curvature="0"
     style="color:#000000;line-height:normal;font-family:Sans;-inkscape-font-specification:Sans;text-indent:0;text-align:start;text-transform:none;block-progression:tb;overflow:visible;enable-background:accumulate"
     d="m 225.58973,251.3384 c -36.21651,0 -65.99491,30.44169 -65.99491,67.46451 0,37.02281 29.7784,67.46449 65.99491,67.46449 36.21637,0 65.99491,-30.44168 65.99491,-67.46449 0,-37.02282 -29.77854,-67.46451 -65.99491,-67.46451 z M 289.42793,0 C 193.10273,0 147.49705,76.393072 136.73385,97.007896 l -32.35046,0 -0.86266,0 -1.29331,0.44162 c 0,0 -25.142171,3.790084 -50.466675,20.283784 C 26.436224,134.22666 0,165.39424 0,215.18183 c 0,55.38308 29.897663,87.97596 58.662114,103.62206 28.764516,15.64643 57.368196,16.75604 57.368196,16.75604 l 0.43068,0.44163 0.43072,0 113.87354,-1.32159 0,-28.22051 -113.44227,1.32159 c 0,0 -0.82252,0.002 -0.86265,0 -1.303,-0.0981 -22.843155,-2.13613 -44.85929,-14.11025 -22.688143,-12.3405 -43.996574,-32.90593 -43.996574,-78.48799 0,-40.09649 18.854419,-60.63378 38.820477,-73.63768 19.966126,-13.00392 40.114537,-16.31509 40.114537,-16.31509 l 37.9579,0 9.05808,0 3.45077,-7.93673 c 0,0 38.94504,-89.071172 132.42116,-89.071172 46.96562,0 75.1929,17.402444 94.46328,37.039498 19.27043,19.637042 28.55939,41.481534 34.0758,53.354244 3.03072,6.52256 5.62896,30.33668 5.60745,50.26782 -0.0269,19.93112 -1.29344,37.03948 -1.29344,37.03948 l -1.29312,15.87379 15.52819,-0.87997 c 0,0 12.92419,-0.16356 25.01775,5.29126 12.09343,5.4509 22.8252,13.73864 22.86092,40.12593 0.0272,17.8601 -8.09108,26.04217 -17.68493,32.18887 -9.59385,6.14702 -19.41026,7.93705 -19.41026,7.93705 l -114.7363,-2.20483 -0.43072,28.22051 117.32426,2.20483 1.29344,0 0.86272,-0.44162 c 0,0 15.00077,-2.4469 29.76236,-11.90542 14.76163,-9.45787 30.66313,-27.93231 30.62514,-56.00004 -0.0544,-35.97209 -20.24863,-57.57614 -39.25211,-66.14161 -8.23475,-3.71189 -15.88348,-4.78781 -22.42965,-5.73222 0.43872,-7.02177 0.84768,-11.72649 0.86272,-25.57503 0.0272,-21.24979 0.0416,-44.44204 -8.19545,-62.17324 C 438.25942,96.539778 427.27178,68.96502 403.73368,44.979162 380.19551,20.993309 343.20506,0.00261701 289.42871,0.00261701 Z m -63.8382,187.40131 c -17.42626,0 -34.03053,4.08318 -49.17269,10.58285 l 13.37154,29.98436 c 11.05869,-4.5598 23.07065,-7.49641 35.80115,-7.49641 52.8586,0 94.89464,43.41321 94.89464,97.44887 0,54.03564 -42.03604,97.00789 -94.89464,97.00789 -13.35206,0 -26.03719,-2.50579 -37.5265,-7.49609 l -13.37154,29.98436 C 190.2663,444.36497 207.53834,448 225.58973,448 c 70.27712,0 127.24509,-58.23693 127.24509,-130.07902 0,-71.8421 -56.96797,-130.51967 -127.24509,-130.51967 z"
     overflow="visible"
     id="path3369" />
</svg>
