<svg xmlns="http://www.w3.org/2000/svg" viewBox="0 0 448 448" enable-background="new 0 0 448 448"><path d="M304.031 304c0 29.906-11.656 58.031-32.844 79.188-21.156 21.188-49.281 32.844-79.188 32.844s-58.031-11.656-79.188-32.844l22.625-22.625c30.25 30.25 82.875 30.25 113.125 0 15.125-15.125 23.469-35.219 23.469-56.563s-8.344-41.438-23.469-56.563c-30.25-30.25-82.875-30.25-113.125 0l-22.625-22.625c42.313-42.344 116.063-42.344 158.375 0 21.189 21.157 32.845 49.282 32.845 79.188zm60.389-157.654c-8.873-61.979-62.313-109.776-126.705-109.776-42.639 0-82.17 21.754-105.656 56.279-5.867-.947-11.799-1.422-17.773-1.422-63.018.001-114.286 51.27-114.286 114.286 0 63.017 51.268 114.287 114.285 114.287h32.652c6.611 18.6 24.193 32 45.063 32 26.51 0 48-21.49 48-48s-21.49-48-48-48c-20.869 0-38.451 13.4-45.063 32h-32.652c-45.445 0-82.285-36.842-82.285-82.287 0-45.443 36.84-82.285 82.285-82.285 12.094 0 23.49 2.762 33.832 7.447 13.682-36.33 48.496-62.305 89.611-62.305 53.018 0 96 42.982 96 96l.064 13.701 27.35-.064c30.299 0 54.857 24.646 54.857 54.945.001 30.297-24.558 54.848-54.856 54.848h-25.078l-.065 32h25.143c47.892 0 86.857-38.965 86.857-86.857 0-46.797-37.197-85.069-83.58-86.797z"/></svg>