<?xml version="1.0" encoding="UTF-8" standalone="no"?>
<svg
   xmlns:dc="http://purl.org/dc/elements/1.1/"
   xmlns:cc="http://creativecommons.org/ns#"
   xmlns:rdf="http://www.w3.org/1999/02/22-rdf-syntax-ns#"
   xmlns:svg="http://www.w3.org/2000/svg"
   xmlns="http://www.w3.org/2000/svg"
   xmlns:sodipodi="http://sodipodi.sourceforge.net/DTD/sodipodi-0.dtd"
   xmlns:inkscape="http://www.inkscape.org/namespaces/inkscape"
   width="448"
   height="448"
   id="svg2"
   version="1.1"
   inkscape:version="0.91 r13725"
   sodipodi:docname="artifact-build.svg">
  <metadata
     id="metadata33">
    <rdf:RDF>
      <cc:Work
         rdf:about="">
        <dc:format>image/svg+xml</dc:format>
        <dc:type
           rdf:resource="http://purl.org/dc/dcmitype/StillImage" />
        <dc:title>Mercurial</dc:title>
      </cc:Work>
    </rdf:RDF>
  </metadata>
  <sodipodi:namedview
     pagecolor="#ffffff"
     bordercolor="#666666"
     borderopacity="1"
     objecttolerance="10"
     gridtolerance="10"
     guidetolerance="10"
     inkscape:pageopacity="0"
     inkscape:pageshadow="2"
     inkscape:window-width="1519"
     inkscape:window-height="1009"
     id="namedview31"
     showgrid="true"
     inkscape:snap-global="true"
     inkscape:snap-bbox="true"
     inkscape:bbox-nodes="true"
     inkscape:zoom="1"
     inkscape:cx="423.67198"
     inkscape:cy="201.4598"
     inkscape:window-x="221"
     inkscape:window-y="263"
     inkscape:window-maximized="0"
     inkscape:current-layer="svg2"
     showguides="false"
     inkscape:object-nodes="true"
     inkscape:snap-nodes="true">
    <inkscape:grid
       type="xygrid"
       id="grid4188"
       spacingx="16"
       spacingy="16"
       empspacing="2" />
    <sodipodi:guide
       position="-90,246"
       orientation="0,1"
       id="guide5357" />
  </sodipodi:namedview>
  <title
     id="title4">Mercurial</title>
  <defs
     id="defs6" />
  <path
     style="fill-opacity:1;stroke:none;stroke-width:64;stroke-linecap:round;stroke-miterlimit:4;stroke-dasharray:none;stroke-opacity:1"
     d="M 0 192 L 0 320 L 0 448 L 64 448 L 447 448 L 448 448 L 448 192 L 384 192 L 384 320 L 64 320 L 64 192 L 0 192 z M 128 352 L 192 352 L 192 416 L 128 416 L 128 352 z M 256 352 L 320 352 L 320 416 L 256 416 L 256 352 z "
     id="rect3340" />
  <rect
     ry="0"
     rx="0"
     y="224"
     x="96"
     height="64"
     width="64"
     id="rect3346"
     style="fill-opacity:1;stroke:none;stroke-width:64;stroke-linecap:round;stroke-miterlimit:4;stroke-dasharray:none;stroke-opacity:1" />
  <rect
     style="fill-opacity:1;stroke:none;stroke-width:64;stroke-linecap:round;stroke-miterlimit:4;stroke-dasharray:none;stroke-opacity:1"
     id="rect3348"
     width="64"
     height="64"
     x="192"
     y="224"
     rx="0"
     ry="0" />
  <rect
     ry="0"
     rx="0"
     y="224"
     x="288"
     height="64"
     width="64"
     id="rect3350"
     style="fill-opacity:1;stroke:none;stroke-width:64;stroke-linecap:round;stroke-miterlimit:4;stroke-dasharray:none;stroke-opacity:1" />
  <path
     style="fill-opacity:1;stroke:none;stroke-width:64;stroke-linecap:round;stroke-miterlimit:4;stroke-dasharray:none;stroke-opacity:1"
     d="M 208 0 L 208 128 L 128 48 L 128 96 L 224 192 L 320 96 L 320 48 L 240 128 L 240 0 L 208 0 z "
     id="rect3358" />
</svg>
