<?xml version="1.0" encoding="UTF-8" standalone="no"?>
<!-- Generated by IcoMoon.io -->

<svg
   xmlns:dc="http://purl.org/dc/elements/1.1/"
   xmlns:cc="http://creativecommons.org/ns#"
   xmlns:rdf="http://www.w3.org/1999/02/22-rdf-syntax-ns#"
   xmlns:svg="http://www.w3.org/2000/svg"
   xmlns="http://www.w3.org/2000/svg"
   xmlns:sodipodi="http://sodipodi.sourceforge.net/DTD/sodipodi-0.dtd"
   xmlns:inkscape="http://www.inkscape.org/namespaces/inkscape"
   version="1.1"
   width="448"
   height="448"
   viewBox="0 0 448 448"
   id="svg2"
   inkscape:version="0.91 r13725"
   sodipodi:docname="calendar.svg">
  <title
     id="title3368">calendar</title>
  <metadata
     id="metadata115">
    <rdf:RDF>
      <cc:Work
         rdf:about="">
        <dc:format>image/svg+xml</dc:format>
        <dc:type
           rdf:resource="http://purl.org/dc/dcmitype/StillImage" />
        <dc:title>calendar</dc:title>
      </cc:Work>
    </rdf:RDF>
  </metadata>
  <defs
     id="defs113" />
  <sodipodi:namedview
     pagecolor="#ffffff"
     bordercolor="#666666"
     borderopacity="1"
     objecttolerance="10"
     gridtolerance="10"
     guidetolerance="10"
     inkscape:pageopacity="0"
     inkscape:pageshadow="2"
     inkscape:window-width="1355"
     inkscape:window-height="827"
     id="namedview111"
     showgrid="true"
     inkscape:snap-bbox="true"
     inkscape:bbox-nodes="true"
     inkscape:object-nodes="true"
     inkscape:zoom="1.0535714"
     inkscape:cx="390.8003"
     inkscape:cy="159.67269"
     inkscape:window-x="1420"
     inkscape:window-y="624"
     inkscape:window-maximized="0"
     inkscape:current-layer="svg2">
    <inkscape:grid
       type="xygrid"
       id="grid3443"
       spacingx="16"
       spacingy="16"
       empspacing="2" />
  </sodipodi:namedview>
  <g
     style="font-style:normal;font-variant:normal;font-weight:bold;font-stretch:normal;font-size:58.14687347px;line-height:125%;font-family:'Segoe UI';-inkscape-font-specification:'Segoe UI Bold';letter-spacing:0px;word-spacing:0px;fill-opacity:1;stroke:none;stroke-width:1px;stroke-linecap:butt;stroke-linejoin:miter;stroke-opacity:1"
     id="text3354"
     transform="matrix(1.0573575,0,0,1.0132074,-21.613487,-4.1888087)">
    <path
       id="path3361"
       style="font-style:normal;font-variant:normal;font-weight:bold;font-stretch:normal;font-size:261.66091919px;font-family:'Segoe UI';-inkscape-font-specification:'Segoe UI Bold';"
       d="m 338.21437,193.63145 0,189.27613 -40.2457,0 0,-143.7921 c -2.21458,1.95905 -4.85504,3.83293 -7.92138,5.62162 -2.98116,1.70352 -6.17527,3.27928 -9.58231,4.72727 -3.40704,1.36282 -6.94185,2.55529 -10.60442,3.5774 -3.66258,0.93694 -7.28256,1.61835 -10.85995,2.04423 l 0,-33.98526 c 10.47666,-3.06634 20.35708,-6.98444 29.64128,-11.7543 9.28419,-4.76986 17.67403,-10.00819 25.16953,-15.71499 z m -223.19793,181.29729 0,-35.13513 c 12.26535,8.94349 26.57493,13.41523 42.92875,13.41523 10.3063,0 18.31285,-2.21458 24.01965,-6.64373 5.79197,-4.42916 8.68796,-10.60443 8.68796,-18.5258 0,-8.17691 -3.5774,-14.47994 -10.73219,-18.90909 -7.06962,-4.42916 -16.82228,-6.64374 -29.25798,-6.64374 l -16.99263,0 0,-30.91891 15.71499,0 c 23.8493,0 35.77395,-7.92138 35.77395,-23.76413 0,-14.90581 -9.15643,-22.35872 -27.46928,-22.35872 -12.26536,0 -24.19002,3.96069 -35.77396,11.88206 l 0,-32.96314 c 12.86159,-6.47338 27.85258,-9.71007 44.97297,-9.71007 18.73874,0 33.30385,4.21621 43.69533,12.64864 10.47666,8.43243 15.71499,19.37756 15.71499,32.83538 0,23.93448 -12.13759,38.92547 -36.41277,44.97297 l 0,0.63882 c 12.94676,1.61835 23.16788,6.34562 30.66338,14.18182 7.4955,7.75103 11.24325,17.29075 11.24325,28.61917 0,17.12039 -6.26045,30.66338 -18.78133,40.62899 -12.52088,9.9656 -29.81163,14.9484 -51.87223,14.9484 -18.9091,0 -34.28338,-3.06634 -46.12285,-9.19902 z M 126.36548,4.1342066 c -25.14949,0 -45.396189,21.1289414 -45.396189,47.3743084 l 0,15.791436 -30.264126,0 c -16.766325,0 -30.264125,14.085961 -30.264125,31.582873 l 0,315.828726 c 0,17.49691 13.4978,31.58287 30.264125,31.58287 l 363.169505,0 c 16.76633,0 30.26413,-14.08596 30.26413,-31.58287 l 0,-315.828726 c 0,-17.496912 -13.4978,-31.582873 -30.26413,-31.582873 l -30.26412,0 0,-15.791436 c 0,-26.245367 -20.2467,-47.3743084 -45.39619,-47.3743084 -25.14949,0 -45.39619,21.1289414 -45.39619,47.3743084 l 0,15.791436 -121.0565,0 0,-15.791436 c 0,-26.245367 -20.2467,-47.3743084 -45.39619,-47.3743084 z m 0,31.5828724 c 8.38316,0 15.13206,7.04298 15.13206,15.791436 l 0,47.374309 c 0,8.748456 -6.7489,15.791436 -15.13206,15.791436 -8.38316,0 -15.13206,-7.04298 -15.13206,-15.791436 l 0,-47.374309 c 0,-8.748456 6.7489,-15.791436 15.13206,-15.791436 z m 211.84888,0 c 8.38316,0 15.13206,7.04298 15.13206,15.791436 l 0,47.374309 c 0,8.748456 -6.7489,15.791436 -15.13206,15.791436 -8.38317,0 -15.13207,-7.04298 -15.13207,-15.791436 l 0,-47.374309 c 0,-8.748456 6.7489,-15.791436 15.13207,-15.791436 z M 50.705165,162.04857 l 363.169505,0 0,252.66298 -363.169505,0 0,-252.66298 z" />
  </g>
</svg>
