<svg xmlns="http://www.w3.org/2000/svg" viewBox="0 0 448 448" enable-background="new 0 0 448 448"><path d="M384 64v-32h-32v32h-256v-32h-32v32h-64v384h448v-384h-64zm32 352h-384v-224h384v224zm-384-256v-64h32v32h32v-32h256v32h32v-32h32v64h-384zm96 216.23v-29.667c10.499 7.552 22.749 11.328 36.749 11.328 8.813 0 15.69-1.866 20.595-5.61 4.937-3.747 7.405-8.957 7.405-15.645 0-6.906-3.062-12.224-9.155-15.968-6.093-3.744-14.438-5.61-25.094-5.61h-14.563v-26.108h13.469c20.406 0 30.627-6.691 30.627-20.067 0-12.592-7.843-18.883-23.533-18.883-10.499 0-20.688 3.347-30.624 10.035v-27.837c11.03-5.469 23.875-8.198 38.499-8.198 16.064 0 28.531 3.562 37.469 10.682 8.938 7.12 13.408 16.368 13.408 27.728 0 20.205-10.378 32.874-31.187 37.978v.538c11.091 1.373 19.843 5.347 26.249 11.914 6.435 6.598 9.623 14.659 9.623 24.23 0 14.458-5.341 25.891-16.061 34.307-10.721 8.415-25.534 12.623-44.407 12.623-16.189 0-29.344-2.589-39.469-7.77zm192-152.23v160h-32v-121.146c-1.799 1.667-4.423 3.258-6.871 4.739-2.448 1.498-5.046 2.838-7.789 4.054-2.742 1.184-5.603 2.214-8.55 3.056-2.979.826-5.901 1.434-8.79 1.792v-29.03c8.464-2.621 16.457-5.971 23.949-10.042 7.491-4.07 14.275-8.544 20.349-13.424h19.702z"/></svg>