<svg xmlns="http://www.w3.org/2000/svg" viewBox="0 0 448 448" enable-background="new 0 0 448 448"><path d="M237.754 96c53.174 0 96.281 43.876 96.281 98v14h27.509c30.387 0 55.018 25.071 55.018 56 0 30.927-24.631 56-55.018 56h-247.579c-45.578 0-82.526-37.608-82.526-84s36.948-84 82.526-84c12.129 0 23.558 2.818 33.931 7.602 13.721-37.087 48.624-63.602 89.858-63.602m0-32c-42.684 0-82.251 22.244-105.657 57.51-5.985-1.005-12.036-1.51-18.132-1.51-62.84 0-113.965 52.037-113.965 116s51.125 116 113.965 116h247.579c47.672 0 86.456-39.476 86.456-88 0-47.599-37.319-86.493-83.74-87.957-8.617-63.217-62.064-112.043-126.506-112.043z"/></svg>