<?xml version="1.0" encoding="UTF-8" standalone="no"?>
<!-- Created with Inkscape (http://www.inkscape.org/) -->

<svg
   xmlns:dc="http://purl.org/dc/elements/1.1/"
   xmlns:cc="http://creativecommons.org/ns#"
   xmlns:rdf="http://www.w3.org/1999/02/22-rdf-syntax-ns#"
   xmlns:svg="http://www.w3.org/2000/svg"
   xmlns="http://www.w3.org/2000/svg"
   xmlns:sodipodi="http://sodipodi.sourceforge.net/DTD/sodipodi-0.dtd"
   xmlns:inkscape="http://www.inkscape.org/namespaces/inkscape"
   width="448"
   height="448"
   viewBox="0 0 448 448"
   id="svg2"
   version="1.1"
   inkscape:version="0.91 r13725"
   sodipodi:docname="comment-next.svg">
  <title
     id="title3392">comment-next</title>
  <defs
     id="defs4" />
  <sodipodi:namedview
     id="base"
     pagecolor="#ffffff"
     bordercolor="#666666"
     borderopacity="1.0"
     inkscape:pageopacity="0.0"
     inkscape:pageshadow="2"
     inkscape:zoom="0.9899495"
     inkscape:cx="145.19138"
     inkscape:cy="276.28174"
     inkscape:document-units="px"
     inkscape:current-layer="layer1"
     showgrid="true"
     units="px"
     inkscape:snap-bbox="true"
     inkscape:bbox-nodes="true"
     inkscape:window-width="1577"
     inkscape:window-height="1038"
     inkscape:window-x="252"
     inkscape:window-y="880"
     inkscape:window-maximized="0"
     inkscape:object-nodes="true">
    <inkscape:grid
       type="xygrid"
       id="grid3336"
       spacingx="16"
       spacingy="16"
       empspacing="2" />
  </sodipodi:namedview>
  <metadata
     id="metadata7">
    <rdf:RDF>
      <cc:Work
         rdf:about="">
        <dc:format>image/svg+xml</dc:format>
        <dc:type
           rdf:resource="http://purl.org/dc/dcmitype/StillImage" />
        <dc:title>comment-next</dc:title>
      </cc:Work>
    </rdf:RDF>
  </metadata>
  <g
     inkscape:label="Layer 1"
     inkscape:groupmode="layer"
     id="layer1"
     transform="translate(0,-604.36209)">
    <path
       style="fill-rule:evenodd;stroke:none;stroke-width:1px;stroke-linecap:butt;stroke-linejoin:miter;stroke-opacity:1"
       d="M 35.199219 0 C 16.7778 0 1.7576242 14.010648 0.15039062 32 C 0.05619063 33.05408 -7.4014868e-017 34.119819 0 35.199219 L 0 128 L 224 128 L 160 64 L 256 64 L 368 176 L 256 288 L 160 288 L 224 224 L 0 224 L 0 316.80078 C 0 317.88018 0.05620064 318.94592 0.15039062 320 L 0 320 L 0 352 L 0 448 L 96 352 L 412.80078 352 C 431.2222 352 446.24238 337.98936 447.84961 320 L 448 320 L 448 316.80078 L 448 224 L 448 128 L 448 35.199219 C 448 34.119819 447.9438 33.05408 447.84961 32 C 446.24238 14.010648 431.2222 0 412.80078 0 L 35.199219 0 z "
       transform="translate(0,604.36209)"
       id="path3335" />
  </g>
</svg>
