<?xml version="1.0" encoding="UTF-8" standalone="no"?>
<!-- Created with Inkscape (http://www.inkscape.org/) -->

<svg
   xmlns:dc="http://purl.org/dc/elements/1.1/"
   xmlns:cc="http://creativecommons.org/ns#"
   xmlns:rdf="http://www.w3.org/1999/02/22-rdf-syntax-ns#"
   xmlns:svg="http://www.w3.org/2000/svg"
   xmlns="http://www.w3.org/2000/svg"
   xmlns:sodipodi="http://sodipodi.sourceforge.net/DTD/sodipodi-0.dtd"
   xmlns:inkscape="http://www.inkscape.org/namespaces/inkscape"
   width="448"
   height="448"
   viewBox="0 0 448 448"
   id="svg2"
   version="1.1"
   inkscape:version="0.91 r13725"
   sodipodi:docname="comment-urgent.svg">
  <title
     id="title3338">comment-urgent</title>
  <defs
     id="defs4" />
  <sodipodi:namedview
     id="base"
     pagecolor="#ffffff"
     bordercolor="#666666"
     borderopacity="1.0"
     inkscape:pageopacity="0.0"
     inkscape:pageshadow="2"
     inkscape:zoom="0.7"
     inkscape:cx="166.24037"
     inkscape:cy="174.51609"
     inkscape:document-units="px"
     inkscape:current-layer="layer1"
     showgrid="true"
     units="px"
     inkscape:snap-bbox="true"
     inkscape:bbox-nodes="true"
     inkscape:window-width="1264"
     inkscape:window-height="842"
     inkscape:window-x="201"
     inkscape:window-y="440"
     inkscape:window-maximized="0"
     inkscape:object-nodes="true"
     inkscape:snap-nodes="true">
    <inkscape:grid
       type="xygrid"
       id="grid3336"
       spacingx="16"
       spacingy="16"
       empspacing="2" />
  </sodipodi:namedview>
  <metadata
     id="metadata7">
    <rdf:RDF>
      <cc:Work
         rdf:about="">
        <dc:format>image/svg+xml</dc:format>
        <dc:type
           rdf:resource="http://purl.org/dc/dcmitype/StillImage" />
        <dc:title>comment-urgent</dc:title>
      </cc:Work>
    </rdf:RDF>
  </metadata>
  <g
     inkscape:label="Layer 1"
     inkscape:groupmode="layer"
     id="layer1"
     transform="translate(0,-604.36209)">
    <path
       style="fill-rule:evenodd;stroke:none;stroke-opacity:1"
       d="M 35.199219 0 C 15.698404 0 0 15.698404 0 35.199219 L 0 316.80078 L 0 320 L 0 352 L 0 448 L 96 352 L 412.80078 352 C 432.3016 352 448 336.3016 448 316.80078 L 448 35.199219 C 448 15.698404 432.3016 0 412.80078 0 L 35.199219 0 z M 48 32 L 400 32 C 408.86402 32 416 39.135984 416 48 L 416 304 C 416 312.86402 408.86402 320 400 320 L 80 320 L 32 368 L 32 304 L 32 288 L 32 48 C 32 39.135984 39.135984 32 48 32 z "
       transform="translate(0,604.36209)"
       id="path3335" />
    <path
       inkscape:connector-curvature="0"
       id="path3348"
       d="m 192,677.22364 0,-8.86155 64.24546,0 0,8.86155 -15.93812,135.13845 -32.36918,0 L 192,677.22364 Z"
       style="font-style:normal;font-variant:normal;font-weight:700;font-size:80px;line-height:125%;font-family:'Sitka Small';text-align:start;letter-spacing:0px;word-spacing:0px;text-anchor:start;fill-opacity:1;stroke:none" />
    <path
       inkscape:connector-curvature="0"
       id="path3350"
       d="m 223.82396,892.36209 q -4.92908,0 -9.2714,-1.7778 -4.34228,-1.7778 -7.62834,-4.9524 -3.16872,-3.1746 -5.04646,-7.49201 Q 200,873.82243 200,868.61607 q 0,-5.07938 1.87776,-9.39683 1.87774,-4.44446 5.04646,-7.74603 3.28606,-3.30159 7.62835,-5.20634 4.34231,-1.90478 9.27139,-1.90478 5.04646,0 9.38875,1.90478 4.45966,1.90475 7.74572,5.20634 3.28606,3.30157 5.16381,7.74603 Q 248,863.5367 248,868.61607 q 0,5.07934 -1.87776,9.39683 -1.87775,4.31742 -5.16381,7.49201 -3.28606,3.17461 -7.74572,4.9524 -4.34229,1.90478 -9.38875,1.90478 z"
       style="font-style:normal;font-variant:normal;font-weight:700;font-size:80px;line-height:125%;font-family:'Sitka Small';text-align:start;letter-spacing:0px;word-spacing:0px;text-anchor:start;fill-opacity:1;stroke:none" />
  </g>
</svg>
