<?xml version="1.0" encoding="UTF-8" standalone="no"?>
<!-- Created with Inkscape (http://www.inkscape.org/) -->

<svg
   xmlns:dc="http://purl.org/dc/elements/1.1/"
   xmlns:cc="http://creativecommons.org/ns#"
   xmlns:rdf="http://www.w3.org/1999/02/22-rdf-syntax-ns#"
   xmlns:svg="http://www.w3.org/2000/svg"
   xmlns="http://www.w3.org/2000/svg"
   xmlns:sodipodi="http://sodipodi.sourceforge.net/DTD/sodipodi-0.dtd"
   xmlns:inkscape="http://www.inkscape.org/namespaces/inkscape"
   width="448"
   height="448"
   viewBox="0 0 448 448"
   id="svg2"
   version="1.1"
   inkscape:version="0.91 r13725"
   sodipodi:docname="comment-add.svg">
  <title
     id="title3341">comment-add</title>
  <defs
     id="defs4" />
  <sodipodi:namedview
     id="base"
     pagecolor="#ffffff"
     bordercolor="#666666"
     borderopacity="1.0"
     inkscape:pageopacity="0.0"
     inkscape:pageshadow="2"
     inkscape:zoom="0.9899495"
     inkscape:cx="430.79505"
     inkscape:cy="198.13527"
     inkscape:document-units="px"
     inkscape:current-layer="layer1"
     showgrid="true"
     units="px"
     inkscape:snap-bbox="true"
     inkscape:bbox-nodes="true"
     inkscape:window-width="1264"
     inkscape:window-height="842"
     inkscape:window-x="201"
     inkscape:window-y="440"
     inkscape:window-maximized="0"
     inkscape:object-nodes="true"
     inkscape:snap-nodes="true">
    <inkscape:grid
       type="xygrid"
       id="grid3336"
       spacingx="16"
       spacingy="16"
       empspacing="2" />
  </sodipodi:namedview>
  <metadata
     id="metadata7">
    <rdf:RDF>
      <cc:Work
         rdf:about="">
        <dc:format>image/svg+xml</dc:format>
        <dc:type
           rdf:resource="http://purl.org/dc/dcmitype/StillImage" />
        <dc:title>comment-add</dc:title>
      </cc:Work>
    </rdf:RDF>
  </metadata>
  <g
     inkscape:label="Layer 1"
     inkscape:groupmode="layer"
     id="layer1"
     transform="translate(0,-604.36209)">
    <path
       style="fill-rule:evenodd;stroke:none;stroke-opacity:1"
       d="M 35.199219 0 C 15.698404 0 0 15.698404 0 35.199219 L 0 316.80078 L 0 320 L 0 352 L 0 448 L 96 352 L 412.80078 352 C 432.3016 352 448 336.3016 448 316.80078 L 448 35.199219 C 448 15.698404 432.3016 0 412.80078 0 L 35.199219 0 z M 48 32 L 400 32 C 408.86402 32 416 39.135984 416 48 L 416 304 C 416 312.86402 408.86402 320 400 320 L 80 320 L 32 368 L 32 304 L 32 288 L 32 48 C 32 39.135984 39.135984 32 48 32 z "
       transform="translate(0,604.36209)"
       id="path3335" />
    <path
       style="fill-opacity:1;stroke:none;stroke-width:34.62200165;stroke-linecap:round;stroke-miterlimit:4;stroke-dasharray:none;stroke-opacity:1"
       d="M 240 64 C 231.136 64 224 71.136 224 80 L 224 160 L 144 160 C 135.136 160 128 167.136 128 176 C 128 184.864 135.136 192 144 192 L 224 192 L 224 272 C 224 280.864 231.136 288 240 288 C 248.864 288 256 280.864 256 272 L 256 192 L 336 192 C 344.864 192 352 184.864 352 176 C 352 167.136 344.864 160 336 160 L 256 160 L 256 80 C 256 71.136 248.864 64 240 64 z "
       transform="translate(0,604.36209)"
       id="rect3336" />
  </g>
</svg>
