<svg xmlns="http://www.w3.org/2000/svg" viewBox="0 0 448 448" enable-background="new 0 0 448 448"><path d="M331.623 17.49c-29.002-11.279-67.224-17.49-107.623-17.49s-78.621 6.211-107.623 17.49c-33.775 13.135-52.377 32.494-52.377 54.51v304c0 22.016 18.602 41.375 52.377 54.51 29.002 11.279 67.224 17.49 107.623 17.49s78.621-6.211 107.623-17.49c33.775-13.135 52.377-32.493 52.377-54.51v-304c0-22.016-18.602-41.375-52.377-54.51zm-107.623 14.51c82.82 0 128 26.424 128 40s-45.18 40-128 40-128-26.424-128-40 45.18-40 128-40zm128 344c0 13.576-45.18 40-128 40s-128-26.424-128-40v-259.221c6.007 3.529 12.808 6.787 20.377 9.731 29.002 11.279 67.224 17.49 107.623 17.49s78.621-6.211 107.623-17.49c7.57-2.944 14.37-6.202 20.377-9.731v259.221z"/></svg>