<svg xmlns="http://www.w3.org/2000/svg" viewBox="0 0 448 448" enable-background="new 0 0 448 448"><path d="M32 32v416h384v-416h-384zm230.625 174.729l24.094-24.104 41.375 41.375h-48.195l-17.274-17.271zm-174.273 209.271l72.914-72.928 72.933 72.928h-145.847zm191.099 0l-16.83-17.055 24.098-23.984 40.927 41.039h-48.195zm104.549 0h-11.104l-86.178-86.402-46.725 46.613-78.729-78.781-97.264 97.457v-138.887h320v160zm-296.109-192l73.375-73.375 73.38 73.375h-146.755zm296.109 0h-10.656l-86.625-86.625-46.719 46.73-78.734-78.73-97.266 97.266v-138.641h320v160z"/></svg>