<svg xmlns="http://www.w3.org/2000/svg" viewBox="0 0 448 448" enable-background="new 0 0 448 448"><path d="M384 96c0 17.673-14.327 32-32 32s-32-14.327-32-32 14.327-32 32-32 32 14.327 32 32zm64-96v288h-288v-288h288zm-105.812 256l-105.375-105.375-44.813 44.803v60.572h150.188zm73.812-2.969l-44.813-44.813-15.756 15.775 32.007 32.007h28.562v-2.969zm0-221.031h-224v118.18l44.813-44.805 95.996 95.996 38.379-38.402 44.812 44.812v-175.781zm-128 288v128h-288v-288h128v32h-96v118.188l44.813-44.813 95.996 95.996 38.379-38.402 44.812 44.812v-47.781h32zm-105.812 96l-105.375-105.375-44.813 44.813v60.562h150.188zm73.812-2.969l-44.813-44.813-15.756 15.775 32.007 32.007h28.562v-2.969z"/></svg>