<svg xmlns="http://www.w3.org/2000/svg" viewBox="0 0 448 448" enable-background="new 0 0 448 448"><path d="M224 255.002h-160v-63.002h160v63.002zm32 32.998h-224v-128h224v-32h-256v192h256v-32zm192-160v192h-96v-32h64v-128h-64v-32h96zm-128-40.864v272.778c18.118 15.66 39.785 24.086 64 24.086v32c-29.648 0-56.512-9.706-79.52-27.616-23.027 17.91-50.845 27.616-80.48 27.616v-32c23.776 0 46.022-8.15 64-23.296v-274.362c-17.987-15.145-40.237-22.342-64-22.342v-32c29.622 0 57.446 8.755 80.483 26.669 23.024-17.914 49.882-26.669 79.517-26.669v32c-24.199 0-45.869 7.472-64 23.136z"/></svg>