<?xml version="1.0" encoding="UTF-8" standalone="no"?>
<!-- Created with Inkscape (http://www.inkscape.org/) -->

<svg
   xmlns:dc="http://purl.org/dc/elements/1.1/"
   xmlns:cc="http://creativecommons.org/ns#"
   xmlns:rdf="http://www.w3.org/1999/02/22-rdf-syntax-ns#"
   xmlns:svg="http://www.w3.org/2000/svg"
   xmlns="http://www.w3.org/2000/svg"
   xmlns:sodipodi="http://sodipodi.sourceforge.net/DTD/sodipodi-0.dtd"
   xmlns:inkscape="http://www.inkscape.org/namespaces/inkscape"
   width="320"
   height="448"
   viewBox="0 0 319.99999 447.99999"
   id="svg2"
   version="1.1"
   inkscape:version="0.91 r13725"
   sodipodi:docname="edit-cut.svg">
  <title
     id="title3372">edit-cut</title>
  <defs
     id="defs4">
    <pattern
       y="0"
       x="0"
       height="6"
       width="6"
       patternUnits="userSpaceOnUse"
       id="EMFhbasepattern" />
    <pattern
       y="0"
       x="0"
       height="6"
       width="6"
       patternUnits="userSpaceOnUse"
       id="EMFhbasepattern-2" />
    <pattern
       y="0"
       x="0"
       height="6"
       width="6"
       patternUnits="userSpaceOnUse"
       id="EMFhbasepattern-7" />
    <pattern
       y="0"
       x="0"
       height="6"
       width="6"
       patternUnits="userSpaceOnUse"
       id="EMFhbasepattern-77" />
    <pattern
       y="0"
       x="0"
       height="6"
       width="6"
       patternUnits="userSpaceOnUse"
       id="EMFhbasepattern-1" />
    <pattern
       y="0"
       x="0"
       height="6"
       width="6"
       patternUnits="userSpaceOnUse"
       id="EMFhbasepattern-8" />
    <pattern
       y="0"
       x="0"
       height="6"
       width="6"
       patternUnits="userSpaceOnUse"
       id="EMFhbasepattern-9" />
    <pattern
       y="0"
       x="0"
       height="6"
       width="6"
       patternUnits="userSpaceOnUse"
       id="EMFhbasepattern-22" />
    <pattern
       y="0"
       x="0"
       height="6"
       width="6"
       patternUnits="userSpaceOnUse"
       id="EMFhbasepattern-26" />
    <pattern
       y="0"
       x="0"
       height="6"
       width="6"
       patternUnits="userSpaceOnUse"
       id="EMFhbasepattern-0" />
    <pattern
       y="0"
       x="0"
       height="6"
       width="6"
       patternUnits="userSpaceOnUse"
       id="EMFhbasepattern-3" />
    <pattern
       y="0"
       x="0"
       height="6"
       width="6"
       patternUnits="userSpaceOnUse"
       id="EMFhbasepattern-75" />
    <pattern
       y="0"
       x="0"
       height="6"
       width="6"
       patternUnits="userSpaceOnUse"
       id="EMFhbasepattern-4" />
  </defs>
  <sodipodi:namedview
     id="base"
     pagecolor="#ffffff"
     bordercolor="#666666"
     borderopacity="1.0"
     inkscape:pageopacity="0.0"
     inkscape:pageshadow="2"
     inkscape:zoom="0.99999999"
     inkscape:cx="179.47901"
     inkscape:cy="264.08376"
     inkscape:document-units="px"
     inkscape:current-layer="layer1"
     showgrid="true"
     inkscape:snap-bbox="true"
     inkscape:bbox-nodes="true"
     units="px"
     inkscape:window-width="961"
     inkscape:window-height="854"
     inkscape:window-x="260"
     inkscape:window-y="260"
     inkscape:window-maximized="0">
    <inkscape:grid
       type="xygrid"
       id="grid3336"
       spacingx="16"
       spacingy="16"
       empspacing="2" />
  </sodipodi:namedview>
  <metadata
     id="metadata7">
    <rdf:RDF>
      <cc:Work
         rdf:about="">
        <dc:format>image/svg+xml</dc:format>
        <dc:type
           rdf:resource="http://purl.org/dc/dcmitype/StillImage" />
        <dc:title>edit-cut</dc:title>
      </cc:Work>
    </rdf:RDF>
  </metadata>
  <g
     inkscape:label="Layer 1"
     inkscape:groupmode="layer"
     id="layer1"
     transform="translate(0,-604.36224)">
    <flowRoot
       xml:space="preserve"
       id="flowRoot3338"
       style="font-style:normal;font-weight:normal;font-size:40px;line-height:125%;font-family:sans-serif;letter-spacing:0px;word-spacing:0px;fill:#000000;fill-opacity:1;stroke:none;stroke-width:1px;stroke-linecap:butt;stroke-linejoin:miter;stroke-opacity:1"
       transform="translate(0,698.0315)"><flowRegion
         id="flowRegion3340"><rect
           id="rect3342"
           width="360"
           height="360"
           x="0"
           y="-5.669281" /></flowRegion><flowPara
         id="flowPara3344" /></flowRoot>    <flowRoot
       xml:space="preserve"
       id="flowRoot3371"
       style="font-style:normal;font-weight:normal;font-size:40px;line-height:125%;font-family:sans-serif;letter-spacing:0px;word-spacing:0px;fill:#000000;fill-opacity:1;stroke:none;stroke-width:1px;stroke-linecap:butt;stroke-linejoin:miter;stroke-opacity:1"><flowRegion
         id="flowRegion3373"><rect
           id="rect3375"
           width="85"
           height="85"
           x="5"
           y="5" /></flowRegion><flowPara
         id="flowPara3377" /></flowRoot>    <flowRoot
       xml:space="preserve"
       id="flowRoot3404"
       style="font-style:normal;font-weight:normal;font-size:40px;line-height:125%;font-family:sans-serif;letter-spacing:0px;word-spacing:0px;fill:#000000;fill-opacity:1;stroke:none;stroke-width:1px;stroke-linecap:butt;stroke-linejoin:miter;stroke-opacity:1"><flowRegion
         id="flowRegion3406"><rect
           id="rect3408"
           width="65"
           height="50"
           x="15"
           y="20" /></flowRegion><flowPara
         id="flowPara3410" /></flowRoot>    <flowRoot
       xml:space="preserve"
       id="flowRoot3437"
       style="font-style:normal;font-weight:normal;font-size:40px;line-height:125%;font-family:sans-serif;letter-spacing:0px;word-spacing:0px;fill:#000000;fill-opacity:1;stroke:none;stroke-width:1px;stroke-linecap:butt;stroke-linejoin:miter;stroke-opacity:1"><flowRegion
         id="flowRegion3439"><rect
           id="rect3441"
           width="80"
           height="75"
           x="5"
           y="5" /></flowRegion><flowPara
         id="flowPara3443" /></flowRoot>    <text
       sodipodi:linespacing="125%"
       id="text3481"
       y="1009.7125"
       x="51.231663"
       style="font-style:normal;font-variant:normal;font-weight:400;font-size:13.8125px;line-height:125%;font-family:Calibri;text-align:start;letter-spacing:0px;word-spacing:0px;text-anchor:start;fill:#000000;fill-opacity:1;stroke:none"
       xml:space="preserve"><tspan
         id="tspan3483"
         y="0"
         x="0"
         sodipodi:role="line"><tspan
           id="tspan3485"
           style="font-style:normal;font-variant:normal;font-weight:400;font-size:13.8125px;font-family:Calibri;fill:#000000"
           dy="0"
           dx="0" /></tspan></text>
    <text
       sodipodi:linespacing="125%"
       id="text3698"
       y="1080.1998"
       x="82.929802"
       style="font-style:normal;font-variant:normal;font-weight:400;font-size:13.8125px;line-height:125%;font-family:Calibri;text-align:start;letter-spacing:0px;word-spacing:0px;text-anchor:start;fill:#000000;fill-opacity:1;stroke:none"
       xml:space="preserve"><tspan
         id="tspan3700"
         y="0"
         x="0"
         sodipodi:role="line"><tspan
           id="tspan3702"
           style="font-style:normal;font-variant:normal;font-weight:400;font-size:13.8125px;font-family:Calibri;fill:#000000"
           dy="0"
           dx="0" /></tspan></text>
    <g
       style="font-style:normal;font-variant:normal;font-weight:400;font-size:16.91569519px;line-height:125%;font-family:'Segoe UI Symbol';text-align:start;letter-spacing:0px;word-spacing:0px;text-anchor:start;fill-opacity:1;stroke:none"
       id="text3723"
       transform="matrix(24.819166,0,0,23.159662,-372.28749,-22841.606)">
      <path
         d="m 27.785887,1028.262 q 0.107375,0.3965 0.107375,0.7847 0,0.5864 -0.231269,1.0738 -0.23127,0.4873 -0.611212,0.8342 -0.371683,0.3551 -0.859,0.5534 -0.487317,0.1982 -0.999414,0.1982 -0.313865,0 -0.627731,-0.083 -0.305605,-0.074 -0.594692,-0.2395 -0.462538,-0.2643 -0.792923,-0.7764 -0.322125,-0.5121 -0.545135,-1.1729 -0.21475,-0.6608 -0.355163,-1.4124 -0.140414,-0.7599 -0.23127,-1.5032 -0.06608,-0.5204 -0.239529,-1.0738 -0.173451,-0.5616 -0.41298,-1.1068 -0.239529,0.5452 -0.421241,1.1068 -0.181711,0.5534 -0.239529,1.0738 -0.0413,0.3964 -0.107375,0.859 -0.05782,0.4542 -0.156932,0.925 -0.09086,0.4708 -0.22301,0.9334 -0.123894,0.4625 -0.305606,0.8672 -0.173452,0.413 -0.412981,0.7434 -0.231269,0.3304 -0.528615,0.5369 -0.280827,0.1899 -0.611212,0.256 -0.322125,0.066 -0.63599,0.066 -0.520356,0 -1.015933,-0.1982 -0.495577,-0.19 -0.883779,-0.5452 -0.379943,-0.3551 -0.619472,-0.8424 Q 15,1029.6331 15,1029.0467 q 0,-0.3882 0.107375,-0.7847 0.156933,-0.5534 0.44602,-1.0407 0.289086,-0.4873 0.652509,-0.9251 0.371683,-0.4377 0.784664,-0.8259 0.412981,-0.3965 0.809442,-0.7516 0.396462,-0.3552 0.743366,-0.6773 0.355163,-0.3304 0.594692,-0.636 l 1.015933,-1.4867 -2.733933,-9.5564 0.809442,0 3.171693,6.905 3.262549,-6.905 0.809442,0 -2.833048,9.6059 q 0.0083,0.016 0.07434,0.1074 0.07434,0.091 0.181712,0.223 0.115635,0.1321 0.247788,0.2973 0.132154,0.157 0.256049,0.3139 0.132153,0.1487 0.239528,0.2891 0.115635,0.1321 0.189972,0.2147 0.256048,0.3056 0.611211,0.636 0.355164,0.3222 0.743366,0.6773 0.388202,0.3552 0.784663,0.7434 0.404722,0.3882 0.751625,0.8259 0.355164,0.4378 0.635991,0.9251 0.280827,0.4873 0.4295,1.0407 z m -10.56405,-1.1398 q -0.272567,0.413 -0.446019,0.9168 -0.165193,0.4956 -0.165193,0.9416 0,0.3469 0.107376,0.603 0.115634,0.2643 0.371682,0.3964 0.21475,0.1074 0.43776,0.1074 0.272567,0 0.520356,-0.1487 0.247788,-0.1486 0.454279,-0.3716 0.21475,-0.2148 0.371682,-0.4708 0.165193,-0.2561 0.264308,-0.4708 0.0826,-0.1735 0.173452,-0.5204 0.09086,-0.3552 0.173452,-0.7764 0.0826,-0.4295 0.132154,-0.8673 0.05782,-0.4377 0.05782,-0.7764 0,-0.2478 -0.0413,-0.4295 -0.388202,0.099 -0.735106,0.2809 -0.338644,0.1817 -0.64425,0.4295 -0.297346,0.2395 -0.561654,0.5368 -0.256048,0.2974 -0.470798,0.6195 z m 8.738675,2.8578 q 0.256048,-0.1321 0.371682,-0.3964 0.115635,-0.2643 0.115635,-0.6112 0,-0.4461 -0.173452,-0.9416 -0.165192,-0.4956 -0.43776,-0.9086 -0.21475,-0.3221 -0.479057,-0.6195 -0.256048,-0.2973 -0.561654,-0.5368 -0.297346,-0.2478 -0.64425,-0.4295 -0.338645,-0.1817 -0.726847,-0.2809 -0.0413,0.1817 -0.0413,0.4295 0,0.3387 0.04956,0.7764 0.05782,0.4378 0.132154,0.8673 0.0826,0.4212 0.173452,0.7764 0.09911,0.3469 0.181711,0.5204 0.09912,0.2147 0.256048,0.4708 0.165193,0.256 0.371683,0.4708 0.206491,0.223 0.454279,0.3716 0.247789,0.1487 0.520356,0.1487 0.22301,0 0.43776,-0.1074 z"
         style="font-style:normal;font-variant:normal;font-weight:400;font-size:16.91569519px;font-family:'Segoe UI Symbol';"
         id="path3747"
         inkscape:connector-curvature="0" />
    </g>
    <g
       style="font-style:normal;font-variant:normal;font-weight:400;font-size:13.8125px;line-height:125%;font-family:Calibri;text-align:start;letter-spacing:0px;word-spacing:0px;text-anchor:start;fill:#000000;fill-opacity:1;stroke:none"
       id="text3729"
       transform="matrix(5.2740726,0,0,5.1695615,-64.11109,-4281.107)" />
  </g>
</svg>
