<svg xmlns="http://www.w3.org/2000/svg" viewBox="0 0 448 448" enable-background="new 0 0 448 448"><path d="M426.011 21.914c-29.253-29.216-76.871-29.22-106.128-.008l-.008-.008-283.911 284.744-35.964 141.358 141.236-34.39 285.413-289.499c19.685-19.662 21.351-30.924 21.351-49.195 0-20.028-7.81-38.856-21.989-53.002zm-381.575 381.077l18.206-72.677c26.932 6.471 48.067 27.627 54.44 54.56l-72.646 18.117zm40.297-99.931l222.407-222.151 59.81 59.708-222.551 222.28c-10.779-27.271-32.406-48.978-59.666-59.837zm318.163-198.245l-.058-.042-12.717 12.701-59.808-59.71 12.727-12.714.008.008c16.516-16.463 43.338-16.463 59.79 0 8.002 7.976 12.387 18.573 12.387 29.857 0 11.268-4.385 21.865-12.387 29.841l.058.059z"/></svg>