<?xml version="1.0" encoding="UTF-8" standalone="no"?>
<!-- Created with Inkscape (http://www.inkscape.org/) -->

<svg
   xmlns:dc="http://purl.org/dc/elements/1.1/"
   xmlns:cc="http://creativecommons.org/ns#"
   xmlns:rdf="http://www.w3.org/1999/02/22-rdf-syntax-ns#"
   xmlns:svg="http://www.w3.org/2000/svg"
   xmlns="http://www.w3.org/2000/svg"
   xmlns:sodipodi="http://sodipodi.sourceforge.net/DTD/sodipodi-0.dtd"
   xmlns:inkscape="http://www.inkscape.org/namespaces/inkscape"
   width="384"
   height="448"
   viewBox="0 0 384 448"
   id="svg2"
   version="1.1"
   inkscape:version="0.91 r13725"
   sodipodi:docname="edit-paste.svg">
  <defs
     id="defs4">
    <pattern
       y="0"
       x="0"
       height="6"
       width="6"
       patternUnits="userSpaceOnUse"
       id="EMFhbasepattern" />
  </defs>
  <sodipodi:namedview
     id="base"
     pagecolor="#ffffff"
     bordercolor="#666666"
     borderopacity="1.0"
     inkscape:pageopacity="0.0"
     inkscape:pageshadow="2"
     inkscape:zoom="0.98994949"
     inkscape:cx="410.62293"
     inkscape:cy="206.64368"
     inkscape:document-units="px"
     inkscape:current-layer="layer1"
     showgrid="true"
     fit-margin-top="448"
     fit-margin-right="384"
     fit-margin-left="0"
     fit-margin-bottom="0"
     units="px"
     inkscape:window-width="1196"
     inkscape:window-height="852"
     inkscape:window-x="132"
     inkscape:window-y="423"
     inkscape:window-maximized="0"
     inkscape:snap-bbox="true"
     inkscape:bbox-nodes="true">
    <inkscape:grid
       type="xygrid"
       id="grid3347"
       spacingx="16"
       spacingy="16"
       empspacing="2"
       originx="0"
       originy="-1.7498462e-005" />
  </sodipodi:namedview>
  <metadata
     id="metadata7">
    <rdf:RDF>
      <cc:Work
         rdf:about="">
        <dc:format>image/svg+xml</dc:format>
        <dc:type
           rdf:resource="http://purl.org/dc/dcmitype/StillImage" />
        <dc:title />
      </cc:Work>
    </rdf:RDF>
  </metadata>
  <g
     inkscape:label="Layer 1"
     inkscape:groupmode="layer"
     id="layer1"
     transform="translate(0,-604.36224)">
    <g
       style="font-style:normal;font-variant:normal;font-weight:400;font-size:13.8125px;line-height:125%;font-family:Calibri;text-align:start;letter-spacing:0px;word-spacing:0px;text-anchor:start;fill:#000000;fill-opacity:1;stroke:none"
       id="text3345"
       transform="translate(-16.122772,28.656057)" />
    <path
       style="fill-opacity:1;stroke:none;stroke-width:30;stroke-linecap:round;stroke-miterlimit:4;stroke-dasharray:none;stroke-opacity:1"
       d="M 96 0 L 85.333984 32 L 16 32 C 7.1359926 32 0 39.135993 0 48 L 0 400 C 0 408.86401 7.1359926 416 16 416 L 128 416 L 128 384 L 32 384 L 32 64 L 74.666016 64 L 64 96 L 256 96 L 245.33398 64 L 288 64 L 288 160 L 320 160 L 320 48 C 320 39.135993 312.86401 32 304 32 L 234.66602 32 L 224 0 L 96 0 z M 128 32 L 192 32 L 208 64 L 112 64 L 128 32 z "
       transform="translate(0,604.36224)"
       id="rect3366" />
    <path
       style="fill-opacity:1;stroke:none;stroke-width:30;stroke-linecap:round;stroke-miterlimit:4;stroke-dasharray:none;stroke-opacity:1"
       d="M 128 128 L 128 448 L 384 448 L 384 128 L 128 128 z M 160 192 L 352 192 L 352 224 L 160 224 L 160 192 z M 160 256 L 352 256 L 352 288 L 160 288 L 160 256 z M 160 320 L 352 320 L 352 352 L 160 352 L 160 320 z M 160 384 L 256 384 L 256 416 L 160 416 L 160 384 z "
       transform="translate(0,604.36224)"
       id="rect3377" />
  </g>
</svg>
