<?xml version="1.0" encoding="UTF-8" standalone="no"?>
<!-- Created with Inkscape (http://www.inkscape.org/) -->

<svg
   xmlns:dc="http://purl.org/dc/elements/1.1/"
   xmlns:cc="http://creativecommons.org/ns#"
   xmlns:rdf="http://www.w3.org/1999/02/22-rdf-syntax-ns#"
   xmlns:svg="http://www.w3.org/2000/svg"
   xmlns="http://www.w3.org/2000/svg"
   xmlns:sodipodi="http://sodipodi.sourceforge.net/DTD/sodipodi-0.dtd"
   xmlns:inkscape="http://www.inkscape.org/namespaces/inkscape"
   width="448"
   height="448"
   viewBox="0 0 447.99999 447.99999"
   id="svg2"
   version="1.1"
   inkscape:version="0.91 r13725"
   sodipodi:docname="edit-remove.svg">
  <title
     id="title3355">edit-remove</title>
  <defs
     id="defs4">
    <pattern
       y="0"
       x="0"
       height="6"
       width="6"
       patternUnits="userSpaceOnUse"
       id="EMFhbasepattern" />
    <pattern
       y="0"
       x="0"
       height="6"
       width="6"
       patternUnits="userSpaceOnUse"
       id="EMFhbasepattern-2" />
    <pattern
       y="0"
       x="0"
       height="6"
       width="6"
       patternUnits="userSpaceOnUse"
       id="EMFhbasepattern-7" />
  </defs>
  <sodipodi:namedview
     id="base"
     pagecolor="#ffffff"
     bordercolor="#666666"
     borderopacity="1.0"
     inkscape:pageopacity="0.0"
     inkscape:pageshadow="2"
     inkscape:zoom="0.99999999"
     inkscape:cx="198.70232"
     inkscape:cy="187.12504"
     inkscape:document-units="px"
     inkscape:current-layer="layer1"
     showgrid="true"
     inkscape:snap-bbox="true"
     inkscape:bbox-nodes="true"
     units="px"
     inkscape:window-width="809"
     inkscape:window-height="860"
     inkscape:window-x="234"
     inkscape:window-y="234"
     inkscape:window-maximized="0">
    <inkscape:grid
       type="xygrid"
       id="grid3336"
       spacingx="16"
       spacingy="16"
       empspacing="2" />
  </sodipodi:namedview>
  <metadata
     id="metadata7">
    <rdf:RDF>
      <cc:Work
         rdf:about="">
        <dc:format>image/svg+xml</dc:format>
        <dc:type
           rdf:resource="http://purl.org/dc/dcmitype/StillImage" />
        <dc:title>edit-remove</dc:title>
      </cc:Work>
    </rdf:RDF>
  </metadata>
  <g
     inkscape:label="Layer 1"
     inkscape:groupmode="layer"
     id="layer1"
     transform="translate(0,-604.36224)">
    <flowRoot
       xml:space="preserve"
       id="flowRoot3338"
       style="font-style:normal;font-weight:normal;font-size:40px;line-height:125%;font-family:sans-serif;letter-spacing:0px;word-spacing:0px;fill:#000000;fill-opacity:1;stroke:none;stroke-width:1px;stroke-linecap:butt;stroke-linejoin:miter;stroke-opacity:1"
       transform="translate(0,698.0315)"><flowRegion
         id="flowRegion3340"><rect
           id="rect3342"
           width="360"
           height="360"
           x="0"
           y="-5.669281" /></flowRegion><flowPara
         id="flowPara3344" /></flowRoot>    <flowRoot
       xml:space="preserve"
       id="flowRoot3371"
       style="font-style:normal;font-weight:normal;font-size:40px;line-height:125%;font-family:sans-serif;letter-spacing:0px;word-spacing:0px;fill:#000000;fill-opacity:1;stroke:none;stroke-width:1px;stroke-linecap:butt;stroke-linejoin:miter;stroke-opacity:1"><flowRegion
         id="flowRegion3373"><rect
           id="rect3375"
           width="85"
           height="85"
           x="5"
           y="5" /></flowRegion><flowPara
         id="flowPara3377" /></flowRoot>    <flowRoot
       xml:space="preserve"
       id="flowRoot3404"
       style="font-style:normal;font-weight:normal;font-size:40px;line-height:125%;font-family:sans-serif;letter-spacing:0px;word-spacing:0px;fill:#000000;fill-opacity:1;stroke:none;stroke-width:1px;stroke-linecap:butt;stroke-linejoin:miter;stroke-opacity:1"><flowRegion
         id="flowRegion3406"><rect
           id="rect3408"
           width="65"
           height="50"
           x="15"
           y="20" /></flowRegion><flowPara
         id="flowPara3410" /></flowRoot>    <flowRoot
       xml:space="preserve"
       id="flowRoot3437"
       style="font-style:normal;font-weight:normal;font-size:40px;line-height:125%;font-family:sans-serif;letter-spacing:0px;word-spacing:0px;fill:#000000;fill-opacity:1;stroke:none;stroke-width:1px;stroke-linecap:butt;stroke-linejoin:miter;stroke-opacity:1"><flowRegion
         id="flowRegion3439"><rect
           id="rect3441"
           width="80"
           height="75"
           x="5"
           y="5" /></flowRegion><flowPara
         id="flowPara3443" /></flowRoot>    <g
       style="font-style:normal;font-variant:normal;font-weight:400;font-size:3.89819455px;line-height:125%;font-family:'Segoe UI Symbol';text-align:start;letter-spacing:0px;word-spacing:0px;text-anchor:start;fill:#000000;fill-opacity:1;stroke:none"
       id="text3450"
       transform="matrix(121.63637,0,0,119.90602,-9730.9096,-123182.03)">
      <path
         d="m 83.683109,1032.3794 q 0,0.013 -0.0552,0.046 -0.0533,0.032 -0.154177,0.095 -0.09898,0.063 -0.241734,0.1637 -0.142756,0.1009 -0.321677,0.2513 -0.177017,0.1484 -0.386393,0.354 -0.207472,0.2037 -0.439689,0.4739 0.01142,0.015 0.03617,0.048 0.02665,0.031 0.0552,0.067 0.03045,0.034 0.0571,0.067 0.02665,0.03 0.03807,0.046 0.186534,0.2399 0.333097,0.474 0.146563,0.2341 0.255058,0.4492 0.110398,0.2151 0.186535,0.4054 0.07614,0.1885 0.121818,0.3388 0.04759,0.1504 0.06852,0.2551 0.02094,0.1066 0.02094,0.1523 0,0.03 -0.0076,0.032 l -0.0019,0 q -0.01332,0 -0.05139,-0.067 -0.03807,-0.067 -0.110398,-0.1903 -0.07043,-0.1218 -0.182728,-0.2932 -0.110398,-0.1732 -0.270285,-0.3844 -0.159887,-0.2132 -0.37307,-0.4569 -0.213182,-0.2455 -0.491081,-0.512 l -0.01523,0.017 q -0.01523,0.017 -0.03807,0.046 -0.02284,0.029 -0.05139,0.065 -0.02855,0.034 -0.05329,0.071 -0.197956,0.2779 -0.336905,0.5101 -0.137046,0.2303 -0.226506,0.4035 -0.08756,0.1732 -0.133239,0.2817 -0.04568,0.1066 -0.06281,0.1371 -0.01903,0.034 -0.05901,0.034 -0.01903,0 -0.03807,-0.01 -0.0095,-0.01 -0.03807,-0.025 -0.02855,-0.019 -0.06852,-0.046 -0.03997,-0.029 -0.08756,-0.059 -0.04568,-0.032 -0.09136,-0.061 -0.04378,-0.031 -0.08185,-0.055 -0.03807,-0.025 -0.06091,-0.038 -0.01713,-0.01 -0.02855,-0.023 -0.01142,-0.015 -0.01142,-0.032 0,-0.01 0.0076,-0.029 0.03616,-0.08 0.119915,-0.2246 0.08565,-0.1446 0.220797,-0.3407 0.135142,-0.196 0.325484,-0.4359 0.190341,-0.2417 0.439689,-0.512 -0.255058,-0.2189 -0.475854,-0.3864 -0.218893,-0.1675 -0.394007,-0.2893 -0.173211,-0.1237 -0.298836,-0.2017 -0.123722,-0.08 -0.192245,-0.1219 -0.01713,-0.01 -0.02855,-0.019 Q 80,1032.84 80,1032.8248 q 0,-0.017 0.01713,-0.038 0.0076,-0.013 0.04187,-0.059 0.03616,-0.046 0.08375,-0.1047 0.04949,-0.059 0.102785,-0.1218 0.0552,-0.063 0.104688,-0.1085 0.01523,-0.011 0.02665,-0.021 0.01142,-0.01 0.03236,-0.01 0.01713,0 0.03045,0.01 0.04188,0.023 0.169404,0.1085 0.127529,0.084 0.308353,0.2227 0.182728,0.139 0.399718,0.3293 0.218892,0.1904 0.441592,0.4226 0.180824,-0.1808 0.38449,-0.3312 0.203665,-0.1523 0.405427,-0.2722 0.201762,-0.1199 0.388297,-0.2094 0.188438,-0.089 0.340711,-0.1484 0.152274,-0.059 0.255058,-0.088 0.104688,-0.03 0.137046,-0.03 0.01142,0 0.01332,0 l 0,0 z"
         style="font-style:normal;font-variant:normal;font-weight:400;font-size:3.89819455px;font-family:'Segoe UI Symbol';fill:#000000"
         id="path3468"
         inkscape:connector-curvature="0" />
    </g>
  </g>
</svg>
