<?xml version="1.0" encoding="UTF-8" standalone="no"?>
<!-- Created with Inkscape (http://www.inkscape.org/) -->

<svg
   xmlns:dc="http://purl.org/dc/elements/1.1/"
   xmlns:cc="http://creativecommons.org/ns#"
   xmlns:rdf="http://www.w3.org/1999/02/22-rdf-syntax-ns#"
   xmlns:svg="http://www.w3.org/2000/svg"
   xmlns="http://www.w3.org/2000/svg"
   xmlns:sodipodi="http://sodipodi.sourceforge.net/DTD/sodipodi-0.dtd"
   xmlns:inkscape="http://www.inkscape.org/namespaces/inkscape"
   width="448"
   height="448"
   viewBox="0 0 448 448"
   id="svg2"
   version="1.1"
   inkscape:version="0.91 r13725"
   sodipodi:docname="edit.svg">
  <title
     id="title3366">edit</title>
  <defs
     id="defs4">
    <pattern
       y="0"
       x="0"
       height="6"
       width="6"
       patternUnits="userSpaceOnUse"
       id="EMFhbasepattern" />
    <pattern
       y="0"
       x="0"
       height="6"
       width="6"
       patternUnits="userSpaceOnUse"
       id="EMFhbasepattern-1" />
  </defs>
  <sodipodi:namedview
     id="base"
     pagecolor="#ffffff"
     bordercolor="#666666"
     borderopacity="1.0"
     inkscape:pageopacity="0.0"
     inkscape:pageshadow="2"
     inkscape:zoom="0.98994949"
     inkscape:cx="349.10809"
     inkscape:cy="173.97758"
     inkscape:document-units="px"
     inkscape:current-layer="layer1"
     showgrid="true"
     fit-margin-top="448"
     fit-margin-right="384"
     fit-margin-left="0"
     fit-margin-bottom="0"
     units="px"
     inkscape:window-width="1196"
     inkscape:window-height="852"
     inkscape:window-x="132"
     inkscape:window-y="423"
     inkscape:window-maximized="0"
     inkscape:snap-bbox="true"
     inkscape:bbox-nodes="true">
    <inkscape:grid
       type="xygrid"
       id="grid3347"
       spacingx="16"
       spacingy="16"
       empspacing="2"
       originx="0"
       originy="-1.7498462e-005" />
  </sodipodi:namedview>
  <metadata
     id="metadata7">
    <rdf:RDF>
      <cc:Work
         rdf:about="">
        <dc:format>image/svg+xml</dc:format>
        <dc:type
           rdf:resource="http://purl.org/dc/dcmitype/StillImage" />
        <dc:title>edit</dc:title>
      </cc:Work>
    </rdf:RDF>
  </metadata>
  <g
     inkscape:label="Layer 1"
     inkscape:groupmode="layer"
     id="layer1"
     transform="translate(0,-604.36224)">
    <g
       style="font-style:normal;font-variant:normal;font-weight:400;font-size:13.8125px;line-height:125%;font-family:Calibri;text-align:start;letter-spacing:0px;word-spacing:0px;text-anchor:start;fill:#000000;fill-opacity:1;stroke:none"
       id="text3345"
       transform="matrix(30.783087,0,0,30.783087,-2955.1765,-29331.001)" />
    <g
       transform="scale(1.0033995,0.99661201)"
       style="font-style:normal;font-variant:normal;font-weight:400;font-size:518.95318604px;line-height:125%;font-family:'Segoe UI Symbol';text-align:start;letter-spacing:0px;word-spacing:0px;text-anchor:start;fill-opacity:1;stroke:none"
       id="text3392">
      <path
         d="m 429.25132,622.12723 q 9.88241,9.62902 13.42994,19.25803 3.80093,9.37562 3.80093,17.48426 0,6.84167 -2.02716,12.41636 -1.77377,5.57469 -3.80093,9.62902 -2.78735,4.56111 -5.82809,8.36204 -1.52037,2.02716 -4.30771,5.32129 -2.78735,3.04074 -5.82809,6.58828 -3.04074,3.29413 -6.08148,6.58827 -2.78735,3.04074 -4.56112,5.0679 -4.05432,3.54753 -9.12222,3.54753 -5.0679,0 -9.62901,-4.05432 L 342.84359,660.1365 q -4.05432,-4.05432 -4.05432,-9.62902 0,-5.32129 3.80092,-9.12222 1.77377,-1.77377 4.56111,-4.81451 3.04075,-3.04074 6.33488,-6.08148 3.29414,-3.04074 6.33488,-5.82809 3.04074,-2.78734 5.3213,-4.56111 4.05432,-3.80093 9.12222,-6.84167 4.30772,-2.53395 10.13581,-4.56111 5.82808,-2.28056 12.66975,-2.28056 7.09506,0 15.20371,3.54754 8.10864,3.29413 16.97747,12.16296 z M 372.74421,757.69361 124.16361,1006.2742 49.665445,931.77606 298.24605,683.19545 372.74421,757.69361 Z M 3.4868717e-6,1055.9397 25.339515,981.69489 73.991376,1032.8807 3.4868717e-6,1055.9397 Z"
         style="font-style:normal;font-variant:normal;font-weight:400;font-size:518.95318604px;font-family:'Segoe UI Symbol';"
         id="path3416" />
    </g>
    <text
       sodipodi:linespacing="125%"
       id="text3398"
       y="2472.6499"
       x="2158.647"
       style="font-style:normal;font-variant:normal;font-weight:400;font-size:423.75088501px;line-height:125%;font-family:Calibri;text-align:start;letter-spacing:0px;word-spacing:0px;text-anchor:start;fill:#000000;fill-opacity:1;stroke:none"
       xml:space="preserve"
       transform="scale(1.0033995,0.99661201)"><tspan
         id="tspan3400"
         y="0"
         x="0"
         sodipodi:role="line"><tspan
           id="tspan3402"
           style="font-style:normal;font-variant:normal;font-weight:400;font-size:423.75088501px;font-family:Calibri;fill:#000000"
           dy="0"
           dx="0" /></tspan></text>
  </g>
</svg>
