<?xml version="1.0" encoding="UTF-8" standalone="no"?>
<!-- Created with Inkscape (http://www.inkscape.org/) -->

<svg
   xmlns:dc="http://purl.org/dc/elements/1.1/"
   xmlns:cc="http://creativecommons.org/ns#"
   xmlns:rdf="http://www.w3.org/1999/02/22-rdf-syntax-ns#"
   xmlns:svg="http://www.w3.org/2000/svg"
   xmlns="http://www.w3.org/2000/svg"
   xmlns:sodipodi="http://sodipodi.sourceforge.net/DTD/sodipodi-0.dtd"
   xmlns:inkscape="http://www.inkscape.org/namespaces/inkscape"
   width="448"
   height="448"
   viewBox="0 0 448 448"
   id="svg2"
   version="1.1"
   inkscape:version="0.91 r13725"
   sodipodi:docname="feedback-negative.svg">
  <title
     id="title4147">feedback-positive</title>
  <defs
     id="defs4" />
  <sodipodi:namedview
     id="base"
     pagecolor="#ffffff"
     bordercolor="#666666"
     borderopacity="1.0"
     inkscape:pageopacity="0.0"
     inkscape:pageshadow="2"
     inkscape:zoom="0.7"
     inkscape:cx="69.076097"
     inkscape:cy="332.2106"
     inkscape:document-units="px"
     inkscape:current-layer="layer1"
     showgrid="true"
     fit-margin-top="448"
     fit-margin-right="384"
     fit-margin-left="0"
     fit-margin-bottom="0"
     units="px"
     inkscape:window-width="1196"
     inkscape:window-height="852"
     inkscape:window-x="871"
     inkscape:window-y="955"
     inkscape:window-maximized="0"
     inkscape:snap-bbox="true"
     inkscape:bbox-nodes="true"
     inkscape:object-nodes="false">
    <inkscape:grid
       type="xygrid"
       id="grid3347"
       spacingx="16"
       spacingy="16"
       empspacing="2"
       originx="0"
       originy="-1.7498462e-005" />
  </sodipodi:namedview>
  <metadata
     id="metadata7">
    <rdf:RDF>
      <cc:Work
         rdf:about="">
        <dc:format>image/svg+xml</dc:format>
        <dc:type
           rdf:resource="http://purl.org/dc/dcmitype/StillImage" />
        <dc:title>feedback-positive</dc:title>
      </cc:Work>
    </rdf:RDF>
  </metadata>
  <g
     inkscape:label="Layer 1"
     inkscape:groupmode="layer"
     id="layer1"
     transform="translate(0,-604.36224)">
    <path
       style="fill-rule:evenodd;stroke:none;stroke-width:1px;stroke-linecap:butt;stroke-linejoin:miter;stroke-opacity:1"
       d="M 224 0 A 224 224 0 0 0 0 224 A 224 224 0 0 0 224 448 A 224 224 0 0 0 448 224 A 224 224 0 0 0 224 0 z M 152 128 A 40 39.999992 0 0 1 192 168 A 40 39.999992 0 0 1 152 208 A 40 39.999992 0 0 1 112 168 A 40 39.999992 0 0 1 152 128 z M 296 128 A 40 39.999992 0 0 1 336 168 A 40 39.999992 0 0 1 296 208 A 40 39.999992 0 0 1 256 168 A 40 39.999992 0 0 1 296 128 z M 224.02148 240 C 304.77887 240 347.5 308.18945 347.5 308.18945 A 25.565954 27.920292 0 1 1 305.05078 339.3125 C 305.05078 339.3125 279.12585 295.83594 224.02148 295.83594 C 168.91711 295.83594 142.99414 339.3125 142.99414 339.3125 A 25.565954 27.920292 0 0 1 121.40625 352 A 25.565954 27.920292 0 0 1 100.54492 308.18945 C 100.54492 308.18945 143.26408 240 224.02148 240 z "
       transform="translate(0,604.36224)"
       id="path3339" />
  </g>
</svg>
