<svg xmlns="http://www.w3.org/2000/svg" viewBox="0 0 448 448" enable-background="new 0 0 448 448"><path d="M168 168c0 15.464-12.536 28-28 28s-28-12.536-28-28 12.536-28 28-28 28 12.536 28 28zm140-28c-15.464 0-28 12.536-28 28s12.536 28 28 28 28-12.536 28-28-12.536-28-28-28zm74.284 242.284c42.279-42.279 65.563-98.492 65.563-158.284 0-59.792-23.284-116.005-65.563-158.284s-98.492-65.564-158.284-65.564c-59.792 0-116.005 23.284-158.284 65.563s-65.564 98.493-65.564 158.285 23.284 116.005 65.563 158.284 98.493 65.564 158.285 65.564 116.005-23.285 158.284-65.564zm33.868-158.284c0 105.953-86.199 192.152-192.152 192.152s-192.152-86.199-192.152-192.152 86.199-192.152 192.152-192.152 192.152 86.199 192.152 192.152zm-192.152 71.593c38.066 0 72.434 21.445 89.688 55.968l28.623-14.307c-22.709-45.436-68.044-73.661-118.312-73.661-50.267 0-95.602 28.226-118.312 73.661l28.624 14.307c17.256-34.523 51.623-55.968 89.689-55.968z"/></svg>