<svg xmlns="http://www.w3.org/2000/svg" viewBox="0 0 448 448" enable-background="new 0 0 448 448"><path d="M192 208c-44.109 0-80 35.891-80 80 0 16.281 4.943 31.402 13.326 44.049l-91.139 91.139 22.625 22.625 91.139-91.139c12.649 8.383 27.772 13.326 44.049 13.326 44.109 0 80-35.875 80-80 0-44.109-35.891-80-80-80zm0 128c-7.605 0-14.705-1.939-21.102-5.102-9.469-4.68-17.117-12.328-21.797-21.797-3.162-6.396-5.101-13.496-5.101-21.101 0-26.469 21.531-48 48-48s48 21.531 48 48-21.531 48-48 48zm102.625-336h-230.625v224h32v-192h160v128h128v256h-224v32h256v-326.625l-121.375-121.375zm-6.625 128v-89.375l89.375 89.375h-89.375z"/></svg>