<?xml version="1.0" encoding="UTF-8" standalone="no"?>
<!-- Created with Inkscape (http://www.inkscape.org/) -->

<svg
   xmlns:dc="http://purl.org/dc/elements/1.1/"
   xmlns:cc="http://creativecommons.org/ns#"
   xmlns:rdf="http://www.w3.org/1999/02/22-rdf-syntax-ns#"
   xmlns:svg="http://www.w3.org/2000/svg"
   xmlns="http://www.w3.org/2000/svg"
   xmlns:sodipodi="http://sodipodi.sourceforge.net/DTD/sodipodi-0.dtd"
   xmlns:inkscape="http://www.inkscape.org/namespaces/inkscape"
   width="448"
   height="448"
   viewBox="0 0 448 448"
   id="svg2"
   version="1.1"
   inkscape:version="0.91 r13725"
   sodipodi:docname="file-comment.svg">
  <defs
     id="defs4" />
  <sodipodi:namedview
     id="base"
     pagecolor="#ffffff"
     bordercolor="#666666"
     borderopacity="1.0"
     inkscape:pageopacity="0.0"
     inkscape:pageshadow="2"
     inkscape:zoom="0.98994949"
     inkscape:cx="166.82897"
     inkscape:cy="198.09024"
     inkscape:document-units="px"
     inkscape:current-layer="layer1"
     showgrid="true"
     fit-margin-top="448"
     fit-margin-right="384"
     fit-margin-left="0"
     fit-margin-bottom="0"
     units="px"
     inkscape:window-width="1196"
     inkscape:window-height="852"
     inkscape:window-x="132"
     inkscape:window-y="423"
     inkscape:window-maximized="0"
     inkscape:snap-bbox="true"
     inkscape:bbox-nodes="true"
     inkscape:object-nodes="true">
    <inkscape:grid
       type="xygrid"
       id="grid3347"
       spacingx="16"
       spacingy="16"
       empspacing="2"
       originx="0"
       originy="-1.7498462e-005" />
  </sodipodi:namedview>
  <metadata
     id="metadata7">
    <rdf:RDF>
      <cc:Work
         rdf:about="">
        <dc:format>image/svg+xml</dc:format>
        <dc:type
           rdf:resource="http://purl.org/dc/dcmitype/StillImage" />
        <dc:title></dc:title>
      </cc:Work>
    </rdf:RDF>
  </metadata>
  <g
     inkscape:label="Layer 1"
     inkscape:groupmode="layer"
     id="layer1"
     transform="translate(0,-604.36224)">
    <path
       id="path3335"
       style="fill-rule:evenodd;stroke:none;stroke-width:1px;stroke-linecap:butt;stroke-linejoin:miter;stroke-opacity:1"
       d="m 0,604.36224 0,32 0,383.99996 0,32 32,0 320,0 0,-32 0,-31.99996 -32,0 0,31.99996 -288,0 0,-383.99996 192,0 0,32 80.98047,0 -64,-64 -208.98047,0 z m 160,352 c -13.92916,0 -32,-18.07082 -32,-31.99998 l 0,-160.00002 -64,-64 352,2e-5 c 13.92916,0 32,17.78452 32,31.71371 l 0,192.28629 c 0,13.92916 -18.07084,32 -32,32 z"
       inkscape:connector-curvature="0"
       sodipodi:nodetypes="ccccccccccccccccccsscccssss" />
  </g>
</svg>
