<svg xmlns="http://www.w3.org/2000/svg" viewBox="0 0 448 448" enable-background="new 0 0 448 448"><path d="M439.542 244.883l-194.684 194.707c-11.29 11.213-29.548 11.213-40.791 0l-195.611-195.6c-11.275-11.276-11.275-29.567 0-40.843l134.102-134.116 50.797 50.803c-5.199 12.48-2.756 27.39 7.391 37.522 3.32 3.351 2.364 1.815 6.467 3.492v124.016c-3.711 1.503-5.653 4.041-8.44 6.921-7.375 6.547-12.105 16.006-12.105 26.656 0 19.792 16.05 35.83 35.828 35.83 2.552 0 5.058-.282 7.469-.784 7.062-1.034 13.874-4.163 19.307-9.584 11.948-11.933 13.169-30.474 3.805-43.882-3.148-5.2-7.563-9.52-12.856-12.527v-120.491l46.303 46.292c-5.136 12.435-2.631 27.265 7.455 37.35 13.402 13.421 35.139 13.421 48.605 0 13.405-13.405 13.405-35.142 0-48.548-9.648-9.616-23.488-12.278-35.514-8.144l-49.67-49.657c4.197-12.011 1.503-25.873-8.127-35.489-9.52-9.535-23.253-12.245-35.217-8.204l-51.549-51.525 40.619-40.624c11.274-11.273 29.564-11.273 40.791 0l195.624 195.601c11.278 11.277 11.278 29.552.001 40.828z"/></svg>