<svg xmlns="http://www.w3.org/2000/svg" viewBox="0 0 448 448" enable-background="new 0 0 448 448"><path d="M352 288h2.762l-130.762 127.578-189.844-185.219c-1.971-1.971-3.422-4.279-5.232-6.359h27.447l70.691-77.57 96.453 87.43 64.485-64.485 54.625 54.625h31.914l16.961-16.547c15.75-15.75 24.5-36.875 24.5-59.344 0-22.453-8.75-43.578-24.641-59.469-31.797-31.781-87.188-31.781-118.953 0l-48.406 52.219-48.828-52.656c-15.469-15.453-36.594-24.203-59.063-24.203-22.453 0-43.578 8.75-59.469 24.641s-24.64 37.015-24.64 59.468c0 15.779 4.537 30.785 12.611 43.891h-35.99c-5.627-13.766-8.621-28.592-8.621-43.891 0-31.016 12.078-60.172 34.016-82.094 43.844-43.875 120.328-43.875 164.203 0l25.781 27.782 25.359-27.344c44.719-44.75 120.781-44.313 164.625-.438 21.938 21.923 34.016 51.079 34.016 82.094s-12.078 60.172-34.016 82.109l-26.425 25.782h-58.184l-41.375-41.375-63.516 63.516-95.547-87.578-42.525 46.074 137.588 134.222 84.936-82.859h43.064z"/></svg>