<svg xmlns="http://www.w3.org/2000/svg" viewBox="0 0 448 448"><title>Untitled-1</title><path d="M256.184 144.212a118.69 118.69 0 0 1 27.316 20.288c39.376 39.376 44.931 97.881 12.4 130.411l-131.9 131.905c-32.53 32.53-91.036 26.975-130.411-12.4s-44.936-97.881-12.405-130.416l65.679-65.679a132.447 132.447 0 0 0 6.19 41.414l-48.067 48.072c-19.409 19.409-13.853 56.553 12.4 82.807s63.4 31.81 82.807 12.4l131.907-131.914c19.409-19.409 13.853-56.553-12.4-82.807a83.314 83.314 0 0 0-28.837-18.767zm-39.05 134.258a83.314 83.314 0 0 1-28.834-18.77c-26.254-26.254-31.81-63.4-12.4-82.807l131.91-131.91c19.409-19.409 56.553-13.853 82.807 12.4s31.81 63.4 12.4 82.807l-48.067 48.067a132.447 132.447 0 0 1 6.19 41.414l65.676-65.671c32.53-32.53 26.975-91.036-12.4-130.411s-97.881-44.936-130.416-12.405l-131.91 131.91c-32.53 32.53-26.975 91.036 12.4 130.411a118.69 118.69 0 0 0 27.321 20.283z"/></svg>