<?xml version="1.0" encoding="UTF-8" standalone="no"?>
<!-- Created with Inkscape (http://www.inkscape.org/) -->

<svg
   xmlns:dc="http://purl.org/dc/elements/1.1/"
   xmlns:cc="http://creativecommons.org/ns#"
   xmlns:rdf="http://www.w3.org/1999/02/22-rdf-syntax-ns#"
   xmlns:svg="http://www.w3.org/2000/svg"
   xmlns="http://www.w3.org/2000/svg"
   xmlns:sodipodi="http://sodipodi.sourceforge.net/DTD/sodipodi-0.dtd"
   xmlns:inkscape="http://www.inkscape.org/namespaces/inkscape"
   width="512"
   height="448"
   viewBox="0 0 511.99998 447.99999"
   id="svg2"
   version="1.1"
   inkscape:version="0.91 r13725"
   sodipodi:docname="link.svg">
  <title
     id="title3367">link</title>
  <defs
     id="defs4">
    <pattern
       y="0"
       x="0"
       height="6"
       width="6"
       patternUnits="userSpaceOnUse"
       id="EMFhbasepattern" />
    <pattern
       y="0"
       x="0"
       height="6"
       width="6"
       patternUnits="userSpaceOnUse"
       id="EMFhbasepattern-2" />
    <pattern
       y="0"
       x="0"
       height="6"
       width="6"
       patternUnits="userSpaceOnUse"
       id="EMFhbasepattern-7" />
    <pattern
       y="0"
       x="0"
       height="6"
       width="6"
       patternUnits="userSpaceOnUse"
       id="EMFhbasepattern-77" />
    <pattern
       y="0"
       x="0"
       height="6"
       width="6"
       patternUnits="userSpaceOnUse"
       id="EMFhbasepattern-1" />
    <pattern
       y="0"
       x="0"
       height="6"
       width="6"
       patternUnits="userSpaceOnUse"
       id="EMFhbasepattern-8" />
    <pattern
       y="0"
       x="0"
       height="6"
       width="6"
       patternUnits="userSpaceOnUse"
       id="EMFhbasepattern-9" />
    <pattern
       y="0"
       x="0"
       height="6"
       width="6"
       patternUnits="userSpaceOnUse"
       id="EMFhbasepattern-22" />
    <pattern
       y="0"
       x="0"
       height="6"
       width="6"
       patternUnits="userSpaceOnUse"
       id="EMFhbasepattern-26" />
    <pattern
       y="0"
       x="0"
       height="6"
       width="6"
       patternUnits="userSpaceOnUse"
       id="EMFhbasepattern-0" />
    <pattern
       y="0"
       x="0"
       height="6"
       width="6"
       patternUnits="userSpaceOnUse"
       id="EMFhbasepattern-3" />
  </defs>
  <sodipodi:namedview
     id="base"
     pagecolor="#ffffff"
     bordercolor="#666666"
     borderopacity="1.0"
     inkscape:pageopacity="0.0"
     inkscape:pageshadow="2"
     inkscape:zoom="0.9475231"
     inkscape:cx="212.51955"
     inkscape:cy="243.56882"
     inkscape:document-units="px"
     inkscape:current-layer="layer1"
     showgrid="true"
     inkscape:snap-bbox="true"
     inkscape:bbox-nodes="true"
     units="px"
     inkscape:window-width="1227"
     inkscape:window-height="1044"
     inkscape:window-x="104"
     inkscape:window-y="104"
     inkscape:window-maximized="0">
    <inkscape:grid
       type="xygrid"
       id="grid3336"
       spacingx="15.999999"
       spacingy="16"
       empspacing="2" />
  </sodipodi:namedview>
  <metadata
     id="metadata7">
    <rdf:RDF>
      <cc:Work
         rdf:about="">
        <dc:format>image/svg+xml</dc:format>
        <dc:type
           rdf:resource="http://purl.org/dc/dcmitype/StillImage" />
        <dc:title>link</dc:title>
      </cc:Work>
    </rdf:RDF>
  </metadata>
  <g
     inkscape:label="Layer 1"
     inkscape:groupmode="layer"
     id="layer1"
     transform="translate(0,-604.36224)">
    <flowRoot
       xml:space="preserve"
       id="flowRoot3338"
       style="font-style:normal;font-weight:normal;font-size:40px;line-height:125%;font-family:sans-serif;letter-spacing:0px;word-spacing:0px;fill:#000000;fill-opacity:1;stroke:none;stroke-width:1px;stroke-linecap:butt;stroke-linejoin:miter;stroke-opacity:1"
       transform="translate(0,698.0315)"><flowRegion
         id="flowRegion3340"><rect
           id="rect3342"
           width="360"
           height="360"
           x="0"
           y="-5.669281" /></flowRegion><flowPara
         id="flowPara3344" /></flowRoot>    <flowRoot
       xml:space="preserve"
       id="flowRoot3371"
       style="font-style:normal;font-weight:normal;font-size:40px;line-height:125%;font-family:sans-serif;letter-spacing:0px;word-spacing:0px;fill:#000000;fill-opacity:1;stroke:none;stroke-width:1px;stroke-linecap:butt;stroke-linejoin:miter;stroke-opacity:1"><flowRegion
         id="flowRegion3373"><rect
           id="rect3375"
           width="85"
           height="85"
           x="5"
           y="5" /></flowRegion><flowPara
         id="flowPara3377" /></flowRoot>    <flowRoot
       xml:space="preserve"
       id="flowRoot3404"
       style="font-style:normal;font-weight:normal;font-size:40px;line-height:125%;font-family:sans-serif;letter-spacing:0px;word-spacing:0px;fill:#000000;fill-opacity:1;stroke:none;stroke-width:1px;stroke-linecap:butt;stroke-linejoin:miter;stroke-opacity:1"><flowRegion
         id="flowRegion3406"><rect
           id="rect3408"
           width="65"
           height="50"
           x="15"
           y="20" /></flowRegion><flowPara
         id="flowPara3410" /></flowRoot>    <flowRoot
       xml:space="preserve"
       id="flowRoot3437"
       style="font-style:normal;font-weight:normal;font-size:40px;line-height:125%;font-family:sans-serif;letter-spacing:0px;word-spacing:0px;fill:#000000;fill-opacity:1;stroke:none;stroke-width:1px;stroke-linecap:butt;stroke-linejoin:miter;stroke-opacity:1"><flowRegion
         id="flowRegion3439"><rect
           id="rect3441"
           width="80"
           height="75"
           x="5"
           y="5" /></flowRegion><flowPara
         id="flowPara3443" /></flowRoot>    <text
       sodipodi:linespacing="125%"
       id="text3481"
       y="1009.7125"
       x="51.231663"
       style="font-style:normal;font-variant:normal;font-weight:400;font-size:13.8125px;line-height:125%;font-family:Calibri;text-align:start;letter-spacing:0px;word-spacing:0px;text-anchor:start;fill:#000000;fill-opacity:1;stroke:none"
       xml:space="preserve"><tspan
         id="tspan3483"
         y="0"
         x="0"
         sodipodi:role="line"><tspan
           id="tspan3485"
           style="font-style:normal;font-variant:normal;font-weight:400;font-size:13.8125px;font-family:Calibri;fill:#000000"
           dy="0"
           dx="0" /></tspan></text>
    <g
       style="font-style:normal;font-variant:normal;font-weight:400;font-size:13.8125px;line-height:125%;font-family:Calibri;text-align:start;letter-spacing:0px;word-spacing:0px;text-anchor:start;fill-opacity:1;stroke:none"
       id="text3666"
       transform="matrix(4.4315883,0,0,4.4657256,-22.157943,-3588.3773)" />
    <path
       style="fill-opacity:1;stroke:none;stroke-width:32;stroke-linecap:round;stroke-miterlimit:4;stroke-dasharray:none;stroke-opacity:1"
       d="m 367.99999,732.36223 c -32.92644,0 -61.06984,19.70144 -73.37109,48 l 37.54687,0 c 8.77739,-9.82666 21.55081,-16 35.82422,-16 l 64,0 c 26.592,0 48,21.408 48,48 l 0,32 c 0,26.592 -21.408,48 -48,48 l -64,0 c -14.27341,0 -27.04683,-6.17334 -35.82422,-16 l -37.54687,0 c 12.30125,28.29856 40.44465,48 73.37109,48 l 64,0 c 44.32,0 80,-35.68 80,-80 l 0,-32 c 0,-44.32 -35.68,-80 -80,-80 l -64,0 z"
       id="rect3369"
       inkscape:connector-curvature="0" />
    <path
       style="fill-opacity:1;stroke:none;stroke-width:32;stroke-linecap:round;stroke-miterlimit:4;stroke-dasharray:none;stroke-opacity:1"
       d="m 79.999984,732.36223 c -44.319996,0 -79.999999258789,35.68 -79.999999258789,80 l 0,32 c 0,44.32 35.680003258789,80 79.999999258789,80 l 64.000006,0 c 32.92644,0 61.06984,-19.70144 73.37109,-48 l -37.54687,0 c -8.77739,9.82666 -21.55081,16 -35.82422,16 l -64.000006,0 c -26.591996,0 -48,-21.408 -48,-48 l 0,-32 c 0,-26.592 21.408004,-48 48,-48 l 64.000006,0 c 14.27341,0 27.04683,6.17334 35.82422,16 l 37.54687,0 c -12.30125,-28.29856 -40.44465,-48 -73.37109,-48 l -64.000006,0 z"
       id="rect3371"
       inkscape:connector-curvature="0" />
    <rect
       style="fill-opacity:1;stroke:none;stroke-width:32;stroke-linecap:round;stroke-miterlimit:4;stroke-dasharray:none;stroke-opacity:1"
       id="rect3378"
       width="256"
       height="64"
       x="127.99998"
       y="796.36224"
       ry="31.999985" />
  </g>
</svg>
