<svg xmlns="http://www.w3.org/2000/svg" viewBox="0 0 448 448" enable-background="new 0 0 448 448"><path d="M113.424 160.503h221.152v176.957c-.004 15.231-7.548 22.08-22.735 22.08h-21.495v62.619c0 14.242-7.869 25.822-22.125 25.813-14.217.024-22.106-11.566-22.106-25.791v-62.641h-44.23v62.641c0 14.238-7.873 25.819-22.13 25.819-14.213 0-22.1-11.573-22.1-25.802v-62.659h-21.397c-15.222 0-22.845-6.811-22.833-22.042v-176.994zm-22.115 30.472v108.055c0 14.275-7.852 25.808-22.109 25.806-14.248.002-22.121-11.522-22.121-25.806v-108.041c0-14.236 7.857-25.806 22.104-25.799 14.25-.01 22.126 11.552 22.126 25.785zm309.612 108.02c0 14.275-7.866 25.804-22.112 25.808-14.257-.007-22.118-11.533-22.118-25.797v-108.044c0-14.249 7.865-25.819 22.111-25.808 14.248-.003 22.12 11.546 22.12 25.794v108.047zm-293.181-160.607h232.405c.006-34.39-17.782-66.03-45.305-85.85l15.66-37.194c2.359-5.604-.296-12.123-5.9-14.482-5.606-2.359-12.122.296-14.482 5.9l-9.971 23.682-5.661 10.341c-15.309-6.808-32.433-10.631-50.555-10.611-18.075-.016-35.195 3.79-50.437 10.562l-5.599-10.192-10.014-23.782c-2.36-5.604-8.876-8.26-14.482-5.9-5.604 2.359-8.26 8.878-5.9 14.482l15.64 37.145c-27.584 19.802-45.414 51.491-45.399 85.899zm171.548-66.346c6.106 0 11.058 4.95 11.058 11.058 0 6.106-4.951 11.058-11.058 11.058s-11.058-4.952-11.058-11.058c0-6.108 4.951-11.058 11.058-11.058zm-110.576 0c6.108 0 11.058 4.95 11.058 11.058 0 6.106-4.95 11.058-11.058 11.058-6.107 0-11.058-4.951-11.058-11.058.001-6.108 4.952-11.058 11.058-11.058z"/></svg>