<?xml version="1.0" encoding="UTF-8" standalone="no"?>
<svg
   xmlns:dc="http://purl.org/dc/elements/1.1/"
   xmlns:cc="http://creativecommons.org/ns#"
   xmlns:rdf="http://www.w3.org/1999/02/22-rdf-syntax-ns#"
   xmlns:svg="http://www.w3.org/2000/svg"
   xmlns="http://www.w3.org/2000/svg"
   xmlns:sodipodi="http://sodipodi.sourceforge.net/DTD/sodipodi-0.dtd"
   xmlns:inkscape="http://www.inkscape.org/namespaces/inkscape"
   width="448"
   height="448"
   id="svg2"
   version="1.1"
   inkscape:version="0.91 r13725"
   sodipodi:docname="logo-android.svg">
  <metadata
     id="metadata33">
    <rdf:RDF>
      <cc:Work
         rdf:about="">
        <dc:format>image/svg+xml</dc:format>
        <dc:type
           rdf:resource="http://purl.org/dc/dcmitype/StillImage" />
        <dc:title>Mercurial</dc:title>
      </cc:Work>
    </rdf:RDF>
  </metadata>
  <sodipodi:namedview
     pagecolor="#ffffff"
     bordercolor="#666666"
     borderopacity="1"
     objecttolerance="10"
     gridtolerance="10"
     guidetolerance="10"
     inkscape:pageopacity="0"
     inkscape:pageshadow="2"
     inkscape:window-width="1452"
     inkscape:window-height="1008"
     id="namedview31"
     showgrid="true"
     inkscape:snap-global="true"
     inkscape:snap-bbox="true"
     inkscape:bbox-nodes="true"
     inkscape:zoom="1.4142136"
     inkscape:cx="375.00311"
     inkscape:cy="238.88126"
     inkscape:window-x="835"
     inkscape:window-y="578"
     inkscape:window-maximized="0"
     inkscape:current-layer="svg2"
     inkscape:object-nodes="true">
    <inkscape:grid
       type="xygrid"
       id="grid4188"
       spacingx="16"
       spacingy="16"
       empspacing="2" />
  </sodipodi:namedview>
  <title
     id="title4">Mercurial</title>
  <defs
     id="defs6">
    <g
       id="hg">
      <path
         d="M 85.685,67.399 C 100.47,42.815 82.562,2.944 49.818,6.995 20.233,10.652 19.757,41.792 45.83,49.189 c 22.563,6.408 4.661,20.72 5.184,30.25 0.526,9.529 19.616,12.986 34.671,-12.04"
         id="path9"
         inkscape:connector-curvature="0" />
      <circle
         cx="31.579"
         cy="70.616997"
         r="12.838"
         id="circle11" />
      <circle
         cx="16.913"
         cy="43.476002"
         r="8.3999996"
         id="circle13" />
    </g>
  </defs>
  <rect
     style="fill-opacity:1;stroke:none;stroke-width:64;stroke-miterlimit:4;stroke-dasharray:none;stroke-opacity:1"
     id="rect3339"
     width="64"
     height="176"
     x="384"
     y="160"
     ry="29.333334" />
  <rect
     ry="29.333334"
     y="160"
     x="0"
     height="176"
     width="64"
     id="rect3341"
     style="fill-opacity:1;stroke:none;stroke-width:64;stroke-miterlimit:4;stroke-dasharray:none;stroke-opacity:1" />
  <path
     style="fill-opacity:1;stroke:none;stroke-width:64;stroke-miterlimit:4;stroke-dasharray:none;stroke-opacity:1"
     d="M 96 160 L 96 192 L 96 240 L 96 320 C 96 337.728 110.272 352 128 352 L 128 416 C 128 433.728 142.272 448 160 448 C 177.728 448 192 433.728 192 416 L 192 352 L 256 352 L 256 416 C 256 433.728 270.272 448 288 448 C 305.728 448 320 433.728 320 416 L 320 352 C 337.728 352 352 337.728 352 320 L 352 240 L 352 192 L 352 160 L 320 160 L 128 160 L 96 160 z "
     id="rect3343" />
  <path
     style="fill-opacity:1;stroke:none;stroke-width:32;stroke-linecap:round;stroke-miterlimit:4;stroke-dasharray:none;stroke-opacity:1"
     d="M 324.44336 -0.1328125 A 12.0012 12.0012 0 0 0 314.40039 4.8007812 L 292.81445 33.582031 A 128 112 0 0 0 224 16 A 128 112 0 0 0 155.25195 33.669922 L 133.59961 4.8007812 A 12.0012 12.0012 0 0 0 124.39453 -0.12695312 A 12.0012 12.0012 0 0 0 114.40039 19.199219 L 135.4668 47.287109 A 128 112 0 0 0 96 128 L 352 128 A 128 112 0 0 0 312.59375 47.207031 L 333.59961 19.199219 A 12.0012 12.0012 0 0 0 324.44336 -0.1328125 z M 176 64 A 16 16 0 0 1 192 80 A 16 16 0 0 1 176 96 A 16 16 0 0 1 160 80 A 16 16 0 0 1 176 64 z M 272 64 A 16 16 0 0 1 288 80 A 16 16 0 0 1 272 96 A 16 16 0 0 1 256 80 A 16 16 0 0 1 272 64 z "
     id="path4179" />
</svg>
