<svg xmlns="http://www.w3.org/2000/svg" viewBox="0 0 448 448" enable-background="new 0 0 448 448"><path d="M448 229.55c0 98.941-64.131 182.829-153.059 212.509-11.357 2.195-15.411-4.771-15.411-10.775 0-7.347.269-31.494.269-61.443 0-20.899-7.168-34.563-15.21-41.485 49.907-5.555 102.279-24.483 102.279-110.544 0-24.461-8.669-44.442-23.027-60.099 2.307-5.667 9.99-28.448-2.24-59.271 0 0-18.771-6.025-61.533 22.96-17.898-4.973-37.05-7.459-56.09-7.549-19.04.09-38.214 2.576-56.09 7.549-42.784-28.986-61.6-22.96-61.6-22.96-12.141 30.822-4.458 53.603-2.15 59.271-14.337 15.658-23.05 35.639-23.05 60.1 0 85.837 52.282 105.056 102.032 110.701-6.407 5.6-12.186 15.479-14.224 29.949-12.768 5.735-45.203 15.613-65.184-18.614 0 0-11.827-21.504-34.317-23.094 0 0-21.885-.269-1.546 13.619 0 0 14.694 6.899 24.864 32.771 0 0 13.149 43.568 75.466 30.016l.313 38.102c0 5.936-4.077 12.858-15.299 10.797-89.017-29.614-153.193-113.569-153.193-212.511 0-123.738 100.307-224.022 223.978-224.022 123.714 0 224.022 100.286 224.022 224.023z"/></svg>