<svg xmlns="http://www.w3.org/2000/svg" viewBox="0 0 448 448" enable-background="new 0 0 448 448"><path d="M444.156 224c0 123.5-100.5 224-224.016 224-100.265 0-188.968-67.562-215.702-164.281l30.844-8.5c22.906 82.875 98.921 140.781 184.859 140.781 105.891 0 192.016-86.125 192.016-192s-86.126-192-192.016-192c-69.068 0-131.779 37.563-165.668 96h73.527v32h-128v-128h32v72.01c40.523-63.469 110.799-104.01 188.141-104.01 123.515 0 224.015 100.484 224.015 224zm-144.312 85.25l-75.844-83.437v-129.813h-32v142.188l84.156 92.563 23.688-21.501z"/></svg>