<svg xmlns="http://www.w3.org/2000/svg" viewBox="0 0 448 448" enable-background="new 0 0 448 448"><path d="M324.6 96c20.619-31.512 8.643-56.471.744-67.297-7.969-10.938-21.5-18.469-37.094-20.672-17.375-2.453-35.094 1.984-48.375 12.266-11.705 9.066-23.109 29.865-31.877 49.051-8.771-19.188-20.184-39.99-31.904-49.066-13.688-10.594-32.594-15.094-50.563-12.188-15.219 2.531-28.094 10.281-35.344 21.266-5.667 8.648-18.33 34.687 1.749 66.64h-91.936v352h416v-352h-91.4zm-65.131-50.406c6.469-4.984 15.156-7.109 24.313-5.891 6.875.984 12.906 4 15.719 7.859 9.906 13.563 4.156 29.844-17.063 48.438h-51.156c9.499-22.828 20.937-44.781 28.187-50.406zm-142.531 1.344c2.25-3.438 7.563-6.234 13.844-7.281 9.5-1.484 18.969.703 25.719 5.922 7.281 5.625 18.719 27.594 28.219 50.422h-51.125c-14.97-13.267-28.189-31.517-16.657-49.063zm75.062 369.062h-160v-128h160v128zm0-160h-160v-128h160v128zm192 160h-160v-128h160v128zm0-160h-160v-128h160v128z"/></svg>