<svg xmlns="http://www.w3.org/2000/svg" viewBox="0 0 448 448" enable-background="new 0 0 448 448"><path d="M289.839 4.438l-11.313 11.313c-18.103 18.102-26.04 43.781-21.78 68.875l-81.359 81.359c-17.185-5.495-35.415-6.714-53.328-3.502-22.17 3.975-42.332 14.52-58.306 30.494l-11.314 11.314 83.501 83.501-129.065 129.521-6.875 30.687 31.969-7.656 128.268-128.254 83.471 83.471 11.313-11.313c15.975-15.974 26.52-36.136 30.494-58.306 3.212-17.914 1.991-36.145-3.503-53.329l81.36-81.36c25.1 4.26 50.775-3.678 68.875-21.779l11.313-11.313-153.721-153.723zm73.078 153.909l-9.15-2.741-109.348 109.347 4.326 9.982c10.734 24.774 8.117 52.458-6.189 74.22l-143.711-143.711c21.761-14.304 49.448-16.924 74.22-6.189l9.982 4.325 109.348-109.347-2.741-9.15c-3.383-11.296-2.466-23.134 2.22-33.355l104.399 104.399c-10.223 4.686-22.061 5.602-33.356 2.22z"/></svg>