<?xml version="1.0" encoding="UTF-8" standalone="no"?>
<!-- Generated by IcoMoon.io -->

<svg
   xmlns:dc="http://purl.org/dc/elements/1.1/"
   xmlns:cc="http://creativecommons.org/ns#"
   xmlns:rdf="http://www.w3.org/1999/02/22-rdf-syntax-ns#"
   xmlns:svg="http://www.w3.org/2000/svg"
   xmlns="http://www.w3.org/2000/svg"
   xmlns:sodipodi="http://sodipodi.sourceforge.net/DTD/sodipodi-0.dtd"
   xmlns:inkscape="http://www.inkscape.org/namespaces/inkscape"
   version="1.1"
   width="320"
   height="448"
   viewBox="0 0 320 448"
   id="svg2"
   inkscape:version="0.91 r13725"
   sodipodi:docname="policy.svg">
  <title
     id="title3342">policy</title>
  <metadata
     id="metadata199">
    <rdf:RDF>
      <cc:Work
         rdf:about="">
        <dc:format>image/svg+xml</dc:format>
        <dc:type
           rdf:resource="http://purl.org/dc/dcmitype/StillImage" />
        <dc:title>policy</dc:title>
      </cc:Work>
    </rdf:RDF>
  </metadata>
  <defs
     id="defs197" />
  <sodipodi:namedview
     pagecolor="#ffffff"
     bordercolor="#666666"
     borderopacity="1"
     objecttolerance="10"
     gridtolerance="10"
     guidetolerance="10"
     inkscape:pageopacity="0"
     inkscape:pageshadow="2"
     inkscape:window-width="1200"
     inkscape:window-height="923"
     id="namedview195"
     showgrid="true"
     inkscape:zoom="1.2291667"
     inkscape:cx="293.47002"
     inkscape:cy="253.19947"
     inkscape:window-x="505"
     inkscape:window-y="611"
     inkscape:window-maximized="0"
     inkscape:current-layer="svg2"
     inkscape:snap-bbox="true"
     inkscape:bbox-nodes="true">
    <inkscape:grid
       type="xygrid"
       id="grid4169"
       spacingx="16"
       spacingy="16"
       empspacing="2" />
  </sodipodi:namedview>
  <path
     style="fill-opacity:1;stroke:none;stroke-width:64;stroke-miterlimit:4;stroke-dasharray:none;stroke-opacity:1"
     d="M 128 0 A 128 128 0 0 0 0 128 A 128 128 0 0 0 78.601562 246.06055 L 32 448 L 128 352 L 224 448 L 177.375 245.96094 A 128 128 0 0 0 256 128 A 128 128 0 0 0 128 0 z M 128 64 A 64 64 0 0 1 192 128 A 64 64 0 0 1 128 192 A 64 64 0 0 1 64 128 A 64 64 0 0 1 128 64 z "
     id="path3334" />
</svg>
