<svg xmlns="http://www.w3.org/2000/svg" viewBox="0 0 448 448" enable-background="new 0 0 448 448"><path d="M336 112c0-61.757-50.243-112-112-112s-112 50.243-112 112c0 42.695 24.017 79.882 59.247 98.773l-53.184 230.467 105.937-84.75 105.938 84.75-53.185-230.467c35.23-18.891 59.247-56.078 59.247-98.773zm-192 0c0-44.112 35.888-80 80-80s80 35.888 80 80-35.888 80-80 80-80-35.888-80-80zm134.063 246.76l-54.063-43.25-54.063 43.25 31.62-137.02c7.253 1.481 14.759 2.26 22.443 2.26 7.684 0 15.19-.779 22.443-2.26l31.62 137.02z"/></svg>