<svg xmlns="http://www.w3.org/2000/svg" viewBox="0 0 448 448" enable-background="new 0 0 448 448"><path d="M160.424 448h-66.057c5.959-9.377 9.535-20.289 10.326-32h32.084c4.602 12.896 12.854 23.965 23.647 32zm287.576-448v128h-32v320h-174.123c10.789-8.035 19.033-19.104 23.631-32h118.492v-288h-320v32.926c-11.215.988-22.064 3.252-32 7.496v-40.422h-32v-128h448zm-32 32h-384v64h384v-64zm-178.286 361.143c0 20.214-16.359 36.571-36.571 36.571s-36.571-16.357-36.571-36.571c0-6.786 1.964-13.036 5.179-18.464l-51.964-51.964c-12.395 9.607-27.75 15.571-44.643 15.571-2.967 0-5.786-.536-8.643-.893l-10.498 42.071c11.355 6.179 19.141 18.107 19.141 31.964 0 20.214-16.359 36.571-36.571 36.571s-36.573-16.356-36.573-36.57c0-20.107 16.217-36.393 36.286-36.536l10.426-41.75c-27.281-10.607-46.712-36.964-46.712-68 0-40.393 32.75-73.143 73.143-73.143 31.033 0 57.429 19.426 68.038 46.712l41.712-10.426c.143-20.072 16.428-36.286 36.536-36.286 20.212 0 36.571 16.357 36.571 36.571 0 20.179-16.359 36.571-36.571 36.571-13.857 0-25.786-7.786-31.964-19.179l-42.034 10.537c.321 2.857.855 5.676.855 8.643 0 16.893-5.964 32.25-15.571 44.643l51.964 51.964c5.431-3.214 11.681-5.179 18.464-5.179 20.212 0 36.571 16.358 36.571 36.572zm-128-128c0-20.214-16.359-36.571-36.571-36.571s-36.571 16.357-36.571 36.571 16.359 36.571 36.571 36.571 36.571-16.357 36.571-36.571z"/></svg>