<svg xmlns="http://www.w3.org/2000/svg" viewBox="0 0 448 448" enable-background="new 0 0 448 448"><path d="M313.959 302.916l-139.06 139.076c-8.064 8.009-21.106 8.009-29.136 0l-139.723-139.714c-8.054-8.054-8.054-21.119 0-29.174l95.787-95.797 36.284 36.288c-3.714 8.914-1.969 19.564 5.279 26.801 2.371 2.394 1.689 1.296 4.619 2.494v88.583c-2.651 1.074-4.038 2.886-6.029 4.944-5.268 4.676-8.646 11.433-8.646 19.04 0 14.137 11.464 25.593 25.591 25.593 1.823 0 3.613-.201 5.335-.56 5.044-.739 9.91-2.974 13.791-6.846 8.534-8.524 9.406-21.767 2.718-31.344-2.249-3.714-5.402-6.8-9.183-8.948v-86.065l33.074 33.066c-3.669 8.882-1.879 19.475 5.325 26.679 9.573 9.586 25.099 9.586 34.718 0 9.575-9.575 9.575-25.101 0-34.677-6.891-6.869-16.777-8.77-25.367-5.817l-35.479-35.469c2.998-8.579 1.074-18.481-5.805-25.349-6.8-6.811-16.609-8.746-25.155-5.86l-36.821-36.804 29.014-29.017c8.053-8.052 21.117-8.052 29.136 0l139.731 139.715c8.057 8.054 8.057 21.107.002 29.162zm-313.959 49.084v64h64l-64-64zm261.969-256l-63.344-64h-198.625v192l32-32v-64h64l32-32h-96v-32h153.375l31.344 32h-24.719l32 32h192v256h-128l-32 32h192v-320h-186.031z"/></svg>