<?xml version="1.0" encoding="UTF-8" standalone="no"?>
<!-- Created with Inkscape (http://www.inkscape.org/) -->

<svg
   xmlns:dc="http://purl.org/dc/elements/1.1/"
   xmlns:cc="http://creativecommons.org/ns#"
   xmlns:rdf="http://www.w3.org/1999/02/22-rdf-syntax-ns#"
   xmlns:svg="http://www.w3.org/2000/svg"
   xmlns="http://www.w3.org/2000/svg"
   xmlns:sodipodi="http://sodipodi.sourceforge.net/DTD/sodipodi-0.dtd"
   xmlns:inkscape="http://www.inkscape.org/namespaces/inkscape"
   width="512"
   height="448"
   viewBox="0 0 512 448"
   id="svg2"
   version="1.1"
   inkscape:version="0.91 r13725"
   sodipodi:docname="repository-submodule.svg">
  <title
     id="title3376">repository-submodule</title>
  <defs
     id="defs4">
    <pattern
       y="0"
       x="0"
       height="6"
       width="6"
       patternUnits="userSpaceOnUse"
       id="EMFhbasepattern" />
    <pattern
       y="0"
       x="0"
       height="6"
       width="6"
       patternUnits="userSpaceOnUse"
       id="EMFhbasepattern-2" />
    <pattern
       y="0"
       x="0"
       height="6"
       width="6"
       patternUnits="userSpaceOnUse"
       id="EMFhbasepattern-7" />
    <pattern
       y="0"
       x="0"
       height="6"
       width="6"
       patternUnits="userSpaceOnUse"
       id="EMFhbasepattern-77" />
    <pattern
       y="0"
       x="0"
       height="6"
       width="6"
       patternUnits="userSpaceOnUse"
       id="EMFhbasepattern-1" />
    <pattern
       y="0"
       x="0"
       height="6"
       width="6"
       patternUnits="userSpaceOnUse"
       id="EMFhbasepattern-8" />
    <pattern
       y="0"
       x="0"
       height="6"
       width="6"
       patternUnits="userSpaceOnUse"
       id="EMFhbasepattern-9" />
    <pattern
       y="0"
       x="0"
       height="6"
       width="6"
       patternUnits="userSpaceOnUse"
       id="EMFhbasepattern-22" />
    <pattern
       y="0"
       x="0"
       height="6"
       width="6"
       patternUnits="userSpaceOnUse"
       id="EMFhbasepattern-26" />
    <pattern
       y="0"
       x="0"
       height="6"
       width="6"
       patternUnits="userSpaceOnUse"
       id="EMFhbasepattern-0" />
    <pattern
       y="0"
       x="0"
       height="6"
       width="6"
       patternUnits="userSpaceOnUse"
       id="EMFhbasepattern-3" />
    <pattern
       y="0"
       x="0"
       height="6"
       width="6"
       patternUnits="userSpaceOnUse"
       id="EMFhbasepattern-75" />
    <pattern
       y="0"
       x="0"
       height="6"
       width="6"
       patternUnits="userSpaceOnUse"
       id="EMFhbasepattern-4" />
    <pattern
       y="0"
       x="0"
       height="6"
       width="6"
       patternUnits="userSpaceOnUse"
       id="EMFhbasepattern-78" />
    <pattern
       y="0"
       x="0"
       height="6"
       width="6"
       patternUnits="userSpaceOnUse"
       id="EMFhbasepattern-6" />
    <pattern
       y="0"
       x="0"
       height="6"
       width="6"
       patternUnits="userSpaceOnUse"
       id="EMFhbasepattern-5" />
    <pattern
       y="0"
       x="0"
       height="6"
       width="6"
       patternUnits="userSpaceOnUse"
       id="EMFhbasepattern-62" />
  </defs>
  <sodipodi:namedview
     id="base"
     pagecolor="#ffffff"
     bordercolor="#666666"
     borderopacity="1.0"
     inkscape:pageopacity="0.0"
     inkscape:pageshadow="2"
     inkscape:zoom="1"
     inkscape:cx="370.6211"
     inkscape:cy="266.5804"
     inkscape:document-units="px"
     inkscape:current-layer="layer1"
     showgrid="true"
     inkscape:snap-bbox="true"
     inkscape:bbox-nodes="true"
     units="px"
     inkscape:window-width="1148"
     inkscape:window-height="866"
     inkscape:window-x="156"
     inkscape:window-y="156"
     inkscape:window-maximized="0"
     inkscape:snap-nodes="false"
     inkscape:snap-intersection-paths="true"
     inkscape:object-nodes="true"
     inkscape:snap-global="true"
     inkscape:snap-others="false"
     inkscape:snap-grids="true"
     inkscape:object-paths="true">
    <inkscape:grid
       type="xygrid"
       id="grid3336"
       spacingx="16"
       spacingy="16"
       empspacing="2" />
  </sodipodi:namedview>
  <metadata
     id="metadata7">
    <rdf:RDF>
      <cc:Work
         rdf:about="">
        <dc:format>image/svg+xml</dc:format>
        <dc:type
           rdf:resource="http://purl.org/dc/dcmitype/StillImage" />
        <dc:title>repository-submodule</dc:title>
      </cc:Work>
    </rdf:RDF>
  </metadata>
  <g
     inkscape:label="Layer 1"
     inkscape:groupmode="layer"
     id="layer1"
     transform="translate(0,-604.3622)">
    <flowRoot
       xml:space="preserve"
       id="flowRoot3338"
       style="font-style:normal;font-weight:normal;font-size:40px;line-height:125%;font-family:sans-serif;letter-spacing:0px;word-spacing:0px;fill:#000000;fill-opacity:1;stroke:none;stroke-width:1px;stroke-linecap:butt;stroke-linejoin:miter;stroke-opacity:1"
       transform="translate(0,698.0315)"><flowRegion
         id="flowRegion3340"><rect
           id="rect3342"
           width="360"
           height="360"
           x="0"
           y="-5.669281" /></flowRegion><flowPara
         id="flowPara3344" /></flowRoot>    <flowRoot
       xml:space="preserve"
       id="flowRoot3371"
       style="font-style:normal;font-weight:normal;font-size:40px;line-height:125%;font-family:sans-serif;letter-spacing:0px;word-spacing:0px;fill:#000000;fill-opacity:1;stroke:none;stroke-width:1px;stroke-linecap:butt;stroke-linejoin:miter;stroke-opacity:1"><flowRegion
         id="flowRegion3373"><rect
           id="rect3375"
           width="85"
           height="85"
           x="5"
           y="5" /></flowRegion><flowPara
         id="flowPara3377" /></flowRoot>    <flowRoot
       xml:space="preserve"
       id="flowRoot3404"
       style="font-style:normal;font-weight:normal;font-size:40px;line-height:125%;font-family:sans-serif;letter-spacing:0px;word-spacing:0px;fill:#000000;fill-opacity:1;stroke:none;stroke-width:1px;stroke-linecap:butt;stroke-linejoin:miter;stroke-opacity:1"><flowRegion
         id="flowRegion3406"><rect
           id="rect3408"
           width="65"
           height="50"
           x="15"
           y="20" /></flowRegion><flowPara
         id="flowPara3410" /></flowRoot>    <flowRoot
       xml:space="preserve"
       id="flowRoot3437"
       style="font-style:normal;font-weight:normal;font-size:40px;line-height:125%;font-family:sans-serif;letter-spacing:0px;word-spacing:0px;fill:#000000;fill-opacity:1;stroke:none;stroke-width:1px;stroke-linecap:butt;stroke-linejoin:miter;stroke-opacity:1"><flowRegion
         id="flowRegion3439"><rect
           id="rect3441"
           width="80"
           height="75"
           x="5"
           y="5" /></flowRegion><flowPara
         id="flowPara3443" /></flowRoot>    <text
       sodipodi:linespacing="125%"
       id="text3481"
       y="1009.7125"
       x="51.231663"
       style="font-style:normal;font-variant:normal;font-weight:400;font-size:13.8125px;line-height:125%;font-family:Calibri;text-align:start;letter-spacing:0px;word-spacing:0px;text-anchor:start;fill:#000000;fill-opacity:1;stroke:none"
       xml:space="preserve"><tspan
         id="tspan3483"
         y="0"
         x="0"
         sodipodi:role="line"><tspan
           id="tspan3485"
           style="font-style:normal;font-variant:normal;font-weight:400;font-size:13.8125px;font-family:Calibri;fill:#000000"
           dy="0"
           dx="0" /></tspan></text>
    <text
       sodipodi:linespacing="125%"
       id="text3698"
       y="1080.1998"
       x="82.929802"
       style="font-style:normal;font-variant:normal;font-weight:400;font-size:13.8125px;line-height:125%;font-family:Calibri;text-align:start;letter-spacing:0px;word-spacing:0px;text-anchor:start;fill:#000000;fill-opacity:1;stroke:none"
       xml:space="preserve"><tspan
         id="tspan3700"
         y="0"
         x="0"
         sodipodi:role="line"><tspan
           id="tspan3702"
           style="font-style:normal;font-variant:normal;font-weight:400;font-size:13.8125px;font-family:Calibri;fill:#000000"
           dy="0"
           dx="0" /></tspan></text>
    <g
       style="font-style:normal;font-variant:normal;font-weight:400;font-size:13.8125px;line-height:125%;font-family:Calibri;text-align:start;letter-spacing:0px;word-spacing:0px;text-anchor:start;fill-opacity:1;stroke:none"
       id="text3857"
       transform="matrix(6.2024072,0,0,6.1301787,124.04814,-5115.0829)" />
    <path
       style="fill-opacity:1"
       d="M 98.937501,604.36297 C 79.597548,604.36297 64,619.96052 64,639.30047 l 0,29.0625 0,103.1875 72.8125,-72.81249 c 9.37524,-9.37525 24.43726,-9.37525 33.8125,0 l 184.06249,184.06249 c 9.37526,9.37524 9.37526,24.43725 0,33.81248 l -71.74999,71.75002 229.0625,0 0,-320 -224,0 0,-29.0625 c 0,-19.33995 -15.59755,-34.9375 -34.9375,-34.9375 l -154.124999,0 z"
       id="rect3518"
       inkscape:connector-curvature="0" />
    <path
       style="fill-opacity:1;stroke:none;stroke-width:32;stroke-linecap:round;stroke-miterlimit:4;stroke-dasharray:none;stroke-opacity:1"
       d="m 152.00061,748.3622 c -4.09587,0 -8.19133,1.56872 -11.32979,4.70719 l -24.63778,24.63778 27.59654,27.59512 a 26.307708,26.307708 0 0 1 8.37103,-1.40159 26.307708,26.307708 0 0 1 26.3077,26.30771 26.307708,26.307708 0 0 1 -1.39445,8.37816 l 36.86961,36.86962 a 26.307708,26.307708 0 0 1 8.37103,-1.4016 26.307708,26.307708 0 0 1 26.30771,26.30771 26.307708,26.307708 0 0 1 -26.30771,26.30771 26.307708,26.307708 0 0 1 -26.30771,-26.30771 26.307708,26.307708 0 0 1 1.39445,-8.37673 l -33.54832,-33.54832 0,88.5473 a 26.307708,26.307708 0 0 1 14.61539,23.53164 26.307708,26.307708 0 0 1 -26.3077,26.30771 26.307708,26.307708 0 0 1 -26.30771,-26.30771 26.307708,26.307708 0 0 1 14.61539,-23.55447 l 0,-93.22167 a 26.307708,26.307708 0 0 1 -14.61539,-23.53164 26.307708,26.307708 0 0 1 1.39446,-8.37674 L 99.497944,794.24226 4.7076932,889.03251 c -6.2769243,6.27693 -6.2769243,16.38264 0,22.65958 L 140.67082,1047.6553 c 6.27693,6.2768 16.38264,6.2768 22.65957,0 L 299.29352,911.69209 c 6.27693,-6.27694 6.27693,-16.38265 0,-22.65958 L 163.33039,753.06939 c -3.13846,-3.13847 -7.23392,-4.70719 -11.32978,-4.70719 z"
       id="rect3404"
       inkscape:connector-curvature="0" />
  </g>
</svg>
