<svg xmlns="http://www.w3.org/2000/svg" viewBox="0 0 448 448" enable-background="new 0 0 448 448"><path d="M313.959 302.918l-139.059 139.075c-8.064 8.01-21.107 8.01-29.136 0l-139.722-139.712c-8.054-8.054-8.054-21.12 0-29.174l95.786-95.798 36.285 36.288c-3.715 8.915-1.971 19.565 5.277 26.803 2.371 2.394 1.69 1.296 4.621 2.493v88.582c-2.653 1.075-4.038 2.886-6.029 4.944-5.267 4.675-8.646 11.434-8.646 19.04 0 14.138 11.462 25.594 25.59 25.594 1.824 0 3.613-.202 5.334-.56 5.046-.739 9.91-2.973 13.792-6.845 8.534-8.525 9.405-21.77 2.717-31.344-2.247-3.715-5.402-6.8-9.181-8.95v-86.064l33.072 33.066c-3.667 8.883-1.878 19.475 5.325 26.678 9.574 9.587 25.101 9.587 34.72 0 9.574-9.574 9.574-25.101 0-34.675-6.893-6.87-16.778-8.771-25.367-5.818l-35.482-35.469c2.998-8.579 1.075-18.48-5.805-25.35-6.8-6.81-16.608-8.746-25.155-5.859l-36.819-36.803 29.014-29.018c8.051-8.051 21.117-8.051 29.136 0l139.731 139.715c8.056 8.053 8.056 21.106.001 29.161zm-281.959 81.082v64h64l-64-64zm-32-384v128h32v64l32-32v-32h32l32-32h-96v-64h384v64h-224l32 32h160v288h-128l-32 32h192v-320h32v-128h-448z"/></svg>