<svg xmlns="http://www.w3.org/2000/svg" viewBox="0 0 448 448" enable-background="new 0 0 448 448"><path d="M293.344 0c-85.281 0-154.672 69.391-154.672 154.672 0 36.863 13.502 70.301 35.111 96.904l-169.095 169.112c-6.25 6.25-6.25 16.375 0 22.625 3.125 3.125 7.218 4.687 11.312 4.687s8.188-1.563 11.313-4.688l169.092-169.107c26.609 21.627 60.061 35.139 96.939 35.139 85.281 0 154.656-69.391 154.656-154.672s-69.375-154.672-154.656-154.672zm0 277.344c-67.641 0-122.672-55.031-122.672-122.672s55.031-122.672 122.672-122.672c67.625 0 122.656 55.031 122.656 122.672s-55.031 122.672-122.656 122.672z"/></svg>