<?xml version="1.0" encoding="UTF-8" standalone="no"?>
<!-- Created with Inkscape (http://www.inkscape.org/) -->

<svg
   xmlns:dc="http://purl.org/dc/elements/1.1/"
   xmlns:cc="http://creativecommons.org/ns#"
   xmlns:rdf="http://www.w3.org/1999/02/22-rdf-syntax-ns#"
   xmlns:svg="http://www.w3.org/2000/svg"
   xmlns="http://www.w3.org/2000/svg"
   xmlns:sodipodi="http://sodipodi.sourceforge.net/DTD/sodipodi-0.dtd"
   xmlns:inkscape="http://www.inkscape.org/namespaces/inkscape"
   width="448"
   height="448"
   viewBox="0 0 448 448"
   id="svg2"
   version="1.1"
   inkscape:version="0.91 r13725"
   sodipodi:docname="search.svg">
  <title
     id="title3385">search</title>
  <defs
     id="defs4">
    <pattern
       y="0"
       x="0"
       height="6"
       width="6"
       patternUnits="userSpaceOnUse"
       id="EMFhbasepattern" />
    <pattern
       y="0"
       x="0"
       height="6"
       width="6"
       patternUnits="userSpaceOnUse"
       id="EMFhbasepattern-2" />
    <pattern
       y="0"
       x="0"
       height="6"
       width="6"
       patternUnits="userSpaceOnUse"
       id="EMFhbasepattern-7" />
    <pattern
       y="0"
       x="0"
       height="6"
       width="6"
       patternUnits="userSpaceOnUse"
       id="EMFhbasepattern-77" />
    <pattern
       y="0"
       x="0"
       height="6"
       width="6"
       patternUnits="userSpaceOnUse"
       id="EMFhbasepattern-1" />
    <pattern
       y="0"
       x="0"
       height="6"
       width="6"
       patternUnits="userSpaceOnUse"
       id="EMFhbasepattern-8" />
    <pattern
       y="0"
       x="0"
       height="6"
       width="6"
       patternUnits="userSpaceOnUse"
       id="EMFhbasepattern-9" />
    <pattern
       y="0"
       x="0"
       height="6"
       width="6"
       patternUnits="userSpaceOnUse"
       id="EMFhbasepattern-22" />
    <pattern
       y="0"
       x="0"
       height="6"
       width="6"
       patternUnits="userSpaceOnUse"
       id="EMFhbasepattern-26" />
    <pattern
       y="0"
       x="0"
       height="6"
       width="6"
       patternUnits="userSpaceOnUse"
       id="EMFhbasepattern-0" />
    <pattern
       y="0"
       x="0"
       height="6"
       width="6"
       patternUnits="userSpaceOnUse"
       id="EMFhbasepattern-3" />
    <pattern
       y="0"
       x="0"
       height="6"
       width="6"
       patternUnits="userSpaceOnUse"
       id="EMFhbasepattern-75" />
    <pattern
       y="0"
       x="0"
       height="6"
       width="6"
       patternUnits="userSpaceOnUse"
       id="EMFhbasepattern-4" />
    <pattern
       y="0"
       x="0"
       height="6"
       width="6"
       patternUnits="userSpaceOnUse"
       id="EMFhbasepattern-78" />
    <pattern
       y="0"
       x="0"
       height="6"
       width="6"
       patternUnits="userSpaceOnUse"
       id="EMFhbasepattern-6" />
    <pattern
       y="0"
       x="0"
       height="6"
       width="6"
       patternUnits="userSpaceOnUse"
       id="EMFhbasepattern-5" />
    <pattern
       y="0"
       x="0"
       height="6"
       width="6"
       patternUnits="userSpaceOnUse"
       id="EMFhbasepattern-62" />
    <pattern
       y="0"
       x="0"
       height="6"
       width="6"
       patternUnits="userSpaceOnUse"
       id="EMFhbasepattern-58" />
    <pattern
       y="0"
       x="0"
       height="6"
       width="6"
       patternUnits="userSpaceOnUse"
       id="EMFhbasepattern-52" />
    <pattern
       y="0"
       x="0"
       height="6"
       width="6"
       patternUnits="userSpaceOnUse"
       id="EMFhbasepattern-85" />
    <pattern
       y="0"
       x="0"
       height="6"
       width="6"
       patternUnits="userSpaceOnUse"
       id="EMFhbasepattern-83" />
  </defs>
  <sodipodi:namedview
     id="base"
     pagecolor="#ffffff"
     bordercolor="#666666"
     borderopacity="1.0"
     inkscape:pageopacity="0.0"
     inkscape:pageshadow="2"
     inkscape:zoom="1"
     inkscape:cx="254.83326"
     inkscape:cy="194.20943"
     inkscape:document-units="px"
     inkscape:current-layer="layer1"
     showgrid="true"
     inkscape:snap-bbox="true"
     inkscape:bbox-nodes="true"
     units="px"
     inkscape:window-width="1004"
     inkscape:window-height="823"
     inkscape:window-x="286"
     inkscape:window-y="286"
     inkscape:window-maximized="0">
    <inkscape:grid
       type="xygrid"
       id="grid3336"
       empspacing="2"
       spacingx="16"
       spacingy="16" />
  </sodipodi:namedview>
  <metadata
     id="metadata7">
    <rdf:RDF>
      <cc:Work
         rdf:about="">
        <dc:format>image/svg+xml</dc:format>
        <dc:type
           rdf:resource="http://purl.org/dc/dcmitype/StillImage" />
        <dc:title>search</dc:title>
      </cc:Work>
    </rdf:RDF>
  </metadata>
  <g
     inkscape:label="Layer 1"
     inkscape:groupmode="layer"
     id="layer1"
     transform="translate(0,-604.3622)">
    <flowRoot
       xml:space="preserve"
       id="flowRoot3338"
       style="font-style:normal;font-weight:normal;font-size:40px;line-height:125%;font-family:sans-serif;letter-spacing:0px;word-spacing:0px;fill:#000000;fill-opacity:1;stroke:none;stroke-width:1px;stroke-linecap:butt;stroke-linejoin:miter;stroke-opacity:1"
       transform="translate(0,698.0315)"><flowRegion
         id="flowRegion3340"><rect
           id="rect3342"
           width="360"
           height="360"
           x="0"
           y="-5.669281" /></flowRegion><flowPara
         id="flowPara3344" /></flowRoot>    <flowRoot
       xml:space="preserve"
       id="flowRoot3371"
       style="font-style:normal;font-weight:normal;font-size:40px;line-height:125%;font-family:sans-serif;letter-spacing:0px;word-spacing:0px;fill:#000000;fill-opacity:1;stroke:none;stroke-width:1px;stroke-linecap:butt;stroke-linejoin:miter;stroke-opacity:1"><flowRegion
         id="flowRegion3373"><rect
           id="rect3375"
           width="85"
           height="85"
           x="5"
           y="5" /></flowRegion><flowPara
         id="flowPara3377" /></flowRoot>    <flowRoot
       xml:space="preserve"
       id="flowRoot3404"
       style="font-style:normal;font-weight:normal;font-size:40px;line-height:125%;font-family:sans-serif;letter-spacing:0px;word-spacing:0px;fill:#000000;fill-opacity:1;stroke:none;stroke-width:1px;stroke-linecap:butt;stroke-linejoin:miter;stroke-opacity:1"><flowRegion
         id="flowRegion3406"><rect
           id="rect3408"
           width="65"
           height="50"
           x="15"
           y="20" /></flowRegion><flowPara
         id="flowPara3410" /></flowRoot>    <flowRoot
       xml:space="preserve"
       id="flowRoot3437"
       style="font-style:normal;font-weight:normal;font-size:40px;line-height:125%;font-family:sans-serif;letter-spacing:0px;word-spacing:0px;fill:#000000;fill-opacity:1;stroke:none;stroke-width:1px;stroke-linecap:butt;stroke-linejoin:miter;stroke-opacity:1"><flowRegion
         id="flowRegion3439"><rect
           id="rect3441"
           width="80"
           height="75"
           x="5"
           y="5" /></flowRegion><flowPara
         id="flowPara3443" /></flowRoot>    <text
       sodipodi:linespacing="125%"
       id="text3481"
       y="1009.7125"
       x="51.231663"
       style="font-style:normal;font-variant:normal;font-weight:400;font-size:13.8125px;line-height:125%;font-family:Calibri;text-align:start;letter-spacing:0px;word-spacing:0px;text-anchor:start;fill:#000000;fill-opacity:1;stroke:none"
       xml:space="preserve"><tspan
         id="tspan3483"
         y="0"
         x="0"
         sodipodi:role="line"><tspan
           id="tspan3485"
           style="font-style:normal;font-variant:normal;font-weight:400;font-size:13.8125px;font-family:Calibri;fill:#000000"
           dy="0"
           dx="0" /></tspan></text>
    <text
       sodipodi:linespacing="125%"
       id="text3698"
       y="1080.1998"
       x="82.929802"
       style="font-style:normal;font-variant:normal;font-weight:400;font-size:13.8125px;line-height:125%;font-family:Calibri;text-align:start;letter-spacing:0px;word-spacing:0px;text-anchor:start;fill:#000000;fill-opacity:1;stroke:none"
       xml:space="preserve"><tspan
         id="tspan3700"
         y="0"
         x="0"
         sodipodi:role="line"><tspan
           id="tspan3702"
           style="font-style:normal;font-variant:normal;font-weight:400;font-size:13.8125px;font-family:Calibri;fill:#000000"
           dy="0"
           dx="0" /></tspan></text>
    <text
       sodipodi:linespacing="125%"
       id="text3917"
       y="1331.0359"
       x="414.3045"
       style="font-style:normal;font-variant:normal;font-weight:400;font-size:82.5056076px;line-height:125%;font-family:Calibri;text-align:start;letter-spacing:0px;word-spacing:0px;text-anchor:start;fill:#000000;fill-opacity:1;stroke:none"
       xml:space="preserve"
       transform="scale(1.0089379,0.99114132)"><tspan
         id="tspan3919"
         y="0"
         x="0"
         sodipodi:role="line"><tspan
           id="tspan3921"
           style="font-style:normal;font-variant:normal;font-weight:400;font-size:82.5056076px;font-family:Calibri;fill:#000000"
           dy="0"
           dx="0" /></tspan></text>
    <g
       style="font-style:normal;font-variant:normal;font-weight:400;font-size:16.91569519px;line-height:125%;font-family:'Segoe UI Symbol';text-align:start;letter-spacing:0px;word-spacing:0px;text-anchor:start;fill-opacity:1;stroke:none"
       id="text3974"
       transform="matrix(31.047397,0,0,30.92449,-465.71095,-31166.29)">
      <path
         d="m 24.102098,1027.3622 q 0.718587,0 1.387616,0.1982 0.677288,0.1983 1.263721,0.5617 0.594693,0.3551 1.08201,0.8507 0.495577,0.4873 0.85074,1.082 0.355164,0.5865 0.545135,1.2472 0.198231,0.6608 0.198231,1.3546 0,0.7434 -0.20649,1.4454 -0.198231,0.6938 -0.561654,1.3133 -0.363423,0.6112 -0.86726,1.1233 -0.495577,0.5039 -1.09027,0.8673 -0.586432,0.3634 -1.255461,0.5699 -0.66077,0.1982 -1.346318,0.1982 -0.545135,0 -0.958115,-0.05 -0.412981,-0.058 -0.751626,-0.157 -0.330384,-0.1073 -0.602952,-0.2477 -0.264307,-0.1405 -0.520355,-0.3139 l -4.138068,4.1546 q -0.355164,0.2891 -0.776404,0.2891 -0.23127,0 -0.462539,-0.091 -0.231269,-0.091 -0.446019,-0.2808 -0.231269,-0.1983 -0.338645,-0.4626 Q 15,1040.751 15,1040.4702 q 0,-0.2726 0.09912,-0.5369 0.107375,-0.2643 0.297346,-0.4543 l 3.989395,-3.9811 q -0.43776,-0.7021 -0.602952,-1.4041 -0.165192,-0.7103 -0.165192,-1.4372 0,-0.7351 0.21475,-1.4124 0.21475,-0.6855 0.586432,-1.272 0.379943,-0.5947 0.900299,-1.0737 0.520356,-0.4791 1.123308,-0.8177 0.611211,-0.3469 1.2885,-0.5286 0.677288,-0.19 1.371096,-0.19 z m -3.791164,5.2944 q 0,0.8012 0.280827,1.495 0.289087,0.6938 0.792923,1.2059 0.512096,0.5038 1.205904,0.8012 0.693808,0.2891 1.51151,0.2891 0.784664,0 1.445433,-0.2891 0.669029,-0.2974 1.148087,-0.8012 0.479058,-0.5121 0.743365,-1.2059 0.272568,-0.6938 0.272568,-1.495 0,-0.7681 -0.272568,-1.4289 -0.272567,-0.6608 -0.759884,-1.1398 -0.479058,-0.4874 -1.139828,-0.7599 -0.660769,-0.2726 -1.437173,-0.2726 -0.776404,0 -1.470212,0.2726 -0.685548,0.2725 -1.205904,0.7599 -0.512096,0.479 -0.817702,1.1398 -0.297346,0.6525 -0.297346,1.4289 z"
         style="font-style:normal;font-variant:normal;font-weight:400;font-size:16.91569519px;font-family:'Segoe UI Symbol'"
         id="path3998"
         inkscape:connector-curvature="0" />
    </g>
    <text
       sodipodi:linespacing="125%"
       id="text3980"
       y="1087.3585"
       x="85.308571"
       style="font-style:normal;font-variant:normal;font-weight:400;font-size:13.8125px;line-height:125%;font-family:Calibri;text-align:start;letter-spacing:0px;word-spacing:0px;text-anchor:start;fill:#000000;fill-opacity:1;stroke:none"
       xml:space="preserve"><tspan
         id="tspan3982"
         y="0"
         x="0"
         sodipodi:role="line"><tspan
           id="tspan3984"
           style="font-style:normal;font-variant:normal;font-weight:400;font-size:13.8125px;font-family:Calibri;fill:#000000"
           dy="0"
           dx="0" /></tspan></text>
  </g>
</svg>
