<?xml version="1.0" encoding="UTF-8" standalone="no"?>
<svg
   xmlns:dc="http://purl.org/dc/elements/1.1/"
   xmlns:cc="http://creativecommons.org/ns#"
   xmlns:rdf="http://www.w3.org/1999/02/22-rdf-syntax-ns#"
   xmlns:svg="http://www.w3.org/2000/svg"
   xmlns="http://www.w3.org/2000/svg"
   xmlns:sodipodi="http://sodipodi.sourceforge.net/DTD/sodipodi-0.dtd"
   xmlns:inkscape="http://www.inkscape.org/namespaces/inkscape"
   width="448"
   height="448"
   id="svg2"
   version="1.1"
   inkscape:version="0.91 r13725"
   sodipodi:docname="search-filter.svg">
  <metadata
     id="metadata33">
    <rdf:RDF>
      <cc:Work
         rdf:about="">
        <dc:format>image/svg+xml</dc:format>
        <dc:type
           rdf:resource="http://purl.org/dc/dcmitype/StillImage" />
        <dc:title>search-filter</dc:title>
      </cc:Work>
    </rdf:RDF>
  </metadata>
  <sodipodi:namedview
     pagecolor="#ffffff"
     bordercolor="#666666"
     borderopacity="1"
     objecttolerance="10"
     gridtolerance="10"
     guidetolerance="10"
     inkscape:pageopacity="0"
     inkscape:pageshadow="2"
     inkscape:window-width="3840"
     inkscape:window-height="2097"
     id="namedview31"
     showgrid="true"
     inkscape:snap-global="true"
     inkscape:snap-bbox="true"
     inkscape:bbox-nodes="true"
     inkscape:zoom="1.4142136"
     inkscape:cx="635.18086"
     inkscape:cy="-84.930452"
     inkscape:window-x="-8"
     inkscape:window-y="-8"
     inkscape:window-maximized="1"
     inkscape:current-layer="svg2"
     inkscape:object-nodes="true"
     inkscape:snap-nodes="true">
    <inkscape:grid
       type="xygrid"
       id="grid4188"
       spacingx="16"
       spacingy="16"
       empspacing="2" />
  </sodipodi:namedview>
  <title
     id="title4">search-filter</title>
  <defs
     id="defs6">
    <g
       id="hg">
      <path
         d="M 85.685,67.399 C 100.47,42.815 82.562,2.944 49.818,6.995 20.233,10.652 19.757,41.792 45.83,49.189 c 22.563,6.408 4.661,20.72 5.184,30.25 0.526,9.529 19.616,12.986 34.671,-12.04"
         id="path9"
         inkscape:connector-curvature="0" />
      <circle
         cx="31.579"
         cy="70.616997"
         r="12.838"
         id="circle11" />
      <circle
         cx="16.913"
         cy="43.476002"
         r="8.3999996"
         id="circle13" />
    </g>
  </defs>
  <path
     inkscape:connector-curvature="0"
     d="M 224,0 C 100.28817,0 0,31.33984 0,70 l 0,42 160,160 0,144 c 0,15.46384 33.07139,32 64,32 30.92861,0 64,-16.53616 64,-32 l 0,-144 160,-160 0,-42 C 448,31.33984 347.71184,0 224,0 Z M 41.292938,60.73564 C 51.768483,54.76016 66.485163,49.08932 83.85214,44.33436 122.32766,33.80132 172.09939,28 224,28 c 51.90061,0 101.67234,5.80132 140.14787,16.33436 17.36694,4.75496 32.08363,10.4258 42.56003,16.40128 6.90897,3.93988 10.6417,7.27272 12.37947,9.26436 -1.73796,1.9908 -5.47131,5.32364 -12.37947,9.26436 -10.4764,5.97548 -25.19309,11.64632 -42.56003,16.401 C 325.67332,106.19868 275.90061,112 224,112 172.09939,112 122.32766,106.19868 83.85214,95.66536 66.485163,90.91068 51.768483,85.23984 41.292938,79.26436 34.383944,75.32364 30.651228,71.99136 28.912635,70 c 1.738604,-1.9908 5.471309,-5.32364 12.380303,-9.26436 z"
     id="path3986"
     sodipodi:nodetypes="ssccsssccssccsccccsssccc" />
</svg>
