<?xml version="1.0" encoding="UTF-8" standalone="no"?>
<svg
   xmlns:dc="http://purl.org/dc/elements/1.1/"
   xmlns:cc="http://creativecommons.org/ns#"
   xmlns:rdf="http://www.w3.org/1999/02/22-rdf-syntax-ns#"
   xmlns:svg="http://www.w3.org/2000/svg"
   xmlns="http://www.w3.org/2000/svg"
   xmlns:sodipodi="http://sodipodi.sourceforge.net/DTD/sodipodi-0.dtd"
   xmlns:inkscape="http://www.inkscape.org/namespaces/inkscape"
   width="480"
   height="448"
   id="svg2"
   version="1.1"
   inkscape:version="0.91 r13725"
   sodipodi:docname="security-access.svg">
  <metadata
     id="metadata33">
    <rdf:RDF>
      <cc:Work
         rdf:about="">
        <dc:format>image/svg+xml</dc:format>
        <dc:type
           rdf:resource="http://purl.org/dc/dcmitype/StillImage" />
        <dc:title>security-access</dc:title>
      </cc:Work>
    </rdf:RDF>
  </metadata>
  <sodipodi:namedview
     pagecolor="#ffffff"
     bordercolor="#666666"
     borderopacity="1"
     objecttolerance="10"
     gridtolerance="10"
     guidetolerance="10"
     inkscape:pageopacity="0"
     inkscape:pageshadow="2"
     inkscape:window-width="1085"
     inkscape:window-height="752"
     id="namedview31"
     showgrid="true"
     inkscape:snap-global="true"
     inkscape:snap-bbox="true"
     inkscape:bbox-nodes="true"
     inkscape:zoom="1"
     inkscape:cx="293.9115"
     inkscape:cy="225.2073"
     inkscape:window-x="835"
     inkscape:window-y="578"
     inkscape:window-maximized="0"
     inkscape:current-layer="svg2"
     showguides="false">
    <inkscape:grid
       type="xygrid"
       id="grid4188"
       spacingx="16"
       spacingy="16"
       empspacing="2" />
    <sodipodi:guide
       position="-90,246"
       orientation="0,1"
       id="guide5357" />
  </sodipodi:namedview>
  <title
     id="title4">security-access</title>
  <defs
     id="defs6">
    <g
       id="hg">
      <path
         d="M 85.685,67.399 C 100.47,42.815 82.562,2.944 49.818,6.995 20.233,10.652 19.757,41.792 45.83,49.189 c 22.563,6.408 4.661,20.72 5.184,30.25 0.526,9.529 19.616,12.986 34.671,-12.04"
         id="path9"
         inkscape:connector-curvature="0" />
      <circle
         cx="31.579"
         cy="70.616997"
         r="12.838"
         id="circle11" />
      <circle
         cx="16.913"
         cy="43.476002"
         r="8.3999996"
         id="circle13" />
    </g>
  </defs>
  <path
     inkscape:connector-curvature="0"
     d="m 342.99474,0 c -75.67397,0 -137.00522,61.700418 -137.00522,137.82952 0,10.55262 1.17738,20.7823 3.42513,30.63474 L 0,379.08524 0,413.54261 34.251309,448 l 68.502621,0 34.25131,-34.45739 0,-34.45737 34.25132,0 0,-34.45739 34.2513,0 0,-34.45738 68.50261,0 37.89053,-38.11858 c 10.00782,2.31484 20.39022,3.55345 31.09374,3.55345 C 418.66875,275.60534 480,213.90492 480,137.77581 480,61.646395 418.61523,0 342.99474,0 Z m -137.48688,241.25571 -171.256551,172.2869 0,-34.45737 171.256551,-172.28692 0,34.45739 z M 376.76443,137.88356 c -18.89175,0 -34.25134,-15.45211 -34.25134,-34.45738 0,-19.005581 15.35959,-34.457391 34.25134,-34.457391 18.89172,0 34.25129,15.45181 34.25129,34.457391 0,19.00527 -15.35957,34.45738 -34.25129,34.45738 z"
     id="path8052"
     style="stroke:none" />
</svg>
