<svg xmlns="http://www.w3.org/2000/svg" viewBox="0 0 448 448" enable-background="new 0 0 448 448"><path d="M448 448h-115.222v-55.468h-55.468v-55.468h-55.468v-43.424c-20.977 10.324-43.768 15.705-67.169 15.705-85.283 0-154.673-69.39-154.673-154.672s69.39-154.673 154.673-154.673 154.673 69.39 154.673 154.673c0 14.031-2.096 28-6.382 42.422l145.036 145.068v105.837zm-83.187-32.036h51.151v-60.536l-149.823-149.839 3.441-9.558c5.193-14.407 7.727-27.937 7.727-41.359 0-67.622-55.015-122.637-122.637-122.637s-122.636 55.015-122.636 122.638 55.014 122.637 122.637 122.637c26.076 0 51.276-8.478 72.878-24.559l4.255-3.16h21.321l.751 16.018v39.419h55.468v55.468h55.468v55.468zm-252.938-332.12c-15.482 0-28.031 12.55-28.031 28.031 0 15.482 12.55 28.031 28.031 28.031s28.031-12.549 28.031-28.031c0-15.481-12.549-28.031-28.031-28.031z"/></svg>