<?xml version="1.0" encoding="UTF-8" standalone="no"?>
<svg
   xmlns:dc="http://purl.org/dc/elements/1.1/"
   xmlns:cc="http://creativecommons.org/ns#"
   xmlns:rdf="http://www.w3.org/1999/02/22-rdf-syntax-ns#"
   xmlns:svg="http://www.w3.org/2000/svg"
   xmlns="http://www.w3.org/2000/svg"
   xmlns:sodipodi="http://sodipodi.sourceforge.net/DTD/sodipodi-0.dtd"
   xmlns:inkscape="http://www.inkscape.org/namespaces/inkscape"
   width="384"
   height="448"
   id="svg2"
   version="1.1"
   inkscape:version="0.91 r13725"
   sodipodi:docname="security.svg">
  <metadata
     id="metadata33">
    <rdf:RDF>
      <cc:Work
         rdf:about="">
        <dc:format>image/svg+xml</dc:format>
        <dc:type
           rdf:resource="http://purl.org/dc/dcmitype/StillImage" />
        <dc:title>security</dc:title>
      </cc:Work>
    </rdf:RDF>
  </metadata>
  <sodipodi:namedview
     pagecolor="#ffffff"
     bordercolor="#666666"
     borderopacity="1"
     objecttolerance="10"
     gridtolerance="10"
     guidetolerance="10"
     inkscape:pageopacity="0"
     inkscape:pageshadow="2"
     inkscape:window-width="1345"
     inkscape:window-height="882"
     id="namedview31"
     showgrid="true"
     inkscape:snap-global="true"
     inkscape:snap-bbox="true"
     inkscape:bbox-nodes="true"
     inkscape:zoom="1"
     inkscape:cx="307.53705"
     inkscape:cy="195.97623"
     inkscape:window-x="286"
     inkscape:window-y="286"
     inkscape:window-maximized="0"
     inkscape:current-layer="svg2"
     showguides="false"
     inkscape:snap-intersection-paths="true"
     inkscape:object-nodes="true"
     inkscape:snap-nodes="false">
    <inkscape:grid
       type="xygrid"
       id="grid4188"
       spacingx="16"
       spacingy="16"
       empspacing="2" />
    <sodipodi:guide
       position="-90,246"
       orientation="0,1"
       id="guide5357" />
  </sodipodi:namedview>
  <title
     id="title4">security</title>
  <defs
     id="defs6">
    <g
       id="hg">
      <path
         d="M 85.685,67.399 C 100.47,42.815 82.562,2.944 49.818,6.995 20.233,10.652 19.757,41.792 45.83,49.189 c 22.563,6.408 4.661,20.72 5.184,30.25 0.526,9.529 19.616,12.986 34.671,-12.04"
         id="path9"
         inkscape:connector-curvature="0" />
      <circle
         cx="31.579"
         cy="70.616997"
         r="12.838"
         id="circle11" />
      <circle
         cx="16.913"
         cy="43.476002"
         r="8.3999996"
         id="circle13" />
    </g>
  </defs>
  <path
     d="M 192.07214,0 1.7072488,96.000493 c 0,0 -31.7007238,287.999907 190.3648912,351.999507 C 414.1377,384.0004 382.43619,96.000493 382.43619,96.000493 L 192.07214,0 Z m -34.30938,97.999996 68.55683,0 0,10.769164 L 209.31177,273 l -34.54119,0 -17.00782,-164.23084 0,-10.769164 z M 191.79011,308 c 4.80516,0 9.27464,0.92608 13.40926,2.77795 4.24641,1.85184 7.93458,4.38228 11.06349,7.59217 3.12891,3.20985 5.5866,6.9754 7.37455,11.29638 1.78797,4.19752 2.68218,8.76521 2.68218,13.70349 0,4.93825 -0.89421,9.5068 -2.68218,13.70435 -1.78795,4.19752 -4.24564,7.83912 -7.37455,10.92554 -3.12891,3.08641 -6.81708,5.49377 -11.06349,7.22216 -4.13462,1.85187 -8.6041,2.77796 -13.40926,2.77796 -4.69336,0 -9.10722,-0.86414 -13.24188,-2.59252 -4.13462,-1.72843 -7.76718,-4.13576 -10.89611,-7.22217 -3.01719,-3.08642 -5.41924,-6.72889 -7.20717,-10.9264 -1.78798,-4.19752 -2.68219,-8.82719 -2.68219,-13.88892 0,-4.93828 0.89421,-9.50597 2.68219,-13.70349 1.78793,-4.32098 4.18998,-8.08653 7.20717,-11.29638 3.12894,-3.20989 6.76149,-5.74033 10.89611,-7.59217 C 182.68289,308.92608 187.09675,308 191.79011,308 Z"
     id="path5"
     inkscape:connector-curvature="0" />
</svg>
