<svg xmlns="http://www.w3.org/2000/svg" viewBox="0 0 448 448" enable-background="new 0 0 448 448"><path d="M74.844 447.969c-19.172 0-38.328-7.281-52.922-21.875-14.141-14.156-21.922-32.938-21.922-52.938s7.781-38.781 21.922-52.906l173.859-173.859c-1.094-6.688-1.641-13.109-1.641-19.453.001-70 56.938-126.938 126.923-126.938 21.625 0 42.625 5.703 62.406 16.953l18.25 10.375-85.75 85.734 18.969 18.984 85.75-85.75 10.375 18.25c11.25 19.767 16.937 40.751 16.937 62.392 0 69.984-56.938 126.922-126.938 126.922-6.344 0-12.75-.531-19.438-1.641l-173.874 173.875c-14.578 14.594-33.75 21.875-52.906 21.875zm246.219-415.969c-52.344 0-94.922 42.594-94.922 94.938 0 6.656.844 13.578 2.578 21.156l1.984 8.641-186.156 186.14c-8.094 8.094-12.547 18.844-12.547 30.281s4.453 22.219 12.547 30.313c16.719 16.688 43.891 16.688 60.578 0l186.156-186.172 8.625 1.984c7.594 1.734 14.5 2.578 21.156 2.578 52.344 0 94.938-42.578 94.938-94.922 0-9.016-1.344-17.922-4.063-26.641l-77 77-64.219-64.234 77-77c-8.718-2.703-17.624-4.062-26.655-4.062z"/></svg>