<svg xmlns="http://www.w3.org/2000/svg" viewBox="0 0 448 448" enable-background="new 0 0 448 448"><path d="M184.094 443.969l-87.422-36.219 14.953-64.531c-2.344-2.219-4.625-4.5-6.844-6.875l-64.547 14.969-36.203-87.407 55.719-34.766c-.156-1.703-.25-3.406-.25-5.141s.094-3.453.25-5.141l-55.719-34.764 36.203-87.422 64.563 14.953c2.203-2.344 4.484-4.625 6.828-6.828l-14.937-64.563 87.391-36.203 34.781 55.719c3.406-.313 6.906-.313 10.281 0l34.766-55.719 87.438 36.203-14.969 64.563c2.344 2.219 4.625 4.5 6.844 6.828l64.563-14.938 36.188 87.406-55.719 34.766c.156 1.688.25 3.406.25 5.141s-.094 3.453-.25 5.141l55.719 34.766-36.219 87.438-64.563-14.969c-2.219 2.344-4.5 4.625-6.844 6.844l14.969 64.563-87.406 36.188-34.766-55.719c-3.438.313-6.891.313-10.297 0l-34.751 55.717zm61.594-89.656l31.031 49.719 37.281-15.438-13.188-57.031 7.563-6.281c6.188-5.156 11.719-10.688 16.906-16.875l6.313-7.563 56.969 13.188 15.469-37.313-49.688-31.016 1.531-15.328c.281-2.109.625-4.203.625-6.375s-.344-4.266-.625-6.375l-1.531-15.328 49.688-31.016-15.438-37.313-57 13.203-6.313-7.563c-5.094-6.094-10.781-11.781-16.875-16.906l-7.563-6.297 13.188-56.984-37.313-15.453-31.016 49.703-15.328-1.563c-4.219-.563-8.563-.578-12.75.016l-15.313 1.547-31.016-49.703-37.328 15.453 13.203 57-7.563 6.297c-6.188 5.172-11.719 10.703-16.891 16.891l-6.297 7.563-57-13.219-15.453 37.328 49.703 31.016-1.563 15.328c-.281 2.109-.609 4.203-.609 6.375s.328 4.281.625 6.375l1.547 15.313-49.703 31.031 15.456 37.281 57-13.188 6.313 7.563c5.156 6.188 10.672 11.719 16.875 16.906l7.563 6.313-13.219 56.969 37.328 15.469 31.016-49.688 15.328 1.531c4.156.531 8.531.563 12.75 0l15.312-1.562zm-21.688-46.813c-46.047 0-83.5-37.469-83.5-83.5 0-46.047 37.453-83.5 83.5-83.5 46.031 0 83.5 37.453 83.5 83.5 0 46.031-37.469 83.5-83.5 83.5zm0-135c-28.391 0-51.5 23.109-51.5 51.5s23.109 51.5 51.5 51.5 51.5-23.109 51.5-51.5-23.109-51.5-51.5-51.5z"/></svg>