<?xml version="1.0" encoding="UTF-8" standalone="no"?>
<!-- Created with Inkscape (http://www.inkscape.org/) -->

<svg
   xmlns:dc="http://purl.org/dc/elements/1.1/"
   xmlns:cc="http://creativecommons.org/ns#"
   xmlns:rdf="http://www.w3.org/1999/02/22-rdf-syntax-ns#"
   xmlns:svg="http://www.w3.org/2000/svg"
   xmlns="http://www.w3.org/2000/svg"
   xmlns:sodipodi="http://sodipodi.sourceforge.net/DTD/sodipodi-0.dtd"
   xmlns:inkscape="http://www.inkscape.org/namespaces/inkscape"
   width="448"
   height="448"
   viewBox="0 0 447.99999 447.99999"
   id="svg2"
   version="1.1"
   inkscape:version="0.91 r13725"
   sodipodi:docname="share.svg">
  <title
     id="title3390">share</title>
  <defs
     id="defs4">
    <pattern
       y="0"
       x="0"
       height="6"
       width="6"
       patternUnits="userSpaceOnUse"
       id="EMFhbasepattern" />
    <pattern
       y="0"
       x="0"
       height="6"
       width="6"
       patternUnits="userSpaceOnUse"
       id="EMFhbasepattern-2" />
    <pattern
       y="0"
       x="0"
       height="6"
       width="6"
       patternUnits="userSpaceOnUse"
       id="EMFhbasepattern-7" />
    <pattern
       y="0"
       x="0"
       height="6"
       width="6"
       patternUnits="userSpaceOnUse"
       id="EMFhbasepattern-77" />
    <pattern
       y="0"
       x="0"
       height="6"
       width="6"
       patternUnits="userSpaceOnUse"
       id="EMFhbasepattern-1" />
    <pattern
       y="0"
       x="0"
       height="6"
       width="6"
       patternUnits="userSpaceOnUse"
       id="EMFhbasepattern-8" />
    <pattern
       y="0"
       x="0"
       height="6"
       width="6"
       patternUnits="userSpaceOnUse"
       id="EMFhbasepattern-9" />
    <pattern
       y="0"
       x="0"
       height="6"
       width="6"
       patternUnits="userSpaceOnUse"
       id="EMFhbasepattern-22" />
    <pattern
       y="0"
       x="0"
       height="6"
       width="6"
       patternUnits="userSpaceOnUse"
       id="EMFhbasepattern-26" />
    <pattern
       y="0"
       x="0"
       height="6"
       width="6"
       patternUnits="userSpaceOnUse"
       id="EMFhbasepattern-0" />
    <pattern
       y="0"
       x="0"
       height="6"
       width="6"
       patternUnits="userSpaceOnUse"
       id="EMFhbasepattern-3" />
    <pattern
       y="0"
       x="0"
       height="6"
       width="6"
       patternUnits="userSpaceOnUse"
       id="EMFhbasepattern-75" />
    <pattern
       y="0"
       x="0"
       height="6"
       width="6"
       patternUnits="userSpaceOnUse"
       id="EMFhbasepattern-4" />
    <pattern
       y="0"
       x="0"
       height="6"
       width="6"
       patternUnits="userSpaceOnUse"
       id="EMFhbasepattern-78" />
    <pattern
       y="0"
       x="0"
       height="6"
       width="6"
       patternUnits="userSpaceOnUse"
       id="EMFhbasepattern-6" />
    <pattern
       y="0"
       x="0"
       height="6"
       width="6"
       patternUnits="userSpaceOnUse"
       id="EMFhbasepattern-5" />
    <pattern
       y="0"
       x="0"
       height="6"
       width="6"
       patternUnits="userSpaceOnUse"
       id="EMFhbasepattern-62" />
    <pattern
       y="0"
       x="0"
       height="6"
       width="6"
       patternUnits="userSpaceOnUse"
       id="EMFhbasepattern-58" />
    <pattern
       y="0"
       x="0"
       height="6"
       width="6"
       patternUnits="userSpaceOnUse"
       id="EMFhbasepattern-52" />
    <pattern
       y="0"
       x="0"
       height="6"
       width="6"
       patternUnits="userSpaceOnUse"
       id="EMFhbasepattern-85" />
    <pattern
       y="0"
       x="0"
       height="6"
       width="6"
       patternUnits="userSpaceOnUse"
       id="EMFhbasepattern-83" />
    <pattern
       y="0"
       x="0"
       height="6"
       width="6"
       patternUnits="userSpaceOnUse"
       id="EMFhbasepattern-89" />
    <pattern
       y="0"
       x="0"
       height="6"
       width="6"
       patternUnits="userSpaceOnUse"
       id="EMFhbasepattern-839" />
    <pattern
       y="0"
       x="0"
       height="6"
       width="6"
       patternUnits="userSpaceOnUse"
       id="EMFhbasepattern-95" />
    <pattern
       y="0"
       x="0"
       height="6"
       width="6"
       patternUnits="userSpaceOnUse"
       id="EMFhbasepattern-10" />
  </defs>
  <sodipodi:namedview
     id="base"
     pagecolor="#ffffff"
     bordercolor="#666666"
     borderopacity="1.0"
     inkscape:pageopacity="0.0"
     inkscape:pageshadow="2"
     inkscape:zoom="2"
     inkscape:cx="253.35657"
     inkscape:cy="164.88355"
     inkscape:document-units="px"
     inkscape:current-layer="layer1"
     showgrid="true"
     inkscape:snap-bbox="true"
     inkscape:bbox-nodes="true"
     units="px"
     inkscape:window-width="3840"
     inkscape:window-height="2097"
     inkscape:window-x="-8"
     inkscape:window-y="-8"
     inkscape:window-maximized="1">
    <inkscape:grid
       type="xygrid"
       id="grid3336"
       spacingx="16"
       spacingy="16"
       empspacing="2" />
  </sodipodi:namedview>
  <metadata
     id="metadata7">
    <rdf:RDF>
      <cc:Work
         rdf:about="">
        <dc:format>image/svg+xml</dc:format>
        <dc:type
           rdf:resource="http://purl.org/dc/dcmitype/StillImage" />
        <dc:title>share</dc:title>
      </cc:Work>
    </rdf:RDF>
  </metadata>
  <g
     inkscape:label="Layer 1"
     inkscape:groupmode="layer"
     id="layer1"
     transform="translate(0,-604.36224)">
    <flowRoot
       xml:space="preserve"
       id="flowRoot3338"
       style="font-style:normal;font-weight:normal;font-size:40px;line-height:125%;font-family:sans-serif;letter-spacing:0px;word-spacing:0px;fill:#000000;fill-opacity:1;stroke:none;stroke-width:1px;stroke-linecap:butt;stroke-linejoin:miter;stroke-opacity:1"
       transform="translate(0,698.0315)"><flowRegion
         id="flowRegion3340"><rect
           id="rect3342"
           width="360"
           height="360"
           x="0"
           y="-5.669281" /></flowRegion><flowPara
         id="flowPara3344" /></flowRoot>    <flowRoot
       xml:space="preserve"
       id="flowRoot3371"
       style="font-style:normal;font-weight:normal;font-size:40px;line-height:125%;font-family:sans-serif;letter-spacing:0px;word-spacing:0px;fill:#000000;fill-opacity:1;stroke:none;stroke-width:1px;stroke-linecap:butt;stroke-linejoin:miter;stroke-opacity:1"><flowRegion
         id="flowRegion3373"><rect
           id="rect3375"
           width="85"
           height="85"
           x="5"
           y="5" /></flowRegion><flowPara
         id="flowPara3377" /></flowRoot>    <flowRoot
       xml:space="preserve"
       id="flowRoot3404"
       style="font-style:normal;font-weight:normal;font-size:40px;line-height:125%;font-family:sans-serif;letter-spacing:0px;word-spacing:0px;fill:#000000;fill-opacity:1;stroke:none;stroke-width:1px;stroke-linecap:butt;stroke-linejoin:miter;stroke-opacity:1"><flowRegion
         id="flowRegion3406"><rect
           id="rect3408"
           width="65"
           height="50"
           x="15"
           y="20" /></flowRegion><flowPara
         id="flowPara3410" /></flowRoot>    <flowRoot
       xml:space="preserve"
       id="flowRoot3437"
       style="font-style:normal;font-weight:normal;font-size:40px;line-height:125%;font-family:sans-serif;letter-spacing:0px;word-spacing:0px;fill:#000000;fill-opacity:1;stroke:none;stroke-width:1px;stroke-linecap:butt;stroke-linejoin:miter;stroke-opacity:1"><flowRegion
         id="flowRegion3439"><rect
           id="rect3441"
           width="80"
           height="75"
           x="5"
           y="5" /></flowRegion><flowPara
         id="flowPara3443" /></flowRoot>    <text
       sodipodi:linespacing="125%"
       id="text3481"
       y="1009.7125"
       x="51.231663"
       style="font-style:normal;font-variant:normal;font-weight:400;font-size:13.8125px;line-height:125%;font-family:Calibri;text-align:start;letter-spacing:0px;word-spacing:0px;text-anchor:start;fill:#000000;fill-opacity:1;stroke:none"
       xml:space="preserve"><tspan
         id="tspan3483"
         y="0"
         x="0"
         sodipodi:role="line"><tspan
           id="tspan3485"
           style="font-style:normal;font-variant:normal;font-weight:400;font-size:13.8125px;font-family:Calibri;fill:#000000"
           dy="0"
           dx="0" /></tspan></text>
    <text
       sodipodi:linespacing="125%"
       id="text3698"
       y="1080.1998"
       x="82.929802"
       style="font-style:normal;font-variant:normal;font-weight:400;font-size:13.8125px;line-height:125%;font-family:Calibri;text-align:start;letter-spacing:0px;word-spacing:0px;text-anchor:start;fill:#000000;fill-opacity:1;stroke:none"
       xml:space="preserve"><tspan
         id="tspan3700"
         y="0"
         x="0"
         sodipodi:role="line"><tspan
           id="tspan3702"
           style="font-style:normal;font-variant:normal;font-weight:400;font-size:13.8125px;font-family:Calibri;fill:#000000"
           dy="0"
           dx="0" /></tspan></text>
    <text
       sodipodi:linespacing="125%"
       id="text3917"
       y="1331.0359"
       x="414.3045"
       style="font-style:normal;font-variant:normal;font-weight:400;font-size:82.5056076px;line-height:125%;font-family:Calibri;text-align:start;letter-spacing:0px;word-spacing:0px;text-anchor:start;fill:#000000;fill-opacity:1;stroke:none"
       xml:space="preserve"
       transform="scale(1.0089379,0.99114132)"><tspan
         id="tspan3919"
         y="0"
         x="0"
         sodipodi:role="line"><tspan
           id="tspan3921"
           style="font-style:normal;font-variant:normal;font-weight:400;font-size:82.5056076px;font-family:Calibri;fill:#000000"
           dy="0"
           dx="0" /></tspan></text>
    <text
       sodipodi:linespacing="125%"
       id="text3980"
       y="1087.3585"
       x="85.308571"
       style="font-style:normal;font-variant:normal;font-weight:400;font-size:13.8125px;line-height:125%;font-family:Calibri;text-align:start;letter-spacing:0px;word-spacing:0px;text-anchor:start;fill:#000000;fill-opacity:1;stroke:none"
       xml:space="preserve"><tspan
         id="tspan3982"
         y="0"
         x="0"
         sodipodi:role="line"><tspan
           id="tspan3984"
           style="font-style:normal;font-variant:normal;font-weight:400;font-size:13.8125px;font-family:Calibri;fill:#000000"
           dy="0"
           dx="0" /></tspan></text>
    <g
       style="font-style:normal;font-variant:normal;font-weight:400;font-size:16.91569519px;line-height:125%;font-family:'Segoe UI Symbol';text-align:start;letter-spacing:0px;word-spacing:0px;text-anchor:start;fill:#000000;fill-opacity:1;stroke:none"
       id="text4101"
       transform="matrix(23.490603,0,0,23.943433,-352.35905,-23754.719)">
      <path
         d="m 18.972876,1028.8678 q 0.272567,0.826 0.726846,1.5528 0.454279,0.7186 1.048972,1.3051 0.602952,0.5781 1.329798,1.0076 0.735106,0.4295 1.569327,0.6691 l -0.470798,1.3958 q -0.999414,-0.3056 -1.883193,-0.8259 -0.875519,-0.5204 -1.594106,-1.2225 -0.718586,-0.7103 -1.263721,-1.5775 -0.536875,-0.8673 -0.859,-1.8585 l -0.0413,-0.1404 -0.148673,-0.01 q -0.140414,-0.016 -0.264308,-0.025 -0.123894,-0.016 -0.322125,-0.074 -0.09912,-0.033 -0.165193,-0.05 -0.05782,-0.016 -0.123894,-0.041 -0.462538,-0.2065 -0.784663,-0.5286 -0.272568,-0.2726 -0.487318,-0.7021 -0.06608,-0.1404 -0.09911,-0.2395 -0.02478,-0.099 -0.07434,-0.2643 -0.0413,-0.1652 -0.05782,-0.2891 Q 15,1026.8194 15,1026.7038 q 0,-0.1652 0.0083,-0.2808 0.01652,-0.1239 0.0413,-0.2395 0.0826,-0.3965 0.272567,-0.7269 0.189972,-0.3386 0.404722,-0.5534 0.355163,-0.3552 0.801182,-0.5451 0.454279,-0.19 0.949856,-0.19 0.528616,0.01 0.982895,0.2148 0.462538,0.1982 0.801183,0.5451 0.338644,0.3386 0.536875,0.7929 0.198231,0.446 0.198231,0.9581 0,0.5699 -0.247789,1.0738 -0.239529,0.5038 -0.702067,0.8672 l -0.123895,0.099 0.04956,0.1486 z m 7.276722,-8.9864 0,-0.2065 -0.19823,-0.016 q -0.115635,-0.01 -0.22301,-0.01 -0.107375,-0.01 -0.22301,-0.01 -0.842481,0 -1.643663,0.2065 -0.801183,0.1983 -1.52803,0.5782 -0.726846,0.3717 -1.362836,0.9251 -0.635991,0.5451 -1.131568,1.2389 l -1.214163,-0.8177 q 0.594692,-0.8507 1.354577,-1.5198 0.768144,-0.669 1.651923,-1.1315 0.892039,-0.4708 1.866673,-0.7103 0.982895,-0.2478 2.007087,-0.2478 0.256048,0 0.528616,0.025 0.272567,0.017 0.594692,0.058 l 0.115635,0.017 0.07434,-0.083 q 0.165193,-0.1982 0.379943,-0.3469 0.21475,-0.1487 0.454279,-0.2561 0.239529,-0.1073 0.495577,-0.1569 0.256048,-0.058 0.503836,-0.058 0.256048,0 0.503837,0.049 0.148673,0.041 0.256048,0.074 0.115635,0.033 0.21475,0.074 0.421241,0.19 0.710327,0.4626 0.289087,0.2643 0.503837,0.6442 0.03304,0.066 0.06608,0.1404 0.0413,0.066 0.09085,0.2065 0.148674,0.4378 0.148674,0.8507 0,0.2148 -0.03304,0.4295 -0.03304,0.2065 -0.123894,0.4213 -0.09086,0.2643 -0.239529,0.5038 -0.140414,0.2313 -0.330385,0.4213 -0.346904,0.3469 -0.801183,0.5368 -0.454278,0.19 -0.958115,0.19 -0.231269,-0.016 -0.322125,-0.025 -0.09086,-0.01 -0.156933,-0.025 -0.43776,-0.083 -0.809442,-0.3057 -0.363423,-0.223 -0.635991,-0.5451 -0.272567,-0.3304 -0.4295,-0.7351 -0.148673,-0.4047 -0.156933,-0.8507 z m 5.591761,3.7498 1.08201,-1.0902 q 0.569913,0.9911 0.859,2.0566 0.289087,1.0655 0.289087,2.1723 0,0.892 -0.189972,1.7593 -0.181711,0.8672 -0.536875,1.6684 -0.355163,0.8012 -0.875519,1.5281 -0.520356,0.7268 -1.181125,1.3298 l -0.0826,0.074 0.01652,0.1156 q 0.02478,0.1652 0.02478,0.2478 0,0.083 0,0.2148 -0.02478,0.2147 -0.04956,0.3551 -0.02478,0.1322 -0.06608,0.2561 -0.0826,0.2395 -0.231269,0.5038 -0.148673,0.2643 -0.338645,0.4708 -0.379942,0.3882 -0.842481,0.5782 -0.454278,0.1982 -0.958115,0.1982 -0.520356,0.01 -0.982894,-0.19 -0.454279,-0.1982 -0.792924,-0.5451 -0.338644,-0.3386 -0.536875,-0.8012 -0.198231,-0.4543 -0.198231,-0.9664 0,-0.4873 0.181712,-0.9168 0.181712,-0.4377 0.495577,-0.7681 0.313865,-0.3387 0.735106,-0.5451 0.4295,-0.2148 0.916817,-0.2561 l 0.09086,0 q 0.03304,0 0.05782,0 0.02478,-0.01 0.03304,-0.01 0.388202,0 0.65251,0.083 0.272567,0.083 0.512096,0.2231 0.123894,0.066 0.239529,0.1486 0.115634,0.074 0.313865,0.2313 l 0.165193,-0.1239 q 0.949855,-0.9994 1.453692,-2.2466 0.503837,-1.2472 0.503837,-2.6183 0,-1.6437 -0.759885,-3.1387 z"
         style="font-style:normal;font-variant:normal;font-weight:400;font-size:16.91569519px;font-family:'Segoe UI Symbol';fill:#000000"
         id="path4125"
         inkscape:connector-curvature="0" />
    </g>
    <g
       style="font-style:normal;font-variant:normal;font-weight:400;font-size:13.8125px;line-height:125%;font-family:Calibri;text-align:start;letter-spacing:0px;word-spacing:0px;text-anchor:start;fill:#000000;fill-opacity:1;stroke:none"
       id="text4107"
       transform="matrix(5.2434382,0,0,5.2376234,-78.491218,-4375.7567)" />
  </g>
</svg>
