<svg xmlns="http://www.w3.org/2000/svg" viewBox="0 0 448 448" enable-background="new 0 0 448 448"><path d="M339.219 377.126c.906 4.061 1.437 8.25 1.437 12.56 0 32.189-26.125 58.314-58.342 58.314-32.189 0-58.314-26.125-58.314-58.314 0-32.218 26.125-58.31 58.314-58.31 16.154 0 30.781 6.56 41.344 17.187 36.656-29.312 60.342-74.094 60.342-124.563 0-36.328-12.624-69.484-33.126-96.375 8.659-7.14 15.875-15.781 21.376-25.625 27.312 33.156 43.75 75.656 43.75 122 0 62.687-30.314 118.093-76.781 153.126zm-45.561-377.126c-23.158 0-43.033 13.641-52.439 33.234-5.719-.531-11.375-1.234-17.219-1.234-71.031 0-132.906 38.687-166.125 96.047l.438-.047c11.719 0 22.844 2.406 33.156 6.5 28.781-42.5 77.437-70.5 132.531-70.5 4.094 0 8.031.531 12 .906 3.313 29.047 27.718 51.734 57.658 51.734 32.218 0 58.342-26.125 58.342-58.313 0-32.218-26.125-58.327-58.342-58.327zm-98.033 413.562c-2.125-7.655-3.625-15.562-3.625-23.876 0-3.469.469-6.813.875-10.154-56.344-11.282-102.031-51.657-120.188-104.907 25.219-6.437 43.969-29.109 43.969-56.312 0-32.219-26.125-58.313-58.344-58.313-32.187 0-58.312 26.094-58.312 58.313 0 25.437 16.406 46.844 39.156 54.812 19.438 73.064 80.344 129.157 156.469 140.437z"/></svg>