<svg xmlns="http://www.w3.org/2000/svg" viewBox="0 0 448 448" enable-background="new 0 0 448 448"><path d="M343 96v-10.667c0-47.053-38.313-85.333-85.367-85.333-14.579 0-28.719 3.772-41.442 10.966-12.358-6.969-26.646-10.966-41.816-10.966-47.053 0-85.375 38.28-85.375 85.333v10.667h-57v288c0 31.701 32.299 64 64 64h224c31.701 0 64-32.299 64-64v-288h-41zm-32-10.667v10.667h-51v-10.667c0-19.16-6.483-36.863-17.185-51.122 4.828-1.459 9.801-2.212 14.884-2.212 29.409.001 53.301 23.926 53.301 53.334zm-190 0c0-29.408 24.092-53.333 53.5-53.333s53.5 23.925 53.5 53.333v10.667h-107v-10.667zm-25 330.667c-14.056 0-32-17.944-32-32v-256h192v262.4c0 8.846 2.542 17.624 7.252 25.6h-167.252zm256-32c0 14.056-17.944 32-32 32-14.404 0-32-11.813-32-25.6v-262.4h64v256z"/></svg>