<svg xmlns="http://www.w3.org/2000/svg" viewBox="0 0 448 448" enable-background="new 0 0 448 448"><path d="M402.127 132.635l.269 11.894c0 121.447-92.44 261.507-261.507 261.507-51.898 0-100.213-15.209-140.889-41.281 7.19.851 14.514 1.277 21.929 1.277 43.051 0 82.697-14.694 114.145-39.355-40.228-.739-74.163-27.327-85.855-63.837 5.622 1.075 11.379 1.657 17.292 1.657 8.377 0 16.508-1.12 24.213-3.225-42.043-8.444-73.737-45.582-73.737-90.111v-1.165c12.387 6.877 26.565 11.02 41.639 11.491-24.661-16.463-40.878-44.596-40.878-76.492 0-16.844 4.525-32.635 12.454-46.209 45.313 55.616 113.047 92.194 189.428 96.024-1.568-6.72-2.374-13.731-2.374-20.943 0-50.756 41.147-91.903 91.903-91.903 26.431 0 50.308 11.155 67.085 29.029 20.943-4.122 40.609-11.782 58.371-22.309-6.854 21.458-21.436 39.467-40.408 50.845 18.591-2.217 36.309-7.167 52.794-14.47-12.343 18.435-27.932 34.629-45.874 47.576z"/></svg>