<?xml version="1.0" encoding="UTF-8" standalone="no"?>
<!-- Generator: Adobe Illustrator 16.0.0, SVG Export Plug-In . SVG Version: 6.00 Build 0)  -->

<svg
   xmlns:dc="http://purl.org/dc/elements/1.1/"
   xmlns:cc="http://creativecommons.org/ns#"
   xmlns:rdf="http://www.w3.org/1999/02/22-rdf-syntax-ns#"
   xmlns:svg="http://www.w3.org/2000/svg"
   xmlns="http://www.w3.org/2000/svg"
   xmlns:sodipodi="http://sodipodi.sourceforge.net/DTD/sodipodi-0.dtd"
   xmlns:inkscape="http://www.inkscape.org/namespaces/inkscape"
   version="1.1"
   id="Layer_1"
   x="0px"
   y="0px"
   width="448"
   height="448"
   viewBox="0 0 447.99999 448.00002"
   enable-background="new 0 0 266.893 266.895"
   xml:space="preserve"
   inkscape:version="0.91 r13725"
   sodipodi:docname="social-facebook.svg"><metadata
     id="metadata9"><rdf:RDF><cc:Work
         rdf:about=""><dc:format>image/svg+xml</dc:format><dc:type
           rdf:resource="http://purl.org/dc/dcmitype/StillImage" /><dc:title></dc:title></cc:Work></rdf:RDF></metadata><defs
     id="defs7" /><sodipodi:namedview
     pagecolor="#ffffff"
     bordercolor="#666666"
     borderopacity="1"
     objecttolerance="10"
     gridtolerance="10"
     guidetolerance="10"
     inkscape:pageopacity="0"
     inkscape:pageshadow="2"
     inkscape:window-width="1611"
     inkscape:window-height="1122"
     id="namedview5"
     showgrid="true"
     inkscape:snap-bbox="true"
     inkscape:bbox-nodes="true"
     inkscape:zoom="0.8842429"
     inkscape:cx="27.284479"
     inkscape:cy="250.5871"
     inkscape:window-x="0"
     inkscape:window-y="0"
     inkscape:window-maximized="0"
     inkscape:current-layer="Layer_1"><inkscape:grid
       type="xygrid"
       id="grid4137"
       spacingx="16"
       spacingy="16.000001"
       empspacing="2" /></sodipodi:namedview><path
     style="stroke:none"
     d="M 24.727226,-0.00357453 C 11.06907,-0.00357453 -1.525879e-5,11.065512 -1.525879e-5,24.723668 l 0,398.548952 c 0,13.65468 11.06734725879,24.72724 24.72724125879,24.72724 l 214.563064,0 0,-173.49132 -58.38048,0 0,-67.61203 58.38048,0 0,-49.86529 c 0,-57.864202 35.34117,-89.37185 86.96125,-89.37185 24.72618,0 45.97867,1.841252 52.17065,2.665227 l 0,60.471913 -35.8024,0.0174 c -28.07075,0 -33.50723,13.34098 -33.50723,32.91645 l 0,43.16657 66.95336,0 -8.71889,67.61203 -58.23447,0 0,173.49132 114.16361,0 c 13.65294,0 24.72385,-11.07082 24.72385,-24.72724 l 0,-398.548952 c 0,-13.658156 -11.06917,-24.72724271 -24.72385,-24.72724271 l -398.548944,0 z"
     id="Blue_1_"
     inkscape:connector-curvature="0" /></svg>