<svg xmlns="http://www.w3.org/2000/svg" viewBox="0 0 448 448" enable-background="new 0 0 448 448"><path d="M24.727-.027c-13.658 0-24.727 11.069-24.727 24.727v398.546c0 13.655 11.067 24.727 24.727 24.727h214.563v-173.49h-58.38v-67.611h58.38v-49.865c0-57.864 35.341-89.371 86.961-89.371 24.726 0 45.979 1.841 52.171 2.665v60.471l-35.802.017c-28.071 0-33.507 13.341-33.507 32.916v43.166h66.953l-8.719 67.611h-58.234v173.49h114.164c13.653 0 24.724-11.071 24.724-24.727v-398.544c0-13.658-11.069-24.727-24.724-24.727l-398.55-.001z"/></svg>