<?xml version="1.0" encoding="UTF-8" standalone="no"?>
<!-- Created with Inkscape (http://www.inkscape.org/) -->

<svg
   xmlns:dc="http://purl.org/dc/elements/1.1/"
   xmlns:cc="http://creativecommons.org/ns#"
   xmlns:rdf="http://www.w3.org/1999/02/22-rdf-syntax-ns#"
   xmlns:svg="http://www.w3.org/2000/svg"
   xmlns="http://www.w3.org/2000/svg"
   xmlns:sodipodi="http://sodipodi.sourceforge.net/DTD/sodipodi-0.dtd"
   xmlns:inkscape="http://www.inkscape.org/namespaces/inkscape"
   width="512"
   height="448"
   viewBox="0 0 512 448"
   id="svg2"
   version="1.1"
   inkscape:version="0.91 r13725"
   sodipodi:docname="status-warning.svg">
  <title
     id="title3336">status-warning</title>
  <defs
     id="defs4">
    <pattern
       y="0"
       x="0"
       height="6"
       width="6"
       patternUnits="userSpaceOnUse"
       id="EMFhbasepattern" />
  </defs>
  <sodipodi:namedview
     id="base"
     pagecolor="#ffffff"
     bordercolor="#666666"
     borderopacity="1.0"
     inkscape:pageopacity="0.0"
     inkscape:pageshadow="2"
     inkscape:zoom="0.9899495"
     inkscape:cx="351.60427"
     inkscape:cy="248.74698"
     inkscape:document-units="px"
     inkscape:current-layer="layer1"
     showgrid="true"
     units="px"
     inkscape:snap-bbox="true"
     inkscape:bbox-nodes="true"
     inkscape:window-width="1333"
     inkscape:window-height="809"
     inkscape:window-x="208"
     inkscape:window-y="208"
     inkscape:window-maximized="0"
     inkscape:object-nodes="true"
     inkscape:snap-grids="true"
     inkscape:snap-to-guides="false"
     inkscape:snap-nodes="false">
    <inkscape:grid
       type="xygrid"
       id="grid3336"
       spacingx="16"
       spacingy="16"
       empspacing="2" />
  </sodipodi:namedview>
  <metadata
     id="metadata7">
    <rdf:RDF>
      <cc:Work
         rdf:about="">
        <dc:format>image/svg+xml</dc:format>
        <dc:type
           rdf:resource="http://purl.org/dc/dcmitype/StillImage" />
        <dc:title>status-warning</dc:title>
      </cc:Work>
    </rdf:RDF>
  </metadata>
  <g
     inkscape:label="Layer 1"
     inkscape:groupmode="layer"
     id="layer1"
     transform="translate(0,-604.36209)">
    <path
       style="fill-opacity:1"
       d="M 255.27539 0.46289062 C 255.27139 0.46299064 255.26837 0.46473375 255.26367 0.46484375 C 249.90259 0.49274375 244.47503 1.8544081 239.48828 4.7050781 C 232.76978 8.5457081 227.99941 14.416504 225.50781 21.083984 L 6.5039062 396.66406 C 2.54928 401.86476 0.16075777 408.32282 0.015625 415.35352 C 0.0141209 415.40152 0.014953975 415.45055 0.013671875 415.49805 C 0.010782965 415.67585 -1.7347235e-018 415.85255 0 416.03125 C 0 416.14905 0.00655353 416.26541 0.0078125 416.38281 C 0.02320111 426.49681 4.9241413 436.30176 13.78125 442.34766 C 13.965382 442.47486 14.149008 442.60121 14.335938 442.72461 C 14.492629 442.82721 14.651483 442.92754 14.810547 443.02734 C 15.188961 443.26774 15.573803 443.49991 15.962891 443.72461 C 15.966591 443.72461 15.968936 443.72433 15.972656 443.73633 L 15.982422 443.73633 C 20.680917 446.44433 26.134769 448 31.96875 448 L 480.03125 448 C 497.74196 448 512 433.74195 512 416.03125 C 512 407.71545 508.8558 400.16119 503.6875 394.48633 L 285.95117 21.078125 C 283.45916 14.412325 278.6898 8.5449181 271.97266 4.7050781 C 266.9859 1.8543981 261.55834 0.49273375 256.19727 0.46484375 C 256.04203 0.46184375 255.88586 0.46437065 255.73047 0.46289062 C 255.579 0.46389064 255.42672 0.45989064 255.27539 0.46289062 z M 214 80 L 298 80 L 298 92.800781 L 277.16211 288 L 234.83789 288 L 214 92.800781 L 214 80 z M 255.69141 324 C 261.57897 324 267.05706 325.11168 272.12305 327.33398 C 277.32602 329.55618 281.84401 332.59341 285.67773 336.44531 C 289.51145 340.29711 292.5222 344.8148 294.71289 350 C 296.90363 355.037 298 360.51746 298 366.44336 C 298 372.36936 296.90363 377.85157 294.71289 382.88867 C 292.5222 387.92567 289.51145 392.2963 285.67773 396 C 281.84401 399.7037 277.32602 402.59192 272.12305 404.66602 C 267.05706 406.88822 261.57897 408 255.69141 408 C 249.94083 408 244.53282 406.96267 239.4668 404.88867 C 234.40081 402.81447 229.95095 399.92636 226.11719 396.22266 C 222.42035 392.51896 219.4778 388.14833 217.28711 383.11133 C 215.09637 378.07433 214 372.51746 214 366.44336 C 214 360.51746 215.09637 355.037 217.28711 350 C 219.4778 344.8148 222.42035 340.29711 226.11719 336.44531 C 229.95095 332.59341 234.40081 329.55618 239.4668 327.33398 C 244.53282 325.11168 249.94083 324 255.69141 324 z "
       transform="translate(0,604.36209)"
       id="circle3402" />
  </g>
</svg>
