<?xml version="1.0" encoding="UTF-8" standalone="no"?>
<!-- Created with Inkscape (http://www.inkscape.org/) -->

<svg
   xmlns:dc="http://purl.org/dc/elements/1.1/"
   xmlns:cc="http://creativecommons.org/ns#"
   xmlns:rdf="http://www.w3.org/1999/02/22-rdf-syntax-ns#"
   xmlns:svg="http://www.w3.org/2000/svg"
   xmlns="http://www.w3.org/2000/svg"
   xmlns:sodipodi="http://sodipodi.sourceforge.net/DTD/sodipodi-0.dtd"
   xmlns:inkscape="http://www.inkscape.org/namespaces/inkscape"
   width="448"
   height="448"
   viewBox="0 0 448 448"
   id="svg2"
   version="1.1"
   inkscape:version="0.91 r13725"
   sodipodi:docname="status-info.svg">
  <title
     id="title3339">status-info</title>
  <defs
     id="defs4">
    <pattern
       y="0"
       x="0"
       height="6"
       width="6"
       patternUnits="userSpaceOnUse"
       id="EMFhbasepattern" />
  </defs>
  <sodipodi:namedview
     id="base"
     pagecolor="#ffffff"
     bordercolor="#666666"
     borderopacity="1.0"
     inkscape:pageopacity="0.0"
     inkscape:pageshadow="2"
     inkscape:zoom="0.98994952"
     inkscape:cx="239.70135"
     inkscape:cy="220.8132"
     inkscape:document-units="px"
     inkscape:current-layer="layer1"
     showgrid="true"
     units="px"
     inkscape:snap-bbox="true"
     inkscape:bbox-nodes="true"
     inkscape:window-width="1173"
     inkscape:window-height="914"
     inkscape:window-x="279"
     inkscape:window-y="1047"
     inkscape:window-maximized="0">
    <inkscape:grid
       type="xygrid"
       id="grid3336"
       spacingx="16"
       spacingy="16"
       empspacing="2" />
  </sodipodi:namedview>
  <metadata
     id="metadata7">
    <rdf:RDF>
      <cc:Work
         rdf:about="">
        <dc:format>image/svg+xml</dc:format>
        <dc:type
           rdf:resource="http://purl.org/dc/dcmitype/StillImage" />
        <dc:title>status-info</dc:title>
      </cc:Work>
    </rdf:RDF>
  </metadata>
  <g
     inkscape:label="Layer 1"
     inkscape:groupmode="layer"
     id="layer1"
     transform="translate(0,-604.36209)">
    <path
       style="fill-opacity:1"
       d="M 224 0 A 224 224 0 0 0 0 224 A 224 224 0 0 0 224 448 A 224 224 0 0 0 448 224 A 224 224 0 0 0 224 0 z M 224 64 A 40 40.000015 0 0 1 264 104 A 40 40.000015 0 0 1 224 144 A 40 40.000015 0 0 1 184 104 A 40 40.000015 0 0 1 224 64 z M 192 192 L 256 192 L 256 384 L 192 384 L 192 192 z "
       transform="translate(0,604.36209)"
       id="path3334" />
    <text
       sodipodi:linespacing="125%"
       id="text3347"
       y="628.57739"
       x="-1063.7494"
       style="font-style:normal;font-variant:normal;font-weight:normal;font-stretch:normal;font-size:90px;line-height:125%;font-family:'Segoe UI';-inkscape-font-specification:'Segoe UI';text-align:start;letter-spacing:0px;word-spacing:0px;text-anchor:start;fill:#000000;fill-opacity:1;stroke:none"
       xml:space="preserve"><tspan
         id="tspan3349"
         y="0"
         x="0"
         sodipodi:role="line"><tspan
           id="tspan3351"
           style="font-style:normal;font-variant:normal;font-weight:normal;font-stretch:normal;font-size:90px;font-family:'Segoe UI';-inkscape-font-specification:'Segoe UI';fill:#000000"
           dy="0"
           dx="0" /></tspan></text>
  </g>
</svg>
