<svg xmlns="http://www.w3.org/2000/svg" viewBox="0 0 448 448" enable-background="new 0 0 448 448"><path d="M224 0c-123.51 0-224 100.49-224 224s100.49 224 224 224 224-100.49 224-224-100.49-224-224-224zm32 384h-64v-64h64v64zm41.281-172.797l-33.875 33.891c-4.625 4.797-7.406 11.781-7.406 19.281v23.625h-64v-23.625c0-24.156 9.141-46.922 25.734-64.125l33.922-33.922c4.656-4.813 7.406-11.781 7.406-19.281 0-19.328-15.734-28.57-35.063-28.57s-35.046 9.523-35.046 41.523h-64c0-64 44.438-105.523 99.047-105.523 54.625 0 99.063 41.199 99.063 95.809 0 24.187-9.157 43.745-25.782 60.917z"/></svg>