<svg xmlns="http://www.w3.org/2000/svg" viewBox="0 0 448 448" enable-background="new 0 0 448 448"><path d="M333.714 278.857c-10.175 0-19.55 2.946-27.696 7.768l-77.946-77.946c14.411-18.589 23.357-41.625 23.357-66.964 0-4.45-.8-8.679-1.282-12.964l63.05-15.804c9.268 17.089 27.161 28.768 47.946 28.768 30.318 0 54.857-24.589 54.857-54.857 0-30.322-24.539-54.858-54.857-54.858-30.161 0-54.589 24.321-54.804 54.429l-62.568 15.64c-15.914-40.929-55.506-70.069-102.057-70.069-60.589 0-109.714 49.125-109.714 109.714 0 46.554 29.146 86.089 70.068 102l-15.64 62.625c-30.103.215-54.428 24.643-54.428 54.804 0 30.321 24.539 54.857 54.857 54.857s54.857-24.536 54.857-54.857c0-20.786-11.679-38.679-28.711-47.946l15.747-63.107c4.286.536 8.515 1.339 12.964 1.339 25.339 0 48.372-8.946 66.964-23.357l77.946 77.946c-4.821 8.143-7.768 17.518-7.768 27.696 0 30.321 24.539 54.857 54.857 54.857s54.857-24.536 54.857-54.857c.001-30.321-24.538-54.857-54.856-54.857zm-192-82.286c-30.318 0-54.857-24.536-54.857-54.857s24.539-54.857 54.857-54.857 54.857 24.536 54.857 54.857-24.539 54.857-54.857 54.857z"/></svg>