<svg xmlns="http://www.w3.org/2000/svg" viewBox="0 0 448 448" enable-background="new 0 0 448 448"><path d="M376 80c0-39.701-32.299-72-72-72s-72 32.299-72 72c0 34.201 23.977 62.888 56 70.186v41.814l.04 1.138c.023.319 1.809 32.431-14.91 50.384-7.819 8.396-18.656 12.478-33.13 12.478h-112v-105.814c32.023-7.298 56-35.985 56-70.186 0-39.701-32.299-72-72-72s-72 32.299-72 72c0 34.201 23.977 62.888 56 70.186v155.628c-32.023 7.298-56 35.985-56 70.186 0 39.701 32.299 72 72 72s72-32.299 72-72c0-34.201-23.977-62.888-56-70.186v-17.814h112c23.514 0 42.54-7.627 56.549-22.671 24.941-26.782 23.766-67.833 23.451-73.796v-41.347c32.023-7.298 56-35.985 56-70.186zm-304 0c0-22.056 17.944-40 40-40s40 17.944 40 40-17.944 40-40 40-40-17.944-40-40zm80 296c0 22.056-17.944 40-40 40s-40-17.944-40-40 17.944-40 40-40 40 17.944 40 40zm112-296c0-22.056 17.944-40 40-40s40 17.944 40 40-17.944 40-40 40-40-17.944-40-40z"/></svg>