<svg xmlns="http://www.w3.org/2000/svg" viewBox="0 0 448 448" enable-background="new 0 0 448 448"><path d="M352 200c-34.201 0-62.888 23.977-70.186 56h-9.814c-67.815 0-139.761-37.049-143.813-105.857 31.929-7.367 55.813-36.009 55.813-70.143 0-39.701-32.299-72-72-72s-72 32.299-72 72c0 34.201 23.977 62.888 56 70.186v155.628c-32.023 7.298-56 35.985-56 70.186 0 39.701 32.299 72 72 72s72-32.299 72-72c0-34.201-23.977-62.888-56-70.186v-76.765c7.042 8.076 15.184 15.53 24.373 22.245 31.925 23.327 75.527 36.706 119.627 36.706h9.814c7.298 32.023 35.985 56 70.186 56 39.701 0 72-32.299 72-72s-32.299-72-72-72zm-280-120c0-22.056 17.944-40 40-40s40 17.944 40 40-17.944 40-40 40-40-17.944-40-40zm80 296c0 22.056-17.944 40-40 40s-40-17.944-40-40 17.944-40 40-40 40 17.944 40 40zm200-64c-22.056 0-40-17.944-40-40s17.944-40 40-40 40 17.944 40 40-17.944 40-40 40z"/></svg>