<?xml version="1.0" encoding="UTF-8" standalone="no"?>
<svg
   xmlns:dc="http://purl.org/dc/elements/1.1/"
   xmlns:cc="http://creativecommons.org/ns#"
   xmlns:rdf="http://www.w3.org/1999/02/22-rdf-syntax-ns#"
   xmlns:svg="http://www.w3.org/2000/svg"
   xmlns="http://www.w3.org/2000/svg"
   xmlns:sodipodi="http://sodipodi.sourceforge.net/DTD/sodipodi-0.dtd"
   xmlns:inkscape="http://www.inkscape.org/namespaces/inkscape"
   width="512"
   height="448"
   id="svg2"
   version="1.1"
   inkscape:version="0.91 r13725"
   sodipodi:docname="tfvc-branch-locked.svg"
   inkscape:export-filename="C:\Users\JimLamb\Dropbox\Work\Resources\branch-white.png"
   inkscape:export-xdpi="90"
   inkscape:export-ydpi="90">
  <metadata
     id="metadata33">
    <rdf:RDF>
      <cc:Work
         rdf:about="">
        <dc:format>image/svg+xml</dc:format>
        <dc:type
           rdf:resource="http://purl.org/dc/dcmitype/StillImage" />
        <dc:title>tfvc-branch-locked</dc:title>
      </cc:Work>
    </rdf:RDF>
  </metadata>
  <sodipodi:namedview
     pagecolor="#ffffff"
     bordercolor="#666666"
     borderopacity="1"
     objecttolerance="10"
     gridtolerance="10"
     guidetolerance="10"
     inkscape:pageopacity="0"
     inkscape:pageshadow="2"
     inkscape:window-width="1893"
     inkscape:window-height="1091"
     id="namedview31"
     showgrid="true"
     inkscape:snap-global="true"
     inkscape:snap-bbox="true"
     inkscape:bbox-nodes="true"
     inkscape:zoom="1.4142136"
     inkscape:cx="490.36595"
     inkscape:cy="162.11269"
     inkscape:window-x="66"
     inkscape:window-y="905"
     inkscape:window-maximized="0"
     inkscape:current-layer="svg2"
     showguides="false"
     inkscape:object-nodes="true"
     inkscape:snap-smooth-nodes="false">
    <inkscape:grid
       type="xygrid"
       id="grid4188"
       spacingx="16"
       spacingy="16"
       empspacing="2" />
    <sodipodi:guide
       position="-90,246"
       orientation="0,1"
       id="guide5357" />
  </sodipodi:namedview>
  <title
     id="title4">tfvc-branch-locked</title>
  <defs
     id="defs6">
    <g
       id="hg">
      <path
         d="M 85.685,67.399 C 100.47,42.815 82.562,2.944 49.818,6.995 20.233,10.652 19.757,41.792 45.83,49.189 c 22.563,6.408 4.661,20.72 5.184,30.25 0.526,9.529 19.616,12.986 34.671,-12.04"
         id="path9"
         inkscape:connector-curvature="0" />
      <circle
         cx="31.579"
         cy="70.616997"
         r="12.838"
         id="circle11" />
      <circle
         cx="16.913"
         cy="43.476002"
         r="8.3999996"
         id="circle13" />
    </g>
  </defs>
  <path
     id="path3348"
     style="fill-opacity:1;stroke:none;stroke-width:64;stroke-miterlimit:4;stroke-dasharray:none;stroke-opacity:1"
     d="m 396.80078,192 c -31.9104,0 -57.60156,24.46657 -57.60156,54.85742 l 0,54.85742 C 328.56241,301.71484 320,309.8697 320,320 l 0,54.85742 0,54.85742 0,18.28516 19.19922,0 153.60156,0 19.19922,0 0,-18.28516 0,-54.85742 L 512,320 c 0,-10.1303 -8.56241,-18.28516 -19.19922,-18.28516 l 0,-54.85742 C 492.80078,216.46657 467.10962,192 435.19922,192 l -38.39844,0 z m 0,27.42773 38.39844,0 c 15.95521,0 28.80078,12.23426 28.80078,27.42969 l 0,54.85742 -96,0 0,-54.85742 c 0,-15.19543 12.84557,-27.42969 28.80078,-27.42969 z M 416,338.28516 a 19.2,18.285717 0 0 1 19.19922,18.28711 19.2,18.285717 0 0 1 -11.02539,16.52343 l 10.68164,38.33203 -38.05469,0 10.71875,-38.47656 A 19.2,18.285717 0 0 1 396.80078,356.57227 19.2,18.285717 0 0 1 416,338.28516 Z M 0,0 l 0,144 64,64 0,-96 c 31.00923,32.12566 68.86169,75.69988 96,112 48,64 64,98.66667 64,224 l 0.50195,0 c -4e-5,0.12828 -0.002,0.2505 -0.002,0.37891 l 47.5,0 L 272,288 c 0,-17.728 14.272,-32 32,-32 l 0,-32 c 0,-35.456 28.544,-64 64,-64 l 37.08008,0 C 418.02817,145.09432 432.52304,128.80382 448,112 l 0,48 16,0 c 9.41006,0 18.32353,2.02778 26.35547,5.64453 L 512,144 512,0 368,0 l -64,64 96,0 c -31.8139,34.482858 -76.97305,87.5394 -105.09961,125.17969 -15.71336,20.95114 -28.45491,41.29668 -38.56055,63.30859 -10.13334,-22.15856 -22.93608,-42.6153 -38.74023,-63.6875 C 206.14533,173.52843 167.45773,116.57588 119.2168,64 L 208,64 144,0 0,0 Z" />
</svg>
