<svg xmlns="http://www.w3.org/2000/svg" viewBox="0 0 448 448" enable-background="new 0 0 448 448"><path d="M293.994 262.527c41.641-24.285 70.006-68.937 70.006-120.527 0-77.203-62.812-140-140-140-77.203 0-140 62.797-140 140 0 51.59 28.357 96.244 70 120.529-75.437 27.739-128 99.244-128 185.471h32c0-93.094 72.922-166 166-166 94.625 0 166 71.375 166 166h32c0-86.229-52.562-157.736-128.006-185.473zm-177.994-120.527c0-59.547 48.453-108 108-108 59.563 0 108 48.453 108 108s-48.438 108-108 108c-59.547 0-108-48.453-108-108z"/></svg>