<svg xmlns="http://www.w3.org/2000/svg" viewBox="0 0 448 448" enable-background="new 0 0 448 448"><style type="text/css">.st0{fill:#101010;}</style><path class="st0" d="M364.305 167.757c21.038-16.312 34.601-41.925 34.601-70.538 0-49.141-39.969-89.164-89.125-89.164-49.125 0-89.094 39.941-89.094 89.082 0 28.61 13.56 54.315 34.586 70.627-21.528 11.223-39.187 28.821-50.431 50.359-16.311-21.076-41.843-34.67-70.499-34.67-49.141 0-89.109 39.969-89.109 89.109 0 28.611 13.561 54.113 34.592 70.425-37.89 19.753-63.826 59.411-63.826 105.013h32c0-47.625 38.734-86.344 86.344-86.344s86.344 38.719 86.344 86.344h32c0-45.602-25.936-85.26-63.827-105.013 20.924-16.229 34.448-41.554 34.586-69.987h.006c0-48 38.734-86.359 86.328-86.359 47.625 0 86.344 38.359 86.344 86.359h32c0-46-25.933-85.488-63.82-105.243zm-229.961 161.899c-31.484 0-57.109-25.625-57.109-57.094 0-31.484 25.625-57.109 57.109-57.109s57.109 25.625 57.109 57.109c0 31.469-25.625 57.094-57.109 57.094zm175.437-175.453c-31.469 0-57.094-25.609-57.094-57.094s25.626-57.109 57.094-57.109c31.5 0 57.125 25.625 57.125 57.109s-25.625 57.094-57.125 57.094z"/></svg>