<?xml version="1.0" encoding="UTF-8" standalone="no"?>
<!-- Created with Inkscape (http://www.inkscape.org/) -->

<svg
   xmlns:dc="http://purl.org/dc/elements/1.1/"
   xmlns:cc="http://creativecommons.org/ns#"
   xmlns:rdf="http://www.w3.org/1999/02/22-rdf-syntax-ns#"
   xmlns:svg="http://www.w3.org/2000/svg"
   xmlns="http://www.w3.org/2000/svg"
   xmlns:sodipodi="http://sodipodi.sourceforge.net/DTD/sodipodi-0.dtd"
   xmlns:inkscape="http://www.inkscape.org/namespaces/inkscape"
   width="512"
   height="448"
   viewBox="0 0 512 448"
   id="svg2"
   version="1.1"
   inkscape:version="0.91 r13725"
   sodipodi:docname="view-list-tree.svg">
  <title
     id="title3359">view-list-tree</title>
  <defs
     id="defs4" />
  <sodipodi:namedview
     id="base"
     pagecolor="#ffffff"
     bordercolor="#666666"
     borderopacity="1.0"
     inkscape:pageopacity="0.0"
     inkscape:pageshadow="2"
     inkscape:zoom="1.4"
     inkscape:cx="269.48917"
     inkscape:cy="204.40597"
     inkscape:document-units="px"
     inkscape:current-layer="layer1"
     showgrid="true"
     fit-margin-top="448"
     fit-margin-right="384"
     fit-margin-left="0"
     fit-margin-bottom="0"
     units="px"
     inkscape:window-width="1328"
     inkscape:window-height="1071"
     inkscape:window-x="132"
     inkscape:window-y="423"
     inkscape:window-maximized="0"
     inkscape:snap-bbox="true"
     inkscape:bbox-nodes="true">
    <inkscape:grid
       type="xygrid"
       id="grid3347"
       spacingx="16"
       spacingy="16"
       empspacing="2"
       originx="0"
       originy="-1.7498462e-005" />
  </sodipodi:namedview>
  <metadata
     id="metadata7">
    <rdf:RDF>
      <cc:Work
         rdf:about="">
        <dc:format>image/svg+xml</dc:format>
        <dc:type
           rdf:resource="http://purl.org/dc/dcmitype/StillImage" />
        <dc:title>view-list-tree</dc:title>
      </cc:Work>
    </rdf:RDF>
  </metadata>
  <g
     inkscape:label="Layer 1"
     inkscape:groupmode="layer"
     id="layer1"
     transform="translate(0,-604.36224)">
    <path
       style="fill-opacity:1;stroke:none;stroke-width:64;stroke-miterlimit:4;stroke-dasharray:none;stroke-opacity:1"
       d="M 0 32 L 0 64 L 0 192 L 32 192 L 128 192 L 128 320 L 160 320 L 256 320 L 256 416 L 256 448 L 288 448 L 384 448 L 416 448 L 480 448 L 512 448 L 512 416 L 512 32 L 32 32 L 0 32 z M 32 64 L 128 64 L 128 160 L 32 160 L 32 64 z M 160 64 L 480 64 L 480 160 L 160 160 L 160 64 z M 160 192 L 256 192 L 256 288 L 160 288 L 160 192 z M 288 192 L 480 192 L 480 288 L 288 288 L 288 192 z M 288 320 L 384 320 L 384 416 L 288 416 L 288 320 z M 416 320 L 480 320 L 480 416 L 416 416 L 416 320 z "
       transform="translate(0,604.36224)"
       id="rect3334" />
  </g>
</svg>
