<?xml version="1.0" encoding="UTF-8" standalone="no"?>
<svg
   xmlns:dc="http://purl.org/dc/elements/1.1/"
   xmlns:cc="http://creativecommons.org/ns#"
   xmlns:rdf="http://www.w3.org/1999/02/22-rdf-syntax-ns#"
   xmlns:svg="http://www.w3.org/2000/svg"
   xmlns="http://www.w3.org/2000/svg"
   xmlns:sodipodi="http://sodipodi.sourceforge.net/DTD/sodipodi-0.dtd"
   xmlns:inkscape="http://www.inkscape.org/namespaces/inkscape"
   width="512"
   height="448"
   id="svg2"
   version="1.1"
   inkscape:version="0.91 r13725"
   sodipodi:docname="watch-eye.svg">
  <metadata
     id="metadata33">
    <rdf:RDF>
      <cc:Work
         rdf:about="">
        <dc:format>image/svg+xml</dc:format>
        <dc:type
           rdf:resource="http://purl.org/dc/dcmitype/StillImage" />
        <dc:title>watch-eye</dc:title>
      </cc:Work>
    </rdf:RDF>
  </metadata>
  <sodipodi:namedview
     pagecolor="#ffffff"
     bordercolor="#666666"
     borderopacity="1"
     objecttolerance="10"
     gridtolerance="10"
     guidetolerance="10"
     inkscape:pageopacity="0"
     inkscape:pageshadow="2"
     inkscape:window-width="3840"
     inkscape:window-height="2097"
     id="namedview31"
     showgrid="true"
     inkscape:snap-global="true"
     inkscape:snap-bbox="true"
     inkscape:bbox-nodes="true"
     inkscape:zoom="1.4142136"
     inkscape:cx="380.76288"
     inkscape:cy="151.49131"
     inkscape:window-x="-8"
     inkscape:window-y="-8"
     inkscape:window-maximized="1"
     inkscape:current-layer="svg2"
     showguides="false"
     inkscape:object-nodes="true">
    <inkscape:grid
       type="xygrid"
       id="grid4188"
       spacingx="16"
       spacingy="16"
       empspacing="2" />
    <sodipodi:guide
       position="-90,246"
       orientation="0,1"
       id="guide5357" />
  </sodipodi:namedview>
  <title
     id="title4">watch-eye</title>
  <defs
     id="defs6">
    <g
       id="hg">
      <path
         d="M 85.685,67.399 C 100.47,42.815 82.562,2.944 49.818,6.995 20.233,10.652 19.757,41.792 45.83,49.189 c 22.563,6.408 4.661,20.72 5.184,30.25 0.526,9.529 19.616,12.986 34.671,-12.04"
         id="path9"
         inkscape:connector-curvature="0" />
      <circle
         cx="31.579"
         cy="70.616997"
         r="12.838"
         id="circle11" />
      <circle
         cx="16.913"
         cy="43.476002"
         r="8.3999996"
         id="circle13" />
    </g>
  </defs>
  <path
     id="path3357"
     style="fill-opacity:1;stroke:none;stroke-width:64;stroke-miterlimit:4;stroke-dasharray:none;stroke-opacity:1"
     d="M 256,64 A 128,128 0 0 0 128,192 128,128 0 0 0 256,320 128,128 0 0 0 384,192 128,128 0 0 0 256,64 Z m -48,64 a 48,48 0 0 1 48,48 48,48 0 0 1 -48,48 48,48 0 0 1 -48,-48 48,48 0 0 1 48,-48 z M 256,64 A 288,296 0 0 0 0.30078125,224 288,296 0 0 0 256,384 288,296 0 0 0 511.52148,224 288,296 0 0 0 256,64 Z m 0,32 A 256,264 0 0 1 475.10938,224 256,264 0 0 1 256,352 256,264 0 0 1 36.945312,224 256,264 0 0 1 256,96 Z" />
</svg>
