<svg xmlns="http://www.w3.org/2000/svg" viewBox="0 0 448 448" enable-background="new 0 0 448 448"><path d="M4 223.451l.186.481-.186.585v-1.066zm304.75 27.549c0-46.731-38.019-84.75-84.75-84.75s-84.75 38.019-84.75 84.75 38.019 84.75 84.75 84.75 84.75-38.019 84.75-84.75zm-32 0c0 29.087-23.663 52.75-52.75 52.75-29.086 0-52.75-23.663-52.75-52.75 0-29.086 23.664-52.75 52.75-52.75 29.087 0 52.75 23.664 52.75 52.75zm103.569-138.486c-41.864-36.283-97.379-56.264-156.319-56.264-58.94 0-114.456 19.981-156.32 56.264-42.515 36.847-65.93 86.029-65.93 138.486h32c0-89.741 85.346-162.75 190.25-162.75s190.25 73.009 190.25 162.75h32c0-52.457-23.414-101.639-65.931-138.486z"/></svg>